<svg width="32" height="20" viewBox="0 0 32 20" fill="none" xmlns="http://www.w3.org/2000/svg">
<mask id="mask0" mask-type="alpha" maskUnits="userSpaceOnUse" x="0" y="0" width="32" height="20">
<path d="M22.7025 0.666683C19.2165 0.666683 16.1809 2.58739 14.5889 5.42608C14.5614 5.48806 14.5222 5.55946 14.472 5.64263C14.3551 5.86389 14.246 6.08985 14.1472 6.32131C13.9455 6.86426 13.787 7.54137 13.6654 8.19494C13.5591 8.77477 13.4728 9.35807 13.4065 9.94382V9.96265H13.4041V9.96422L13.3979 10.0207C13.3708 11.0955 12.9229 12.1166 12.1506 12.8646C11.3783 13.6125 10.3433 14.0274 9.26823 14.02C8.19316 14.0126 7.16396 13.5835 6.40203 12.825C5.6401 12.0665 5.20634 11.0392 5.19407 9.96422C5.19427 8.87626 5.62661 7.83292 6.39599 7.06369C7.16537 6.29446 8.20879 5.86232 9.29675 5.86232C10.465 5.86232 11.518 6.35034 12.2649 7.13337C12.7024 5.51283 13.5127 4.01705 14.6313 2.76549C14.7066 2.67997 14.7858 2.59916 14.8635 2.51756C13.2578 1.31313 11.304 0.66351 9.29675 0.666683C4.16231 0.666683 0 4.82978 0 9.96422C0 15.0987 4.16231 19.257 9.29675 19.261H9.30538C13.809 19.261 17.55 16.0825 18.4115 11.7908C18.4711 11.4895 18.519 11.1835 18.5488 10.872H18.5496L18.5511 10.8438C18.5653 10.6986 18.5755 10.5503 18.5825 10.4028C18.5943 10.2741 18.61 10.1243 18.6296 9.96422C18.69 9.466 18.7944 8.86185 18.9701 8.40443C19.0364 8.25905 19.11 8.11712 19.1906 7.97918C19.2071 7.95713 19.2218 7.93378 19.2345 7.90935C19.9713 6.71126 21.2541 5.86232 22.7025 5.86232C23.7904 5.86232 24.8337 6.29448 25.6029 7.06374C26.3722 7.83299 26.8044 8.87633 26.8044 9.96422C26.8044 11.0521 26.3722 12.0954 25.6029 12.8647C24.8337 13.634 23.7904 14.0661 22.7025 14.0661C22.1475 14.0666 21.5982 13.9542 21.0881 13.7357C20.578 13.5171 20.1176 13.1971 19.7351 12.7951C19.2655 14.5257 18.3721 16.1121 17.1357 17.4109C18.7418 18.6144 20.6954 19.2637 22.7025 19.261C27.8377 19.261 32 15.0987 32 9.96422C32 4.82978 27.8377 0.666683 22.7025 0.666683Z" fill="white"/>
</mask>
<g mask="url(#mask0)">
<path fill-rule="evenodd" clip-rule="evenodd" d="M22.7025 0.666683C19.2165 0.666683 16.1809 2.58739 14.5889 5.42608C14.5614 5.48806 14.5222 5.55946 14.472 5.64263C14.3551 5.86389 14.246 6.08985 14.1472 6.32131C13.9455 6.86426 13.787 7.54137 13.6654 8.19494C13.5591 8.77477 13.4728 9.35807 13.4065 9.94382V9.96265H13.4041V9.96422L13.3979 10.0207C13.3708 11.0955 12.9229 12.1166 12.1506 12.8646C11.3783 13.6125 10.3433 14.0274 9.26823 14.02C8.19316 14.0126 7.16396 13.5835 6.40203 12.825C5.6401 12.0665 5.20634 11.0392 5.19407 9.96422C5.19427 8.87626 5.62661 7.83292 6.39599 7.06369C7.16537 6.29446 8.20879 5.86232 9.29675 5.86232C10.465 5.86232 11.518 6.35034 12.2649 7.13337C12.7024 5.51283 13.5127 4.01705 14.6313 2.76549C14.7066 2.67997 14.7858 2.59916 14.8635 2.51756C13.2578 1.31313 11.304 0.66351 9.29675 0.666683C4.16231 0.666683 0 4.82978 0 9.96422C0 15.0987 4.16231 19.257 9.29675 19.261H9.30538C13.809 19.261 17.55 16.0825 18.4115 11.7908C18.4711 11.4895 18.519 11.1835 18.5488 10.872H18.5496L18.5511 10.8438C18.5653 10.6986 18.5755 10.5503 18.5825 10.4028C18.5943 10.2741 18.61 10.1243 18.6296 9.96422C18.69 9.466 18.7944 8.86185 18.9701 8.40443C19.0364 8.25905 19.11 8.11712 19.1906 7.97918C19.2071 7.95713 19.2218 7.93378 19.2345 7.90935C19.9713 6.71126 21.2541 5.86232 22.7025 5.86232C23.7904 5.86232 24.8337 6.29448 25.6029 7.06374C26.3722 7.83299 26.8044 8.87633 26.8044 9.96422C26.8044 11.0521 26.3722 12.0954 25.6029 12.8647C24.8337 13.634 23.7904 14.0661 22.7025 14.0661C22.1475 14.0666 21.5982 13.9542 21.0881 13.7357C20.578 13.5171 20.1176 13.1971 19.7351 12.7951C19.2655 14.5257 18.3721 16.1121 17.1357 17.4109C18.7418 18.6144 20.6954 19.2637 22.7025 19.261C27.8377 19.261 32 15.0987 32 9.96422C32 4.82978 27.8377 0.666683 22.7025 0.666683Z" fill="url(#paint0_linear)"/>
</g>
<defs>
<linearGradient id="paint0_linear" x1="0" y1="9.96401" x2="31.9997" y2="9.96401" gradientUnits="userSpaceOnUse">
<stop stop-color="#00C19C"/>
<stop offset="1" stop-color="#00DBB1"/>
</linearGradient>
</defs>
</svg>
