<svg width="113" height="36" viewBox="0 0 113 36" fill="none" xmlns="http://www.w3.org/2000/svg">
    <g clip-path="url(#clip0)">
        <path d="M20.679 2.97616C20.679 2.71335 20.8197 2.47201 21.0449 2.34872L25.1806 0.0840228C25.6397 -0.167378 26.1932 0.175612 26.1932 0.711469V30.0681C26.1932 30.332 26.0513 30.5741 25.8247 30.6969L21.689 32.9382C21.23 33.187 20.679 32.8439 20.679 32.3093V2.97616Z" fill="#2B8DFF"/>
        <path opacity="0.5" d="M0 32.2734C0 32.8084 0.551888 33.1515 1.01092 32.9018L5.14662 30.6528C5.37276 30.5299 5.51428 30.288 5.51428 30.0244V9.07477C5.51428 8.53991 4.96257 8.19684 4.50355 8.44627L0.367843 10.6936C0.141605 10.8165 0 11.0585 0 11.3221V32.2734Z" fill="#2B8DFF"/>
        <path d="M19.0148 14.9348H14.2439C14.0611 14.9348 13.8857 15.0097 13.7565 15.1429L6.34666 22.7807C6.07748 23.0582 6.07748 23.508 6.34666 23.7855L13.7565 31.4233C13.8857 31.5565 14.0611 31.6314 14.2439 31.6314H19.0148C19.6289 31.6314 19.9364 30.8661 19.5022 30.4185L13.0672 23.7855C12.798 23.508 12.798 23.0582 13.0672 22.7807L19.5022 16.1477C19.9364 15.7001 19.6289 14.9348 19.0148 14.9348Z" fill="#2B8DFF"/>
        <path d="M32.711 31.3425C32.6343 31.3425 32.5653 31.3194 32.5039 31.2733C32.4578 31.2118 32.4348 31.1427 32.4348 31.0658V15.4794C32.4348 15.4026 32.4578 15.3411 32.5039 15.295C32.5653 15.2335 32.6343 15.2028 32.711 15.2028H34.8287C34.9054 15.2028 34.9668 15.2335 35.0128 15.295C35.0742 15.3411 35.1049 15.4026 35.1049 15.4794V22.1198C35.1049 22.1659 35.1203 22.1967 35.151 22.212C35.1816 22.2274 35.2123 22.212 35.243 22.1659L39.9618 15.3872C40.0385 15.2643 40.1459 15.2028 40.284 15.2028H42.6088C42.7163 15.2028 42.7853 15.2412 42.816 15.3181C42.862 15.3795 42.8544 15.4564 42.793 15.5486L38.4426 22.0276C38.4272 22.0737 38.4272 22.1275 38.4426 22.189L43.1152 31.0197C43.1459 31.0812 43.1613 31.1273 43.1613 31.158C43.1613 31.281 43.0846 31.3425 42.9311 31.3425H40.5832C40.4298 31.3425 40.3147 31.2733 40.238 31.135L36.6011 24.2641C36.5858 24.218 36.5627 24.1949 36.532 24.1949C36.5014 24.1949 36.4707 24.2103 36.44 24.241L35.151 26.0164C35.1203 26.0779 35.1049 26.124 35.1049 26.1547V31.0658C35.1049 31.1427 35.0742 31.2118 35.0128 31.2733C34.9668 31.3194 34.9054 31.3425 34.8287 31.3425H32.711Z" fill="#253E6F"/>
        <path d="M46.2878 17.9465C45.8121 17.9465 45.4208 17.7928 45.1139 17.4854C44.8223 17.178 44.6765 16.786 44.6765 16.3095C44.6765 15.833 44.8223 15.441 45.1139 15.1336C45.4208 14.8262 45.8121 14.6725 46.2878 14.6725C46.7789 14.6725 47.1702 14.8262 47.4617 15.1336C47.7686 15.4257 47.9221 15.8176 47.9221 16.3095C47.9221 16.786 47.7686 17.178 47.4617 17.4854C47.1548 17.7928 46.7635 17.9465 46.2878 17.9465ZM45.229 31.3425C45.1522 31.3425 45.0832 31.3194 45.0218 31.2733C44.9758 31.2118 44.9527 31.1427 44.9527 31.0658V19.8141C44.9527 19.7373 44.9758 19.6758 45.0218 19.6297C45.0832 19.5682 45.1522 19.5374 45.229 19.5374H47.3466C47.4234 19.5374 47.4847 19.5682 47.5308 19.6297C47.5922 19.6758 47.6228 19.7373 47.6228 19.8141V31.0658C47.6228 31.1427 47.5922 31.2118 47.5308 31.2733C47.4847 31.3194 47.4234 31.3425 47.3466 31.3425H45.229Z" fill="#253E6F"/>
        <path d="M55.5952 19.376C56.7154 19.376 57.5901 19.7296 58.2193 20.4367C58.8485 21.1437 59.163 22.1198 59.163 23.3649V31.0658C59.163 31.1427 59.1324 31.2118 59.071 31.2733C59.0249 31.3194 58.9636 31.3425 58.8868 31.3425H56.7692C56.6924 31.3425 56.6234 31.3194 56.562 31.2733C56.516 31.2118 56.4929 31.1427 56.4929 31.0658V23.7338C56.4929 23.1036 56.3318 22.604 56.0096 22.2351C55.7026 21.8662 55.2806 21.6817 54.7436 21.6817C54.1911 21.6817 53.7461 21.8739 53.4085 22.2581C53.0862 22.627 52.9251 23.1266 52.9251 23.7568V31.0658C52.9251 31.1427 52.8944 31.2118 52.833 31.2733C52.787 31.3194 52.7256 31.3425 52.6489 31.3425H50.5312C50.4545 31.3425 50.3854 31.3194 50.3241 31.2733C50.278 31.2118 50.255 31.1427 50.255 31.0658V19.8372C50.255 19.7603 50.278 19.6988 50.3241 19.6527C50.3854 19.5912 50.4545 19.5605 50.5312 19.5605H52.6489C52.7256 19.5605 52.787 19.5912 52.833 19.6527C52.8944 19.6988 52.9251 19.7603 52.9251 19.8372V20.4367C52.9251 20.4828 52.9405 20.5135 52.9712 20.5289C53.0018 20.5443 53.0325 20.5289 53.0632 20.4828C53.677 19.7449 54.521 19.376 55.5952 19.376Z" fill="#253E6F"/>
        <path d="M67.7997 19.8372C67.7997 19.7603 67.8227 19.6988 67.8688 19.6527C67.9301 19.5912 67.9992 19.5605 68.0759 19.5605H70.1936C70.2703 19.5605 70.3317 19.5912 70.3777 19.6527C70.4391 19.6988 70.4698 19.7603 70.4698 19.8372V30.72C70.4698 32.503 69.9864 33.8249 69.0197 34.6857C68.0529 35.5619 66.6565 36 64.8304 36C64.6155 36 64.2779 35.9846 63.8176 35.9539C63.6334 35.9385 63.5414 35.8386 63.5414 35.6541L63.6104 33.8096C63.6104 33.6251 63.7101 33.5406 63.9096 33.556C64.0631 33.5713 64.2933 33.579 64.6002 33.579C65.7511 33.579 66.5721 33.3408 67.0631 32.8642C67.5542 32.3877 67.7997 31.6192 67.7997 30.5586V30.3511C67.7997 30.3049 67.7844 30.2742 67.7537 30.2588C67.723 30.2435 67.6923 30.2588 67.6616 30.3049C67.0785 30.9813 66.2728 31.3194 65.2447 31.3194C64.2472 31.3194 63.4032 31.0274 62.7127 30.4433C62.0222 29.8438 61.5925 28.9984 61.4237 27.907C61.3316 27.4459 61.2856 26.6159 61.2856 25.4169C61.2856 24.1411 61.347 23.2649 61.4697 22.7884C61.6232 21.7432 62.0222 20.9132 62.6667 20.2983C63.3112 19.6835 64.1398 19.376 65.1526 19.376C66.2115 19.376 67.0478 19.7219 67.6616 20.4136C67.6923 20.4443 67.723 20.4597 67.7537 20.4597C67.7844 20.4443 67.7997 20.4136 67.7997 20.3675V19.8372ZM67.7307 27.4229C67.7767 26.8387 67.7997 26.1701 67.7997 25.4169C67.7997 24.5408 67.769 23.8491 67.7076 23.3418C67.6463 22.8499 67.4544 22.4503 67.1322 22.1429C66.8099 21.8354 66.4033 21.6817 65.9122 21.6817C65.4212 21.6817 65.0145 21.8354 64.6923 22.1429C64.37 22.4503 64.1705 22.8499 64.0938 23.3418C64.0017 23.9105 63.9557 24.6022 63.9557 25.4169C63.9557 26.1701 63.994 26.8387 64.0708 27.4229C64.1475 27.9147 64.3547 28.3144 64.6923 28.6218C65.0299 28.9292 65.4442 29.0829 65.9352 29.0829C66.4416 29.0829 66.8483 28.9292 67.1552 28.6218C67.4775 28.3144 67.6693 27.9147 67.7307 27.4229Z" fill="#253E6F"/>
        <path d="M73.3525 31.3425C73.2758 31.3425 73.2067 31.3194 73.1453 31.2733C73.0993 31.2118 73.0763 31.1427 73.0763 31.0658V15.4794C73.0763 15.4026 73.0993 15.3411 73.1453 15.295C73.2067 15.2335 73.2758 15.2028 73.3525 15.2028H78.1172C79.6058 15.2028 80.795 15.6178 81.6851 16.4478C82.5904 17.2779 83.0431 18.3846 83.0431 19.768V26.7773C83.0431 28.1607 82.5904 29.2674 81.6851 30.0974C80.795 30.9275 79.6058 31.3425 78.1172 31.3425H73.3525ZM75.7464 28.9215C75.7464 28.9984 75.7847 29.0368 75.8615 29.0368L78.1403 29.0138C78.8001 29.0138 79.3295 28.7909 79.7285 28.3451C80.1275 27.884 80.3423 27.2615 80.373 26.4775V20.0677C80.373 19.2838 80.1659 18.6613 79.7515 18.2001C79.3526 17.739 78.8155 17.5084 78.1403 17.5084H75.8615C75.7847 17.5084 75.7464 17.5469 75.7464 17.6237V28.9215Z" fill="#253E6F"/>
        <path d="M89.5796 19.376C90.4543 19.376 91.2292 19.5451 91.9044 19.8833C92.5796 20.2061 93.1014 20.6595 93.4696 21.2436C93.8533 21.8277 94.0451 22.4964 94.0451 23.2496V31.0658C94.0451 31.1427 94.0144 31.2118 93.953 31.2733C93.907 31.3194 93.8456 31.3425 93.7689 31.3425H91.6512C91.5745 31.3425 91.5054 31.3194 91.444 31.2733C91.398 31.2118 91.375 31.1427 91.375 31.0658V30.4894C91.375 30.4433 91.3596 30.4125 91.329 30.3972C91.2983 30.3818 91.2676 30.3895 91.2369 30.4202C90.5924 31.158 89.664 31.527 88.4517 31.527C87.4389 31.527 86.5795 31.258 85.8736 30.72C85.1678 30.1666 84.8148 29.2751 84.8148 28.0454C84.8148 26.7542 85.2215 25.7935 86.0348 25.1633C86.8634 24.5331 87.999 24.218 89.4415 24.218H91.2599C91.3366 24.218 91.375 24.1795 91.375 24.1027V23.5263C91.375 22.9575 91.2139 22.5118 90.8916 22.189C90.5847 21.8508 90.155 21.6817 89.6026 21.6817C89.1576 21.6817 88.7893 21.7893 88.4977 22.0045C88.2215 22.2043 88.045 22.481 87.9683 22.8346C87.9223 23.0036 87.8148 23.0882 87.646 23.0882L85.4133 22.9498C85.3366 22.9498 85.2675 22.9268 85.2061 22.8807C85.1601 22.8192 85.1447 22.7577 85.1601 22.6962C85.2522 21.7125 85.7048 20.9132 86.5182 20.2983C87.3468 19.6835 88.3673 19.376 89.5796 19.376ZM89.1422 29.3596C89.7407 29.3596 90.2624 29.1905 90.7075 28.8524C91.1525 28.4988 91.375 28.0377 91.375 27.469V26.27C91.375 26.1932 91.3366 26.1547 91.2599 26.1547H89.7177C89.0425 26.1547 88.5054 26.3008 88.1064 26.5928C87.7228 26.8849 87.531 27.3076 87.531 27.8609C87.531 28.3528 87.6767 28.7294 87.9683 28.9907C88.2752 29.2367 88.6665 29.3596 89.1422 29.3596Z" fill="#253E6F"/>
        <path d="M101.817 21.3128C101.817 21.3897 101.786 21.4588 101.725 21.5203C101.679 21.5664 101.617 21.5895 101.541 21.5895H99.6761C99.5994 21.5895 99.561 21.6279 99.561 21.7048V27.492C99.561 28.0608 99.6684 28.4681 99.8833 28.714C100.113 28.9446 100.466 29.0522 100.942 29.0368H101.356C101.433 29.0368 101.495 29.0676 101.541 29.1291C101.602 29.1752 101.633 29.2366 101.633 29.3135V31.0658C101.633 31.2349 101.541 31.3348 101.356 31.3656H100.39C99.2541 31.3656 98.4024 31.1657 97.8346 30.7661C97.2669 30.3664 96.983 29.6132 96.983 28.5065V21.7048C96.983 21.6279 96.9446 21.5895 96.8679 21.5895H95.809C95.7323 21.5895 95.6633 21.5664 95.6019 21.5203C95.5558 21.4588 95.5328 21.3897 95.5328 21.3128V19.8372C95.5328 19.7603 95.5558 19.6988 95.6019 19.6527C95.6633 19.5912 95.7323 19.5605 95.809 19.5605H96.8679C96.9446 19.5605 96.983 19.5221 96.983 19.4452V16.8167C96.983 16.7399 97.006 16.6784 97.052 16.6323C97.1134 16.5708 97.1825 16.5401 97.2592 16.5401H99.2848C99.3615 16.5401 99.4229 16.5708 99.4689 16.6323C99.5303 16.6784 99.561 16.7399 99.561 16.8167V19.4452C99.561 19.5221 99.5994 19.5605 99.6761 19.5605H101.541C101.617 19.5605 101.679 19.5912 101.725 19.6527C101.786 19.6988 101.817 19.7603 101.817 19.8372V21.3128Z" fill="#253E6F"/>
        <path d="M108.035 19.376C108.909 19.376 109.684 19.5451 110.359 19.8833C111.035 20.2061 111.556 20.6595 111.925 21.2436C112.308 21.8277 112.5 22.4964 112.5 23.2496V31.0658C112.5 31.1427 112.469 31.2118 112.408 31.2733C112.362 31.3194 112.301 31.3425 112.224 31.3425H110.106C110.029 31.3425 109.96 31.3194 109.899 31.2733C109.853 31.2118 109.83 31.1427 109.83 31.0658V30.4894C109.83 30.4433 109.815 30.4125 109.784 30.3972C109.753 30.3818 109.723 30.3895 109.692 30.4202C109.047 31.158 108.119 31.527 106.907 31.527C105.894 31.527 105.035 31.258 104.329 30.72C103.623 30.1666 103.27 29.2751 103.27 28.0454C103.27 26.7542 103.676 25.7935 104.49 25.1633C105.318 24.5331 106.454 24.218 107.896 24.218H109.715C109.792 24.218 109.83 24.1795 109.83 24.1027V23.5263C109.83 22.9575 109.669 22.5118 109.347 22.189C109.04 21.8508 108.61 21.6817 108.058 21.6817C107.613 21.6817 107.244 21.7893 106.953 22.0045C106.677 22.2043 106.5 22.481 106.423 22.8346C106.377 23.0036 106.27 23.0882 106.101 23.0882L103.868 22.9498C103.792 22.9498 103.723 22.9268 103.661 22.8807C103.615 22.8192 103.6 22.7577 103.615 22.6962C103.707 21.7125 104.16 20.9132 104.973 20.2983C105.802 19.6835 106.822 19.376 108.035 19.376ZM107.597 29.3596C108.196 29.3596 108.717 29.1905 109.162 28.8524C109.607 28.4988 109.83 28.0377 109.83 27.469V26.27C109.83 26.1932 109.792 26.1547 109.715 26.1547H108.173C107.497 26.1547 106.96 26.3008 106.561 26.5928C106.178 26.8849 105.986 27.3076 105.986 27.8609C105.986 28.3528 106.132 28.7294 106.423 28.9907C106.73 29.2367 107.122 29.3596 107.597 29.3596Z" fill="#253E6F"/>
    </g>
    <defs>
        <clipPath id="clip0">
            <rect width="112.5" height="36" fill="white"/>
        </clipPath>
    </defs>
</svg>
