<svg width="113" height="36" viewBox="0 0 113 36" fill="none" xmlns="http://www.w3.org/2000/svg">
<g clip-path="url(#clip0)">
<path d="M20.6797 2.97616C20.6797 2.71335 20.8204 2.47201 21.0456 2.34872L25.1813 0.0840228C25.6404 -0.167378 26.194 0.175612 26.194 0.711469V30.0681C26.194 30.332 26.0521 30.5741 25.8254 30.6969L21.6897 32.9382C21.2307 33.187 20.6797 32.8439 20.6797 32.3093V2.97616Z" fill="white"/>
<path opacity="0.7" d="M0 32.2734C0 32.8084 0.551888 33.1514 1.01092 32.9018L5.14662 30.6528C5.37276 30.5298 5.51428 30.2879 5.51428 30.0244V9.07473C5.51428 8.53987 4.96257 8.19679 4.50355 8.44622L0.367843 10.6935C0.141605 10.8165 0 11.0584 0 11.322V32.2734Z" fill="white"/>
<path d="M19.0146 14.9346H14.2436C14.0608 14.9346 13.8855 15.0094 13.7562 15.1427L6.34642 22.7805C6.07724 23.0579 6.07724 23.5078 6.34642 23.7852L13.7562 31.423C13.8855 31.5563 14.0608 31.6311 14.2436 31.6311H19.0146C19.6286 31.6311 19.9362 30.8658 19.502 30.4182L13.0669 23.7852C12.7978 23.5078 12.7978 23.0579 13.0669 22.7805L19.502 16.1475C19.9362 15.6999 19.6286 14.9346 19.0146 14.9346Z" fill="white"/>
<path d="M32.7098 31.3424C32.6331 31.3424 32.564 31.3193 32.5026 31.2732C32.4566 31.2117 32.4336 31.1426 32.4336 31.0657V15.4794C32.4336 15.4025 32.4566 15.341 32.5026 15.2949C32.564 15.2334 32.6331 15.2027 32.7098 15.2027H34.8275C34.9042 15.2027 34.9656 15.2334 35.0116 15.2949C35.073 15.341 35.1037 15.4025 35.1037 15.4794V22.1197C35.1037 22.1658 35.119 22.1966 35.1497 22.2119C35.1804 22.2273 35.2111 22.2119 35.2418 22.1658L39.9605 15.3871C40.0373 15.2642 40.1447 15.2027 40.2828 15.2027H42.6076C42.715 15.2027 42.7841 15.2411 42.8148 15.318C42.8608 15.3794 42.8532 15.4563 42.7918 15.5485L38.4413 22.0275C38.426 22.0736 38.426 22.1274 38.4413 22.1889L43.114 31.0196C43.1447 31.0811 43.1601 31.1272 43.1601 31.1579C43.1601 31.2809 43.0833 31.3424 42.9299 31.3424H40.582C40.4286 31.3424 40.3135 31.2732 40.2368 31.1349L36.5999 24.264C36.5845 24.2179 36.5615 24.1948 36.5308 24.1948C36.5001 24.1948 36.4694 24.2102 36.4388 24.2409L35.1497 26.0163C35.119 26.0778 35.1037 26.1239 35.1037 26.1546V31.0657C35.1037 31.1426 35.073 31.2117 35.0116 31.2732C34.9656 31.3193 34.9042 31.3424 34.8275 31.3424H32.7098Z" fill="white"/>
<path d="M46.2866 17.9464C45.8109 17.9464 45.4196 17.7927 45.1126 17.4853C44.8211 17.1779 44.6753 16.7859 44.6753 16.3094C44.6753 15.8329 44.8211 15.4409 45.1126 15.1335C45.4196 14.8261 45.8109 14.6724 46.2866 14.6724C46.7776 14.6724 47.1689 14.8261 47.4605 15.1335C47.7674 15.4256 47.9209 15.8175 47.9209 16.3094C47.9209 16.7859 47.7674 17.1779 47.4605 17.4853C47.1536 17.7927 46.7623 17.9464 46.2866 17.9464ZM45.2277 31.3424C45.151 31.3424 45.082 31.3193 45.0206 31.2732C44.9745 31.2117 44.9515 31.1426 44.9515 31.0657V19.814C44.9515 19.7372 44.9745 19.6757 45.0206 19.6296C45.082 19.5681 45.151 19.5373 45.2277 19.5373H47.3454C47.4221 19.5373 47.4835 19.5681 47.5296 19.6296C47.5909 19.6757 47.6216 19.7372 47.6216 19.814V31.0657C47.6216 31.1426 47.5909 31.2117 47.5296 31.2732C47.4835 31.3193 47.4221 31.3424 47.3454 31.3424H45.2277Z" fill="white"/>
<path d="M55.594 19.3759C56.7142 19.3759 57.5889 19.7295 58.2181 20.4366C58.8472 21.1436 59.1618 22.1197 59.1618 23.3648V31.0657C59.1618 31.1426 59.1311 31.2117 59.0697 31.2732C59.0237 31.3193 58.9623 31.3424 58.8856 31.3424H56.7679C56.6912 31.3424 56.6222 31.3193 56.5608 31.2732C56.5147 31.2117 56.4917 31.1426 56.4917 31.0657V23.7337C56.4917 23.1035 56.3306 22.6039 56.0083 22.235C55.7014 21.8661 55.2794 21.6816 54.7423 21.6816C54.1899 21.6816 53.7449 21.8738 53.4073 22.258C53.085 22.6269 52.9239 23.1265 52.9239 23.7567V31.0657C52.9239 31.1426 52.8932 31.2117 52.8318 31.2732C52.7858 31.3193 52.7244 31.3424 52.6477 31.3424H50.53C50.4533 31.3424 50.3842 31.3193 50.3228 31.2732C50.2768 31.2117 50.2538 31.1426 50.2538 31.0657V19.8371C50.2538 19.7602 50.2768 19.6987 50.3228 19.6526C50.3842 19.5911 50.4533 19.5604 50.53 19.5604H52.6477C52.7244 19.5604 52.7858 19.5911 52.8318 19.6526C52.8932 19.6987 52.9239 19.7602 52.9239 19.8371V20.4366C52.9239 20.4827 52.9392 20.5134 52.9699 20.5288C53.0006 20.5442 53.0313 20.5288 53.062 20.4827C53.6758 19.7449 54.5198 19.3759 55.594 19.3759Z" fill="white"/>
<path d="M67.7985 19.8371C67.7985 19.7602 67.8215 19.6987 67.8675 19.6526C67.9289 19.5911 67.998 19.5604 68.0747 19.5604H70.1924C70.2691 19.5604 70.3305 19.5911 70.3765 19.6526C70.4379 19.6987 70.4686 19.7602 70.4686 19.8371V30.7199C70.4686 32.5029 69.9852 33.8248 69.0185 34.6856C68.0517 35.5618 66.6553 35.9999 64.8291 35.9999C64.6143 35.9999 64.2767 35.9845 63.8163 35.9538C63.6322 35.9384 63.5401 35.8385 63.5401 35.654L63.6092 33.8095C63.6092 33.625 63.7089 33.5405 63.9084 33.5559C64.0619 33.5712 64.2921 33.5789 64.599 33.5789C65.7499 33.5789 66.5709 33.3407 67.0619 32.8641C67.553 32.3876 67.7985 31.6191 67.7985 30.5585V30.351C67.7985 30.3048 67.7831 30.2741 67.7525 30.2587C67.7218 30.2434 67.6911 30.2587 67.6604 30.3048C67.0773 30.9812 66.2716 31.3193 65.2435 31.3193C64.246 31.3193 63.402 31.0273 62.7115 30.4432C62.0209 29.8437 61.5913 28.9983 61.4225 27.9069C61.3304 27.4458 61.2843 26.6158 61.2843 25.4168C61.2843 24.141 61.3457 23.2648 61.4685 22.7883C61.6219 21.7431 62.0209 20.9131 62.6654 20.2982C63.3099 19.6834 64.1386 19.3759 65.1514 19.3759C66.2102 19.3759 67.0466 19.7218 67.6604 20.4135C67.6911 20.4442 67.7218 20.4596 67.7525 20.4596C67.7831 20.4442 67.7985 20.4135 67.7985 20.3674V19.8371ZM67.7294 27.4228C67.7755 26.8386 67.7985 26.17 67.7985 25.4168C67.7985 24.5407 67.7678 23.849 67.7064 23.3417C67.645 22.8498 67.4532 22.4502 67.131 22.1428C66.8087 21.8353 66.4021 21.6816 65.911 21.6816C65.4199 21.6816 65.0133 21.8353 64.691 22.1428C64.3688 22.4502 64.1693 22.8498 64.0926 23.3417C64.0005 23.9104 63.9545 24.6021 63.9545 25.4168C63.9545 26.17 63.9928 26.8386 64.0695 27.4228C64.1463 27.9146 64.3534 28.3143 64.691 28.6217C65.0286 28.9291 65.443 29.0828 65.934 29.0828C66.4404 29.0828 66.8471 28.9291 67.154 28.6217C67.4762 28.3143 67.6681 27.9146 67.7294 27.4228Z" fill="white"/>
<path d="M73.3513 31.3424C73.2745 31.3424 73.2055 31.3193 73.1441 31.2732C73.0981 31.2117 73.075 31.1426 73.075 31.0657V15.4794C73.075 15.4025 73.0981 15.341 73.1441 15.2949C73.2055 15.2334 73.2745 15.2027 73.3513 15.2027H78.116C79.6045 15.2027 80.7938 15.6177 81.6838 16.4477C82.5892 17.2778 83.0419 18.3845 83.0419 19.7679V26.7772C83.0419 28.1606 82.5892 29.2673 81.6838 30.0973C80.7938 30.9274 79.6045 31.3424 78.116 31.3424H73.3513ZM75.7452 28.9214C75.7452 28.9983 75.7835 29.0367 75.8602 29.0367L78.139 29.0137C78.7989 29.0137 79.3283 28.7908 79.7273 28.345C80.1263 27.8839 80.3411 27.2614 80.3718 26.4774V20.0676C80.3718 19.2837 80.1646 18.6612 79.7503 18.2C79.3513 17.7389 78.8142 17.5083 78.139 17.5083H75.8602C75.7835 17.5083 75.7452 17.5468 75.7452 17.6236V28.9214Z" fill="white"/>
<path d="M89.5784 19.3759C90.453 19.3759 91.228 19.545 91.9032 19.8832C92.5784 20.206 93.1001 20.6594 93.4684 21.2435C93.8521 21.8276 94.0439 22.4963 94.0439 23.2495V31.0657C94.0439 31.1426 94.0132 31.2117 93.9518 31.2732C93.9058 31.3193 93.8444 31.3424 93.7677 31.3424H91.65C91.5733 31.3424 91.5042 31.3193 91.4428 31.2732C91.3968 31.2117 91.3738 31.1426 91.3738 31.0657V30.4893C91.3738 30.4432 91.3584 30.4124 91.3277 30.3971C91.297 30.3817 91.2663 30.3894 91.2357 30.4201C90.5912 31.1579 89.6628 31.5269 88.4505 31.5269C87.4377 31.5269 86.5783 31.2579 85.8724 30.7199C85.1665 30.1665 84.8136 29.275 84.8136 28.0453C84.8136 26.7541 85.2202 25.7934 86.0336 25.1632C86.8622 24.533 87.9978 24.2179 89.4402 24.2179H91.2587C91.3354 24.2179 91.3738 24.1794 91.3738 24.1026V23.5262C91.3738 22.9574 91.2126 22.5117 90.8904 22.1889C90.5835 21.8507 90.1538 21.6816 89.6014 21.6816C89.1564 21.6816 88.7881 21.7892 88.4965 22.0044C88.2203 22.2042 88.0438 22.4809 87.9671 22.8345C87.921 23.0035 87.8136 23.0881 87.6448 23.0881L85.4121 22.9497C85.3353 22.9497 85.2663 22.9267 85.2049 22.8806C85.1589 22.8191 85.1435 22.7576 85.1589 22.6961C85.2509 21.7124 85.7036 20.9131 86.5169 20.2982C87.3456 19.6834 88.3661 19.3759 89.5784 19.3759ZM89.141 29.3595C89.7395 29.3595 90.2612 29.1904 90.7062 28.8523C91.1513 28.4987 91.3738 28.0376 91.3738 27.4689V26.2699C91.3738 26.1931 91.3354 26.1546 91.2587 26.1546H89.7165C89.0413 26.1546 88.5042 26.3007 88.1052 26.5927C87.7216 26.8848 87.5297 27.3075 87.5297 27.8608C87.5297 28.3527 87.6755 28.7293 87.9671 28.9906C88.274 29.2366 88.6653 29.3595 89.141 29.3595Z" fill="white"/>
<path d="M101.816 21.3127C101.816 21.3896 101.785 21.4587 101.724 21.5202C101.677 21.5663 101.616 21.5894 101.539 21.5894H99.6749C99.5982 21.5894 99.5598 21.6278 99.5598 21.7047V27.4919C99.5598 28.0607 99.6672 28.468 99.882 28.7139C100.112 28.9445 100.465 29.0521 100.941 29.0367H101.355C101.432 29.0367 101.493 29.0675 101.539 29.129C101.601 29.1751 101.631 29.2366 101.631 29.3134V31.0657C101.631 31.2348 101.539 31.3347 101.355 31.3655H100.388C99.2529 31.3655 98.4012 31.1656 97.8334 30.766C97.2656 30.3663 96.9818 29.6131 96.9818 28.5064V21.7047C96.9818 21.6278 96.9434 21.5894 96.8667 21.5894H95.8078C95.7311 21.5894 95.662 21.5663 95.6007 21.5202C95.5546 21.4587 95.5316 21.3896 95.5316 21.3127V19.8371C95.5316 19.7602 95.5546 19.6987 95.6007 19.6526C95.662 19.5911 95.7311 19.5604 95.8078 19.5604H96.8667C96.9434 19.5604 96.9818 19.522 96.9818 19.4451V16.8166C96.9818 16.7398 97.0048 16.6783 97.0508 16.6322C97.1122 16.5707 97.1812 16.54 97.258 16.54H99.2836C99.3603 16.54 99.4217 16.5707 99.4677 16.6322C99.5291 16.6783 99.5598 16.7398 99.5598 16.8166V19.4451C99.5598 19.522 99.5982 19.5604 99.6749 19.5604H101.539C101.616 19.5604 101.677 19.5911 101.724 19.6526C101.785 19.6987 101.816 19.7602 101.816 19.8371V21.3127Z" fill="white"/>
<path d="M108.033 19.3759C108.908 19.3759 109.683 19.545 110.358 19.8832C111.033 20.206 111.555 20.6594 111.923 21.2435C112.307 21.8276 112.499 22.4963 112.499 23.2495V31.0657C112.499 31.1426 112.468 31.2117 112.407 31.2732C112.361 31.3193 112.299 31.3424 112.223 31.3424H110.105C110.028 31.3424 109.959 31.3193 109.898 31.2732C109.852 31.2117 109.829 31.1426 109.829 31.0657V30.4893C109.829 30.4432 109.813 30.4124 109.783 30.3971C109.752 30.3817 109.721 30.3894 109.691 30.4201C109.046 31.1579 108.118 31.5269 106.905 31.5269C105.893 31.5269 105.033 31.2579 104.327 30.7199C103.622 30.1665 103.269 29.275 103.269 28.0453C103.269 26.7541 103.675 25.7934 104.489 25.1632C105.317 24.533 106.453 24.2179 107.895 24.2179H109.714C109.79 24.2179 109.829 24.1794 109.829 24.1026V23.5262C109.829 22.9574 109.668 22.5117 109.345 22.1889C109.038 21.8507 108.609 21.6816 108.056 21.6816C107.611 21.6816 107.243 21.7892 106.952 22.0044C106.675 22.2042 106.499 22.4809 106.422 22.8345C106.376 23.0035 106.269 23.0881 106.1 23.0881L103.867 22.9497C103.79 22.9497 103.721 22.9267 103.66 22.8806C103.614 22.8191 103.599 22.7576 103.614 22.6961C103.706 21.7124 104.159 20.9131 104.972 20.2982C105.801 19.6834 106.821 19.3759 108.033 19.3759ZM107.596 29.3595C108.194 29.3595 108.716 29.1904 109.161 28.8523C109.606 28.4987 109.829 28.0376 109.829 27.4689V26.2699C109.829 26.1931 109.79 26.1546 109.714 26.1546H108.171C107.496 26.1546 106.959 26.3007 106.56 26.5927C106.177 26.8848 105.985 27.3075 105.985 27.8608C105.985 28.3527 106.131 28.7293 106.422 28.9906C106.729 29.2366 107.12 29.3595 107.596 29.3595Z" fill="white"/>
</g>
<defs>
<clipPath id="clip0">
<rect width="112.5" height="36" fill="white"/>
</clipPath>
</defs>
</svg>
