<svg width="24" height="24" viewBox="0 0 24 24" fill="none" xmlns="http://www.w3.org/2000/svg">
<path d="M5.06383 9.2483V15.4542C5.06383 16.2795 4.42021 16.9387 3.60106 16.9387C2.78723 16.9387 2 16.2741 2 15.4542V9.2483C2 8.43907 2.78723 7.77454 3.60106 7.77454C4.40426 7.77454 5.06383 8.43907 5.06383 9.2483ZM5.6383 17.6621C5.6383 18.541 6.34043 19.2485 7.21277 19.2485H8.27128L8.28723 22.5229C8.28723 24.5004 11.2234 24.4843 11.2234 22.5229V19.2485H13.2021V22.5229C13.2021 24.4897 16.1543 24.495 16.1543 22.5229V19.2485H17.2287C18.0904 19.2485 18.7926 18.541 18.7926 17.6621V8.04786H5.6383V17.6621ZM18.8298 7.52802H5.57979C5.57979 5.23431 6.94149 3.24071 8.96277 2.20104L7.94681 0.309265C7.79787 0.0466669 8.17553 -0.119466 8.30319 0.105617L9.33511 2.01347C11.1915 1.1828 13.3245 1.22568 15.0957 2.01347L16.1223 0.110977C16.2553 -0.119466 16.6277 0.052026 16.4787 0.314624L15.4628 2.20104C17.4681 3.24071 18.8298 5.23431 18.8298 7.52802ZM9.75 4.5537C9.75 4.24823 9.50532 3.99099 9.19149 3.99099C8.8883 3.99099 8.64894 4.24823 8.64894 4.5537C8.64894 4.85917 8.89362 5.11641 9.19149 5.11641C9.50532 5.11641 9.75 4.85917 9.75 4.5537ZM15.7819 4.5537C15.7819 4.24823 15.5372 3.99099 15.2394 3.99099C14.9255 3.99099 14.6809 4.24823 14.6809 4.5537C14.6809 4.85917 14.9255 5.11641 15.2394 5.11641C15.5372 5.11641 15.7819 4.85917 15.7819 4.5537ZM20.8245 7.77454C20.0213 7.77454 19.3617 8.423 19.3617 9.2483V15.4542C19.3617 16.2795 20.0213 16.9387 20.8245 16.9387C21.6436 16.9387 22.4255 16.2741 22.4255 15.4542V9.2483C22.4255 8.423 21.6383 7.77454 20.8245 7.77454Z" fill="white"/>
</svg>
