<svg width="24" height="24" viewBox="0 0 24 24" fill="none" xmlns="http://www.w3.org/2000/svg">
<path d="M12.549 5.18196C12.2394 5.27529 11.7848 5.35387 11.1555 5.4079C11.2104 2.62291 12.6489 0.663094 15.5509 0C16.0154 2.04331 14.2473 4.62201 12.549 5.18196ZM18.6077 8.75285C18.9274 8.29114 19.4369 7.7754 20.1362 7.1958C19.0223 5.84014 17.7337 5.01987 15.8856 5.01987C14.1174 5.01987 12.629 5.91382 11.5401 5.91382C10.616 5.91382 8.94778 5.12302 7.31947 5.12302C3.84309 5.12302 2 8.46796 2 11.9504C2 15.8209 4.9819 22 8.00376 22C9.19253 22 10.2614 21.1159 11.6749 21.1159C13.1384 21.1159 14.3122 21.9607 15.6858 21.9607C17.9834 21.9607 20.1112 18.1541 20.7805 16.0813C18.4429 15.3789 16.5649 11.6508 18.6077 8.75285Z" fill="white"/>
</svg>
