<svg width="64" height="64" viewBox="0 0 64 64" fill="none" xmlns="http://www.w3.org/2000/svg">
    <path d="M43 60H19C17.6739 60 16.4021 59.4732 15.4645 58.5355C14.5268 57.5979 14 56.3261 14 55V30C14 29.7348 14.1054 29.4804 14.2929 29.2929C14.4804 29.1054 14.7348 29 15 29H26C26.1316 28.9992 26.2621 29.0245 26.3839 29.0742C26.5057 29.124 26.6166 29.1973 26.71 29.29L28 30.59V19C28 18.2044 27.6839 17.4413 27.1213 16.8787C26.5587 16.3161 25.7956 16 25 16H15C14.7348 16 14.4804 15.8946 14.2929 15.7071C14.1054 15.5196 14 15.2652 14 15V9C14 7.67392 14.5268 6.40215 15.4645 5.46447C16.4021 4.52678 17.6739 4 19 4H43C43.6566 4 44.3068 4.12933 44.9134 4.3806C45.52 4.63188 46.0712 5.00017 46.5355 5.46447C46.9998 5.92876 47.3681 6.47995 47.6194 7.08658C47.8707 7.69321 48 8.34339 48 9V30C48 30.2652 47.8946 30.5196 47.7071 30.7071C47.5196 30.8946 47.2652 31 47 31H39C38.2044 31 37.4413 31.3161 36.8787 31.8787C36.3161 32.4413 36 33.2044 36 34V45.59L37.29 44.29C37.3834 44.1973 37.4943 44.124 37.6161 44.0742C37.7379 44.0245 37.8684 43.9992 38 44H47C47.2652 44 47.5196 44.1054 47.7071 44.2929C47.8946 44.4804 48 44.7348 48 45V55C48.0002 56.1527 47.6022 57.27 46.8733 58.1629C46.1444 59.0558 45.1294 59.6695 44 59.9C43.6707 59.966 43.3358 59.9995 43 60ZM16 31V55C16 55.7957 16.3161 56.5587 16.8787 57.1213C17.4413 57.6839 18.2044 58 19 58H43C43.2048 57.9989 43.409 57.9788 43.61 57.94C44.2858 57.7997 44.8925 57.4306 45.3279 56.895C45.7632 56.3595 46.0006 55.6902 46 55V46H38.41L35.71 48.71C35.5694 48.8488 35.3908 48.9428 35.1968 48.9801C35.0028 49.0175 34.8021 48.9966 34.62 48.92C34.4374 48.845 34.2811 48.7176 34.1707 48.5539C34.0604 48.3901 34.001 48.1974 34 48V34C34 32.6739 34.5268 31.4021 35.4645 30.4645C36.4021 29.5268 37.6739 29 39 29H46V9C46 8.20435 45.6839 7.44129 45.1213 6.87868C44.5587 6.31607 43.7956 6 43 6H19C18.2044 6 17.4413 6.31607 16.8787 6.87868C16.3161 7.44129 16 8.20435 16 9V14H25C26.3261 14 27.5979 14.5268 28.5355 15.4645C29.4732 16.4021 30 17.6739 30 19V33C29.999 33.1974 29.9396 33.3901 29.8293 33.5539C29.7189 33.7176 29.5626 33.845 29.38 33.92C29.1979 33.9966 28.9972 34.0175 28.8032 33.9801C28.6092 33.9428 28.4306 33.8488 28.29 33.71L25.59 31H16Z" fill="#2B8DFE"/>
    <path d="M51 31H47C46.7348 31 46.4804 30.8947 46.2929 30.7072C46.1054 30.5196 46 30.2653 46 30V9.00004C46 8.20439 45.6839 7.44133 45.1213 6.87872C44.5587 6.31611 43.7956 6.00004 43 6.00004H41.8H41.61C41.4096 5.9545 41.2054 5.92772 41 5.92004C40.7348 5.92004 40.4804 5.81469 40.2929 5.62715C40.1054 5.43961 40 5.18526 40 4.92004C40 4.65483 40.1054 4.40047 40.2929 4.21294C40.4804 4.0254 40.7348 3.92004 41 3.92004H47C48.3261 3.92004 49.5979 4.44683 50.5355 5.38451C51.4732 6.32219 52 7.59396 52 8.92004V30C52 30.2653 51.8946 30.5196 51.7071 30.7072C51.5196 30.8947 51.2652 31 51 31ZM48 29H50V8.92004C50 8.12439 49.6839 7.36133 49.1213 6.79872C48.5587 6.23611 47.7956 5.92004 47 5.92004H46.94C47.6272 6.79961 48.0004 7.88384 48 9.00004V29Z" fill="#2B8DFE"/>
    <path d="M47 59.92H43.8C43.5348 59.9465 43.2699 59.8666 43.0636 59.6978C42.8573 59.529 42.7265 59.2852 42.7 59.02C42.6735 58.7548 42.7534 58.4899 42.9222 58.2836C43.091 58.0773 43.3348 57.9465 43.6 57.92C44.2743 57.7824 44.8807 57.4171 45.3177 56.8855C45.7546 56.3539 45.9955 55.6882 46 55V45C46 44.7348 46.1054 44.4804 46.2929 44.2929C46.4804 44.1054 46.7348 44 47 44H51C51.2652 44 51.5196 44.1054 51.7071 44.2929C51.8946 44.4804 52 44.7348 52 45V54.92C52 56.2461 51.4732 57.5178 50.5355 58.4555C49.5978 59.3932 48.3261 59.92 47 59.92ZM48 46V55C48.0004 56.0478 47.6715 57.0692 47.06 57.92C47.8452 57.9043 48.5929 57.5813 49.1426 57.0204C49.6923 56.4595 50.0002 55.7054 50 54.92V46H48Z" fill="#2B8DFE"/>
    <path d="M42 56H20C19.4696 56 18.9609 55.7893 18.5858 55.4142C18.2107 55.0392 18 54.5304 18 54V30C18 29.7348 18.1054 29.4804 18.2929 29.2929C18.4804 29.1054 18.7348 29 19 29H26C26.1316 28.9993 26.2621 29.0245 26.3839 29.0742C26.5057 29.124 26.6166 29.1973 26.71 29.29L28 30.59V19C28 18.2044 27.6839 17.4413 27.1213 16.8787C26.5587 16.3161 25.7956 16 25 16H19C18.7348 16 18.4804 15.8947 18.2929 15.7071C18.1054 15.5196 18 15.2652 18 15V10C18 9.46958 18.2107 8.96088 18.5858 8.5858C18.9609 8.21073 19.4696 8.00002 20 8.00002H25C25.1316 7.99926 25.2621 8.02448 25.3839 8.07425C25.5057 8.12401 25.6166 8.19734 25.71 8.29002L27.41 10H34.59L36.29 8.29002C36.3834 8.19734 36.4943 8.12401 36.6161 8.07425C36.7379 8.02448 36.8684 7.99926 37 8.00002H42C42.5304 8.00002 43.0391 8.21073 43.4142 8.5858C43.7893 8.96088 44 9.46958 44 10V30C44 30.2652 43.8946 30.5196 43.7071 30.7071C43.5196 30.8947 43.2652 31 43 31H39C38.2044 31 37.4413 31.3161 36.8787 31.8787C36.3161 32.4413 36 33.2044 36 34V45.59L37.29 44.29C37.3834 44.1973 37.4943 44.124 37.6161 44.0742C37.7379 44.0245 37.8684 43.9993 38 44H43C43.2652 44 43.5196 44.1054 43.7071 44.2929C43.8946 44.4804 44 44.7348 44 45V54C44 54.5304 43.7893 55.0392 43.4142 55.4142C43.0391 55.7893 42.5304 56 42 56ZM20 31V54H42V46H38.41L35.71 48.71C35.5694 48.8488 35.3908 48.9428 35.1968 48.9801C35.0028 49.0175 34.8021 48.9966 34.62 48.92C34.4374 48.845 34.2811 48.7176 34.1707 48.5539C34.0604 48.3902 34.001 48.1974 34 48V34C34 32.6739 34.5268 31.4022 35.4645 30.4645C36.4021 29.5268 37.6739 29 39 29H42V10H37.41L35.71 11.71C35.6166 11.8027 35.5057 11.876 35.3839 11.9258C35.2621 11.9756 35.1316 12.0008 35 12H27C26.8684 12.0008 26.7379 11.9756 26.6161 11.9258C26.4943 11.876 26.3834 11.8027 26.29 11.71L24.59 10H20V14H25C26.3261 14 27.5979 14.5268 28.5355 15.4645C29.4732 16.4022 30 17.6739 30 19V33C29.999 33.1974 29.9396 33.3902 29.8293 33.5539C29.7189 33.7176 29.5626 33.845 29.38 33.92C29.1979 33.9966 28.9972 34.0175 28.8032 33.9801C28.6092 33.9428 28.4306 33.8488 28.29 33.71L25.59 31H20Z" fill="#2B8DFE"/>
    <path d="M29 34C28.8684 34.0008 28.7379 33.9755 28.6161 33.9258C28.4943 33.876 28.3834 33.8027 28.29 33.71L25.59 31H9C7.67392 31 6.40215 30.4732 5.46447 29.5355C4.52678 28.5979 4 27.3261 4 26V19C4 17.6739 4.52678 16.4021 5.46447 15.4645C6.40215 14.5268 7.67392 14 9 14H25C26.3261 14 27.5979 14.5268 28.5355 15.4645C29.4732 16.4021 30 17.6739 30 19V33C29.999 33.1974 29.9396 33.3901 29.8293 33.5539C29.7189 33.7176 29.5626 33.845 29.38 33.92C29.2613 33.976 29.1312 34.0034 29 34ZM9 16C8.20435 16 7.44129 16.3161 6.87868 16.8787C6.31607 17.4413 6 18.2044 6 19V26C6 26.7956 6.31607 27.5587 6.87868 28.1213C7.44129 28.6839 8.20435 29 9 29H26C26.1316 28.9992 26.2621 29.0245 26.3839 29.0742C26.5057 29.124 26.6166 29.1973 26.71 29.29L28 30.59V19C28 18.2044 27.6839 17.4413 27.1213 16.8787C26.5587 16.3161 25.7956 16 25 16H9Z" fill="#2B8DFE"/>
    <path d="M35 49C34.8688 49.0034 34.7387 48.976 34.62 48.92C34.4374 48.845 34.2811 48.7176 34.1707 48.5539C34.0604 48.3901 34.001 48.1974 34 48V34C34 32.6739 34.5268 31.4021 35.4645 30.4645C36.4021 29.5268 37.6739 29 39 29H55C56.3261 29 57.5979 29.5268 58.5355 30.4645C59.4732 31.4021 60 32.6739 60 34V41C60 42.3261 59.4732 43.5979 58.5355 44.5355C57.5979 45.4732 56.3261 46 55 46H38.41L35.71 48.71C35.6166 48.8027 35.5057 48.876 35.3839 48.9258C35.2621 48.9755 35.1316 49.0008 35 49ZM39 31C38.2044 31 37.4413 31.3161 36.8787 31.8787C36.3161 32.4413 36 33.2044 36 34V45.59L37.29 44.29C37.3834 44.1973 37.4943 44.124 37.6161 44.0742C37.7379 44.0245 37.8684 43.9992 38 44H55C55.7956 44 56.5587 43.6839 57.1213 43.1213C57.6839 42.5587 58 41.7956 58 41V34C58 33.2044 57.6839 32.4413 57.1213 31.8787C56.5587 31.3161 55.7956 31 55 31H39Z" fill="#2B8DFE"/>
    <path d="M10.5 24C11.3284 24 12 23.3284 12 22.5C12 21.6716 11.3284 21 10.5 21C9.67157 21 9 21.6716 9 22.5C9 23.3284 9.67157 24 10.5 24Z" fill="#2B8DFE"/>
    <path d="M16.5 24C17.3284 24 18 23.3284 18 22.5C18 21.6716 17.3284 21 16.5 21C15.6716 21 15 21.6716 15 22.5C15 23.3284 15.6716 24 16.5 24Z" fill="#2B8DFE"/>
    <path d="M22.5 24C23.3284 24 24 23.3284 24 22.5C24 21.6716 23.3284 21 22.5 21C21.6716 21 21 21.6716 21 22.5C21 23.3284 21.6716 24 22.5 24Z" fill="#2B8DFE"/>
    <path d="M41.5 39C42.3284 39 43 38.3284 43 37.5C43 36.6716 42.3284 36 41.5 36C40.6716 36 40 36.6716 40 37.5C40 38.3284 40.6716 39 41.5 39Z" fill="#2B8DFE"/>
    <path d="M47.5 39C48.3284 39 49 38.3284 49 37.5C49 36.6716 48.3284 36 47.5 36C46.6716 36 46 36.6716 46 37.5C46 38.3284 46.6716 39 47.5 39Z" fill="#2B8DFE"/>
    <path d="M53.5 39C54.3284 39 55 38.3284 55 37.5C55 36.6716 54.3284 36 53.5 36C52.6716 36 52 36.6716 52 37.5C52 38.3284 52.6716 39 53.5 39Z" fill="#2B8DFE"/>
</svg>
