<svg width="64" height="64" viewBox="0 0 64 64" fill="none" xmlns="http://www.w3.org/2000/svg">
    <path d="M13 60C10.8244 60 8.69767 59.3549 6.88873 58.1462C5.07979 56.9375 3.66989 55.2195 2.83733 53.2095C2.00477 51.1995 1.78693 48.9878 2.21137 46.854C2.6358 44.7202 3.68345 42.7602 5.22183 41.2218C6.76021 39.6835 8.72022 38.6358 10.854 38.2114C12.9878 37.7869 15.1995 38.0048 17.2095 38.8373C19.2195 39.6699 20.9375 41.0798 22.1462 42.8887C23.3549 44.6977 24 46.8244 24 49C24 51.9174 22.8411 54.7153 20.7782 56.7782C18.7153 58.8411 15.9174 60 13 60ZM13 40C11.22 40 9.47992 40.5278 7.99987 41.5168C6.51983 42.5057 5.36628 43.9113 4.68509 45.5559C4.0039 47.2004 3.82567 49.01 4.17294 50.7558C4.5202 52.5016 5.37737 54.1053 6.63604 55.364C7.89472 56.6226 9.49836 57.4798 11.2442 57.8271C12.99 58.1743 14.7996 57.9961 16.4442 57.3149C18.0887 56.6337 19.4943 55.4802 20.4832 54.0001C21.4722 52.5201 22 50.78 22 49C22 46.6131 21.0518 44.3239 19.364 42.636C17.6761 40.9482 15.387 40 13 40Z" fill="#2B8DFE"/>
    <path d="M51 60C48.8244 60 46.6977 59.3549 44.8887 58.1462C43.0798 56.9375 41.6699 55.2195 40.8373 53.2095C40.0048 51.1995 39.7869 48.9878 40.2114 46.854C40.6358 44.7202 41.6835 42.7602 43.2218 41.2218C44.7602 39.6835 46.7202 38.6358 48.854 38.2114C50.9878 37.7869 53.1995 38.0048 55.2095 38.8373C57.2195 39.6699 58.9375 41.0798 60.1462 42.8887C61.3549 44.6977 62 46.8244 62 49C62 51.9174 60.8411 54.7153 58.7782 56.7782C56.7153 58.8411 53.9174 60 51 60ZM51 40C49.22 40 47.4799 40.5278 45.9999 41.5168C44.5198 42.5057 43.3663 43.9113 42.6851 45.5559C42.0039 47.2004 41.8257 49.01 42.1729 50.7558C42.5202 52.5016 43.3774 54.1053 44.636 55.364C45.8947 56.6226 47.4984 57.4798 49.2442 57.8271C50.99 58.1743 52.7996 57.9961 54.4442 57.3149C56.0887 56.6337 57.4943 55.4802 58.4832 54.0001C59.4722 52.5201 60 50.78 60 49C60 46.6131 59.0518 44.3239 57.364 42.636C55.6761 40.9482 53.387 40 51 40Z" fill="#2B8DFE"/>
    <path d="M32 26C29.0826 26 26.2847 24.8411 24.2218 22.7782C22.1589 20.7153 21 17.9174 21 15C21 12.8244 21.6451 10.6977 22.8538 8.88873C24.0625 7.07979 25.7805 5.66989 27.7905 4.83733C29.8005 4.00477 32.0122 3.78693 34.146 4.21137C36.2798 4.6358 38.2398 5.68345 39.7782 7.22183C41.3166 8.76021 42.3642 10.7202 42.7886 12.854C43.2131 14.9878 42.9952 17.1995 42.1627 19.2095C41.3301 21.2195 39.9202 22.9375 38.1113 24.1462C36.3023 25.3549 34.1756 26 32 26ZM32 6.00001C30.1939 6.00393 28.4308 6.55117 26.9398 7.57057C25.4489 8.58996 24.2992 10.0344 23.6401 11.7159C22.9811 13.3975 22.8432 15.2385 23.2445 16.9994C23.6457 18.7604 24.5675 20.3599 25.89 21.59C27.5531 23.1277 29.7349 23.9818 32 23.9818C34.2651 23.9818 36.4469 23.1277 38.11 21.59C39.4325 20.3599 40.3543 18.7604 40.7555 16.9994C41.1568 15.2385 41.0189 13.3975 40.3599 11.7159C39.7008 10.0344 38.5511 8.58996 37.0602 7.57057C35.5692 6.55117 33.8061 6.00393 32 6.00001Z" fill="#2B8DFE"/>
    <path d="M44 43H20C19.8164 43.0004 19.6362 42.9502 19.4792 42.8549C19.3222 42.7597 19.1945 42.623 19.11 42.46C19.0326 42.3019 18.9984 42.1262 19.0107 41.9506C19.0229 41.775 19.0814 41.6058 19.18 41.46L31.18 24.46C31.2722 24.328 31.3948 24.2201 31.5376 24.1457C31.6804 24.0712 31.839 24.0323 32 24.0323C32.161 24.0323 32.3196 24.0712 32.4624 24.1457C32.6052 24.2201 32.7278 24.328 32.82 24.46L44.82 41.46C44.9186 41.6058 44.9771 41.775 44.9894 41.9506C45.0016 42.1262 44.9674 42.3019 44.89 42.46C44.8055 42.623 44.6778 42.7597 44.5208 42.8549C44.3638 42.9502 44.1836 43.0004 44 43ZM21.93 41H42.07L32 26.73L21.93 41Z" fill="#2B8DFE"/>
    <path d="M41.74 18.2701C41.6093 18.2685 41.4802 18.2413 41.36 18.1901C41.2297 18.1486 41.1078 18.0843 41 18.0001C40.9073 17.9066 40.834 17.7958 40.7842 17.674C40.7345 17.5521 40.7092 17.4217 40.71 17.2901C40.7137 17.0253 40.8173 16.7717 41 16.5801C41.1406 16.4413 41.3192 16.3473 41.5132 16.3099C41.7072 16.2726 41.9079 16.2935 42.09 16.3701C42.2112 16.4207 42.3228 16.4917 42.42 16.5801C42.6027 16.7717 42.7063 17.0253 42.71 17.2901C42.7084 17.4207 42.6813 17.5498 42.63 17.6701C42.5794 17.7912 42.5083 17.9029 42.42 18.0001C42.2356 18.1727 41.9926 18.2692 41.74 18.2701Z" fill="#2B8DFE"/>
    <path d="M53 35.63C52.9835 35.3663 53.0721 35.1068 53.2464 34.9081C53.4206 34.7095 53.6664 34.5879 53.93 34.57C54.0614 34.5604 54.1934 34.577 54.3184 34.6186C54.4433 34.6602 54.5589 34.7262 54.6583 34.8126C54.7577 34.899 54.8391 35.0042 54.8977 35.1222C54.9564 35.2401 54.9911 35.3685 55 35.5C55.0096 35.6371 54.9909 35.7747 54.945 35.9042C54.899 36.0337 54.8269 36.1524 54.7331 36.2528C54.6392 36.3532 54.5257 36.4332 54.3996 36.4877C54.2735 36.5423 54.1374 36.5703 54 36.57C53.7449 36.5704 53.4992 36.4733 53.3133 36.2986C53.1274 36.1238 53.0153 35.8846 53 35.63ZM52.4 32C52.3399 31.7428 52.3839 31.4722 52.5226 31.2474C52.6612 31.0225 52.8832 30.8617 53.14 30.8C53.3973 30.7365 53.6692 30.7778 53.896 30.9146C54.1229 31.0515 54.2862 31.2728 54.35 31.53C54.3813 31.658 54.3869 31.791 54.3666 31.9212C54.3463 32.0515 54.3004 32.1764 54.2317 32.2889C54.1629 32.4013 54.0726 32.4991 53.9659 32.5765C53.8592 32.6539 53.7382 32.7095 53.61 32.74C53.5337 32.7497 53.4564 32.7497 53.38 32.74C53.1576 32.7432 52.9405 32.6721 52.7631 32.5381C52.5856 32.4041 52.4578 32.2147 52.4 32ZM51.23 28.53C51.1767 28.4098 51.1477 28.2803 51.1445 28.149C51.1413 28.0176 51.164 27.8868 51.2114 27.7642C51.2588 27.6417 51.3298 27.5296 51.4205 27.4345C51.5112 27.3394 51.6198 27.2631 51.74 27.21C51.8602 27.1567 51.9896 27.1276 52.121 27.1244C52.2524 27.1212 52.3831 27.144 52.5057 27.1913C52.6283 27.2387 52.7404 27.3098 52.8355 27.4005C52.9306 27.4912 53.0069 27.5997 53.06 27.72C53.1133 27.8401 53.1424 27.9696 53.1455 28.101C53.1487 28.2324 53.126 28.3631 53.0786 28.4857C53.0313 28.6083 52.9602 28.7203 52.8695 28.8154C52.7788 28.9105 52.6702 28.9868 52.55 29.04C52.4243 29.0973 52.2881 29.1279 52.15 29.13C51.9571 29.1324 51.7675 29.0789 51.6043 28.976C51.441 28.8731 51.311 28.7251 51.23 28.55V28.53ZM49.47 25.32C49.3424 25.1059 49.2994 24.8518 49.3493 24.6077C49.3993 24.3635 49.5386 24.1468 49.74 24C49.8496 23.9267 49.9725 23.8759 50.1018 23.8503C50.231 23.8248 50.3641 23.825 50.4932 23.851C50.6224 23.877 50.7451 23.9283 50.8544 24.0019C50.9637 24.0756 51.0574 24.17 51.13 24.28C51.2032 24.3895 51.2541 24.5124 51.2797 24.6417C51.3052 24.771 51.305 24.904 51.279 25.0332C51.2529 25.1623 51.2017 25.2851 51.128 25.3944C51.0544 25.5037 50.9599 25.5973 50.85 25.67C50.6862 25.7758 50.495 25.8314 50.3 25.83C50.1316 25.8248 49.9672 25.7772 49.8221 25.6916C49.677 25.6059 49.5559 25.485 49.47 25.34V25.32ZM47.18 22.46C47.0863 22.367 47.0119 22.2564 46.9611 22.1345C46.9104 22.0127 46.8842 21.882 46.8842 21.75C46.8842 21.618 46.9104 21.4872 46.9611 21.3654C47.0119 21.2435 47.0863 21.1329 47.18 21.04C47.3674 20.8537 47.6208 20.7492 47.885 20.7492C48.1492 20.7492 48.4027 20.8537 48.59 21.04C48.6837 21.1329 48.7581 21.2435 48.8089 21.3654C48.8597 21.4872 48.8858 21.618 48.8858 21.75C48.8858 21.882 48.8597 22.0127 48.8089 22.1345C48.7581 22.2564 48.6837 22.367 48.59 22.46C48.4031 22.635 48.1561 22.7316 47.9 22.73C47.6364 22.7449 47.3776 22.6551 47.18 22.48V22.46ZM44.42 20.05C44.3134 19.9727 44.2231 19.8751 44.1544 19.7628C44.0856 19.6505 44.0396 19.5257 44.0192 19.3957C43.9988 19.2656 44.0042 19.1327 44.0352 19.0048C44.0663 18.8768 44.1223 18.7562 44.2 18.65C44.2781 18.5441 44.3762 18.4547 44.4889 18.3869C44.6015 18.3191 44.7264 18.2741 44.8565 18.2546C44.9865 18.2351 45.1191 18.2414 45.2467 18.2732C45.3743 18.305 45.4943 18.3617 45.6 18.44C45.7058 18.518 45.7952 18.6162 45.8631 18.7288C45.9309 18.8415 45.9759 18.9664 45.9954 19.0964C46.0149 19.2264 46.0086 19.3591 45.9767 19.4866C45.9449 19.6142 45.8883 19.7343 45.81 19.84C45.7159 19.9655 45.5935 20.0672 45.4528 20.1366C45.312 20.2061 45.1569 20.2415 45 20.24C44.7938 20.2445 44.5912 20.1851 44.42 20.07V20.05Z" fill="#2B8DFE"/>
    <path d="M53.87 40.42C53.7384 40.4208 53.6079 40.3956 53.4861 40.3458C53.3643 40.296 53.2535 40.2227 53.16 40.13C53.0673 40.0366 52.994 39.9258 52.9442 39.8039C52.8945 39.6821 52.8693 39.5516 52.87 39.42C52.8737 39.1553 52.9773 38.9017 53.16 38.71C53.2551 38.619 53.3673 38.5476 53.49 38.5C53.6731 38.4229 53.875 38.402 54.07 38.44L54.25 38.5C54.3137 38.5219 54.3743 38.5522 54.43 38.59C54.4824 38.627 54.5325 38.667 54.58 38.71C54.6711 38.8051 54.7424 38.9173 54.79 39.04C54.8413 39.1603 54.8684 39.2894 54.87 39.42C54.8734 39.5512 54.846 39.6814 54.79 39.8C54.7451 39.9241 54.6734 40.0368 54.5801 40.1301C54.4868 40.2235 54.3741 40.2951 54.25 40.34C54.1298 40.3913 54.0007 40.4184 53.87 40.42Z" fill="#2B8DFE"/>
    <path d="M10.13 40.42C9.99933 40.4184 9.87023 40.3912 9.75 40.34C9.62591 40.2951 9.51321 40.2234 9.41989 40.1301C9.32657 40.0368 9.25492 39.9241 9.21 39.8C9.15876 39.6798 9.13158 39.5507 9.13 39.42C9.13369 39.1552 9.23727 38.9016 9.42 38.71C9.51721 38.6217 9.62882 38.5506 9.75 38.5C9.86937 38.4459 9.99893 38.4178 10.13 38.4178C10.2611 38.4178 10.3906 38.4459 10.51 38.5C10.6312 38.5506 10.7428 38.6217 10.84 38.71C11.0227 38.9016 11.1263 39.1552 11.13 39.42C11.1316 39.55 11.1078 39.6791 11.06 39.8C11.002 39.9195 10.928 40.0305 10.84 40.13C10.7428 40.2183 10.6312 40.2894 10.51 40.34C10.3898 40.3912 10.2607 40.4184 10.13 40.42Z" fill="#2B8DFE"/>
    <path d="M10 36.58C9.73639 36.562 9.49061 36.4404 9.31636 36.2418C9.1421 36.0432 9.05353 35.7837 9.07 35.52C9.08798 35.2564 9.20956 35.0106 9.40817 34.8364C9.60679 34.6621 9.86629 34.5735 10.13 34.59C10.3828 34.6225 10.6136 34.7504 10.7753 34.9474C10.937 35.1444 11.0174 35.3957 11 35.65C10.9823 35.9029 10.8691 36.1396 10.6835 36.3123C10.4978 36.4849 10.2535 36.5806 10 36.58ZM10.4 32.76C10.145 32.6961 9.92547 32.5343 9.78885 32.3097C9.65223 32.0852 9.60953 31.8158 9.67 31.56C9.70051 31.4318 9.75607 31.3108 9.83349 31.2041C9.91091 31.0975 10.0087 31.0071 10.1211 30.9384C10.2336 30.8696 10.3585 30.8237 10.4887 30.8034C10.619 30.7831 10.7519 30.7887 10.88 30.82C11.127 30.8883 11.3384 31.0487 11.4705 31.2683C11.6026 31.4879 11.6454 31.7498 11.59 32C11.5352 32.2219 11.4062 32.4183 11.2242 32.5566C11.0423 32.6949 10.8184 32.7666 10.59 32.76C10.5202 32.7674 10.4498 32.7674 10.38 32.76H10.4ZM11.47 29.07C11.2279 28.9645 11.0374 28.7676 10.94 28.5222C10.8426 28.2768 10.8462 28.0028 10.95 27.76C11.0022 27.6389 11.0778 27.5293 11.1725 27.4376C11.2672 27.3458 11.3791 27.2737 11.5018 27.2254C11.6245 27.177 11.7555 27.1535 11.8874 27.156C12.0192 27.1585 12.1492 27.187 12.27 27.24C12.3911 27.2922 12.5007 27.3678 12.5924 27.4625C12.6842 27.5572 12.7563 27.6691 12.8046 27.7918C12.8529 27.9145 12.8765 28.0455 12.874 28.1774C12.8715 28.3092 12.843 28.4392 12.79 28.56C12.7119 28.7389 12.5832 28.891 12.4197 28.9976C12.2563 29.1042 12.0652 29.1607 11.87 29.16C11.7251 29.1608 11.5818 29.1301 11.45 29.07H11.47ZM13.16 25.63C13.0501 25.5573 12.9556 25.4637 12.882 25.3544C12.8084 25.2451 12.7571 25.1224 12.7311 24.9932C12.705 24.864 12.7048 24.731 12.7304 24.6017C12.7559 24.4725 12.8068 24.3495 12.88 24.24C13.0326 24.03 13.2608 23.8876 13.5164 23.8428C13.7721 23.798 14.0351 23.8544 14.25 24C14.3599 24.0726 14.4544 24.1663 14.528 24.2756C14.6016 24.3849 14.6529 24.5076 14.6789 24.6368C14.705 24.766 14.7052 24.899 14.6796 25.0283C14.6541 25.1575 14.6032 25.2804 14.53 25.39C14.4385 25.529 14.3137 25.6429 14.167 25.7215C14.0204 25.8001 13.8564 25.8408 13.69 25.84C13.4897 25.8268 13.2981 25.7536 13.14 25.63H13.16ZM15.42 22.53C15.3263 22.437 15.2519 22.3264 15.2011 22.2046C15.1503 22.0827 15.1242 21.952 15.1242 21.82C15.1242 21.688 15.1503 21.5573 15.2011 21.4354C15.2519 21.3136 15.3263 21.203 15.42 21.11C15.513 21.0163 15.6236 20.9419 15.7454 20.8911C15.8673 20.8403 15.998 20.8142 16.13 20.8142C16.262 20.8142 16.3927 20.8403 16.5146 20.8911C16.6364 20.9419 16.747 21.0163 16.84 21.11C16.9337 21.203 17.0081 21.3136 17.0589 21.4354C17.1097 21.5573 17.1358 21.688 17.1358 21.82C17.1358 21.952 17.1097 22.0827 17.0589 22.2046C17.0081 22.3264 16.9337 22.437 16.84 22.53C16.745 22.6269 16.6313 22.7035 16.5058 22.7551C16.3803 22.8066 16.2457 22.8321 16.11 22.83C15.9777 22.8294 15.8468 22.8026 15.7249 22.7511C15.6031 22.6997 15.4926 22.6245 15.4 22.53H15.42ZM18.19 19.87C18.1117 19.7643 18.0551 19.6443 18.0233 19.5167C17.9915 19.3891 17.9851 19.2565 18.0046 19.1264C18.0241 18.9964 18.0691 18.8715 18.1369 18.7588C18.2048 18.6462 18.2942 18.548 18.4 18.47C18.5057 18.3917 18.6257 18.3351 18.7533 18.3033C18.8809 18.2714 19.0135 18.2651 19.1436 18.2846C19.2736 18.3041 19.3985 18.3491 19.5112 18.4169C19.6238 18.4848 19.7219 18.5742 19.8 18.68C19.8783 18.7857 19.9349 18.9057 19.9667 19.0333C19.9985 19.1609 20.0049 19.2935 19.9854 19.4235C19.9659 19.5536 19.9209 19.6785 19.8531 19.7911C19.7852 19.9038 19.6958 20.0019 19.59 20.08C19.4157 20.2063 19.2052 20.2729 18.99 20.27C18.8314 20.2731 18.6743 20.2385 18.5317 20.169C18.3891 20.0994 18.2652 19.9969 18.17 19.87H18.19Z" fill="#2B8DFE"/>
    <path d="M22.26 18.27C21.9948 18.27 21.7404 18.1647 21.5529 17.9771C21.3654 17.7896 21.26 17.5352 21.26 17.27C21.26 17.0048 21.3654 16.7504 21.5529 16.5629C21.7404 16.3754 21.9948 16.27 22.26 16.27C22.5252 16.27 22.7796 16.3754 22.9671 16.5629C23.1547 16.7504 23.26 17.0048 23.26 17.27C23.2616 17.4 23.2378 17.5291 23.19 17.65C23.143 17.7748 23.079 17.8926 23 18C22.9014 18.0928 22.7849 18.1645 22.6577 18.211C22.5305 18.2574 22.3952 18.2775 22.26 18.27Z" fill="#2B8DFE"/>
    <path d="M20.41 56.71C20.2793 56.7084 20.1502 56.6812 20.03 56.63C19.9088 56.5793 19.7972 56.5083 19.7 56.42C19.5612 56.2794 19.4672 56.1008 19.4299 55.9068C19.3925 55.7128 19.4134 55.5121 19.49 55.33C19.5406 55.2088 19.6117 55.0972 19.7 55C19.7951 54.9089 19.9072 54.8376 20.03 54.79C20.2121 54.7134 20.4128 54.6925 20.6068 54.7299C20.8008 54.7672 20.9794 54.8612 21.12 55C21.2083 55.0972 21.2793 55.2088 21.33 55.33C21.386 55.4487 21.4134 55.5788 21.41 55.71C21.41 55.9752 21.3046 56.2295 21.1171 56.4171C20.9296 56.6046 20.6752 56.71 20.41 56.71Z" fill="#2B8DFE"/>
    <path d="M31 59C31 58.7348 31.1054 58.4804 31.2929 58.2929C31.4804 58.1054 31.7348 58 32 58C32.2652 58 32.5196 58.1054 32.7071 58.2929C32.8947 58.4804 33 58.7348 33 59C33 59.2652 32.8947 59.5196 32.7071 59.7071C32.5196 59.8947 32.2652 60 32 60C31.7348 60 31.4804 59.8947 31.2929 59.7071C31.1054 59.5196 31 59.2652 31 59ZM35.06 58.81C35.037 58.6807 35.0397 58.548 35.0679 58.4197C35.0961 58.2914 35.1494 58.1699 35.2246 58.0622C35.2999 57.9544 35.3956 57.8626 35.5063 57.7919C35.617 57.7211 35.7406 57.6729 35.87 57.65C36.1298 57.6033 36.3976 57.6611 36.6149 57.811C36.8322 57.9609 36.9814 58.1906 37.03 58.45C37.0546 58.5794 37.0534 58.7124 37.0265 58.8413C36.9996 58.9702 36.9474 59.0925 36.8731 59.2012C36.7988 59.3099 36.7037 59.4029 36.5933 59.4748C36.483 59.5466 36.3595 59.596 36.23 59.62H36C35.7733 59.6128 35.5557 59.5287 35.3831 59.3815C35.2105 59.2343 35.093 59.0328 35.05 58.81H35.06ZM27.78 59.61C27.5206 59.5614 27.2909 59.4122 27.141 59.1949C26.9911 58.9775 26.9333 58.7098 26.98 58.45C27.0286 58.1906 27.1779 57.9609 27.3952 57.811C27.6125 57.6611 27.8802 57.6033 28.14 57.65C28.3995 57.6986 28.6292 57.8479 28.779 58.0652C28.9289 58.2825 28.9868 58.5502 28.94 58.81C28.8974 59.043 28.7735 59.2532 28.5904 59.4034C28.4073 59.5536 28.1768 59.6339 27.94 59.63L27.78 59.61ZM39 57.89C38.9516 57.7673 38.9279 57.6362 38.9304 57.5042C38.9328 57.3723 38.9614 57.2422 39.0144 57.1213C39.0673 57.0005 39.1437 56.8913 39.2391 56.8001C39.3344 56.7089 39.4469 56.6375 39.57 56.59C39.6934 56.5418 39.8251 56.5186 39.9575 56.5218C40.0899 56.5249 40.2203 56.5543 40.3413 56.6083C40.4622 56.6622 40.5712 56.7397 40.662 56.8361C40.7528 56.9325 40.8235 57.046 40.87 57.17C40.9647 57.4167 40.9579 57.6909 40.8511 57.9326C40.7443 58.1743 40.5462 58.3639 40.3 58.46C40.1859 58.5073 40.0635 58.5311 39.94 58.53C39.7369 58.5314 39.5381 58.471 39.3702 58.3566C39.2023 58.2423 39.0731 58.0795 39 57.89ZM23.67 58.45C23.4238 58.3539 23.2257 58.1643 23.1189 57.9226C23.0121 57.6809 23.0053 57.4067 23.1 57.16C23.1961 56.9138 23.3857 56.7157 23.6274 56.6089C23.8691 56.5021 24.1433 56.4953 24.39 56.59C24.5155 56.6336 24.631 56.7018 24.7298 56.7906C24.8287 56.8794 24.9088 56.987 24.9656 57.1071C25.0224 57.2271 25.0547 57.3574 25.0606 57.4901C25.0665 57.6228 25.0459 57.7553 25 57.88C24.9275 58.0679 24.7999 58.2296 24.634 58.3438C24.468 58.458 24.2715 58.5194 24.07 58.52C23.9365 58.5253 23.8034 58.5014 23.68 58.45H23.67Z" fill="#2B8DFE"/>
    <path d="M43.59 56.71C43.4593 56.7084 43.3302 56.6813 43.21 56.63C43.0888 56.5794 42.9772 56.5084 42.88 56.42C42.7413 56.2794 42.6473 56.1008 42.6099 55.9068C42.5725 55.7128 42.5934 55.5121 42.67 55.33C42.7207 55.2088 42.7917 55.0972 42.88 55C42.973 54.9063 43.0836 54.8319 43.2054 54.7811C43.3273 54.7304 43.458 54.7042 43.59 54.7042C43.722 54.7042 43.8527 54.7304 43.9746 54.7811C44.0964 54.8319 44.2071 54.9063 44.3 55C44.3883 55.0972 44.4594 55.2088 44.51 55.33C44.5866 55.5121 44.6075 55.7128 44.5701 55.9068C44.5328 56.1008 44.4388 56.2794 44.3 56.42C44.2028 56.5084 44.0912 56.5794 43.97 56.63C43.8498 56.6813 43.7207 56.7084 43.59 56.71Z" fill="#2B8DFE"/>
    <path d="M32 18C31.0111 18 30.0444 17.7068 29.2222 17.1574C28.3999 16.6079 27.759 15.8271 27.3806 14.9134C27.0022 13.9998 26.9031 12.9945 27.0961 12.0246C27.289 11.0546 27.7652 10.1637 28.4645 9.46447C29.1637 8.76521 30.0546 8.289 31.0246 8.09608C31.9945 7.90315 32.9998 8.00217 33.9134 8.3806C34.8271 8.75904 35.6079 9.39991 36.1574 10.2222C36.7068 11.0444 37 12.0111 37 13C37 14.3261 36.4732 15.5979 35.5355 16.5355C34.5979 17.4732 33.3261 18 32 18ZM32 10C31.4067 10 30.8266 10.1759 30.3333 10.5056C29.8399 10.8352 29.4554 11.3038 29.2284 11.852C29.0013 12.4001 28.9419 13.0033 29.0576 13.5853C29.1734 14.1672 29.4591 14.7018 29.8787 15.1213C30.2982 15.5409 30.8328 15.8266 31.4147 15.9424C31.9967 16.0581 32.5999 15.9987 33.1481 15.7716C33.6962 15.5446 34.1648 15.1601 34.4944 14.6667C34.8241 14.1734 35 13.5933 35 13C35 12.2044 34.6839 11.4413 34.1213 10.8787C33.5587 10.3161 32.7957 10 32 10Z" fill="#2B8DFE"/>
    <path d="M32 26C29.2263 26.0081 26.5542 24.9564 24.53 23.06C24.3945 22.9361 24.2957 22.7772 24.2446 22.6008C24.1934 22.4244 24.1918 22.2373 24.24 22.06C24.6735 20.3302 25.6726 18.7949 27.0786 17.6978C28.4845 16.6007 30.2167 16.0049 32 16.0049C33.7833 16.0049 35.5155 16.6007 36.9215 17.6978C38.3274 18.7949 39.3265 20.3302 39.76 22.06C39.8082 22.2373 39.8066 22.4244 39.7554 22.6008C39.7043 22.7772 39.6055 22.9361 39.47 23.06C37.4458 24.9564 34.7737 26.0081 32 26ZM26.35 22C27.9503 23.2907 29.9442 23.9945 32 23.9945C34.0559 23.9945 36.0497 23.2907 37.65 22C37.2336 20.8349 36.4672 19.8271 35.4557 19.1144C34.4443 18.4018 33.2373 18.0193 32 18.0193C30.7627 18.0193 29.5557 18.4018 28.5443 19.1144C27.5328 19.8271 26.7664 20.8349 26.35 22Z" fill="#2B8DFE"/>
    <path d="M51 52C50.0111 52 49.0444 51.7068 48.2222 51.1574C47.3999 50.6079 46.759 49.8271 46.3806 48.9134C46.0022 47.9998 45.9031 46.9945 46.0961 46.0245C46.289 45.0546 46.7652 44.1637 47.4645 43.4645C48.1637 42.7652 49.0546 42.289 50.0245 42.0961C50.9945 41.9031 51.9998 42.0022 52.9134 42.3806C53.8271 42.759 54.6079 43.3999 55.1574 44.2222C55.7068 45.0444 56 46.0111 56 47C56 48.3261 55.4732 49.5979 54.5355 50.5355C53.5979 51.4732 52.3261 52 51 52ZM51 44C50.4067 44 49.8266 44.176 49.3333 44.5056C48.8399 44.8352 48.4554 45.3038 48.2284 45.852C48.0013 46.4001 47.9419 47.0033 48.0576 47.5853C48.1734 48.1672 48.4591 48.7018 48.8787 49.1213C49.2982 49.5409 49.8328 49.8266 50.4147 49.9424C50.9967 50.0581 51.5999 49.9987 52.1481 49.7716C52.6962 49.5446 53.1648 49.1601 53.4944 48.6667C53.8241 48.1734 54 47.5933 54 47C54 46.2044 53.6839 45.4413 53.1213 44.8787C52.5587 44.3161 51.7957 44 51 44Z" fill="#2B8DFE"/>
    <path d="M51 60C48.2263 60.0081 45.5542 58.9564 43.53 57.06C43.3945 56.9361 43.2957 56.7772 43.2446 56.6008C43.1934 56.4244 43.1918 56.2373 43.24 56.06C43.6735 54.3302 44.6726 52.7949 46.0786 51.6978C47.4845 50.6007 49.2167 50.0049 51 50.0049C52.7833 50.0049 54.5155 50.6007 55.9214 51.6978C57.3274 52.7949 58.3265 54.3302 58.76 56.06C58.8082 56.2373 58.8066 56.4244 58.7554 56.6008C58.7043 56.7772 58.6055 56.9361 58.47 57.06C56.4458 58.9564 53.7737 60.0081 51 60ZM45.35 56C46.9503 57.2907 48.9441 57.9945 51 57.9945C53.0559 57.9945 55.0497 57.2907 56.65 56C56.2336 54.8349 55.4672 53.8271 54.4557 53.1144C53.4443 52.4018 52.2373 52.0193 51 52.0193C49.7627 52.0193 48.5557 52.4018 47.5443 53.1144C46.5328 53.8271 45.7664 54.8349 45.35 56Z" fill="#2B8DFE"/>
    <path d="M13 52C12.0111 52 11.0444 51.7068 10.2222 51.1574C9.39991 50.6079 8.75904 49.8271 8.3806 48.9134C8.00217 47.9998 7.90315 46.9945 8.09608 46.0245C8.289 45.0546 8.76521 44.1637 9.46447 43.4645C10.1637 42.7652 11.0546 42.289 12.0246 42.0961C12.9945 41.9031 13.9998 42.0022 14.9134 42.3806C15.8271 42.759 16.6079 43.3999 17.1574 44.2222C17.7068 45.0444 18 46.0111 18 47C18 48.3261 17.4732 49.5979 16.5355 50.5355C15.5979 51.4732 14.3261 52 13 52ZM13 44C12.4067 44 11.8266 44.176 11.3333 44.5056C10.8399 44.8352 10.4554 45.3038 10.2284 45.852C10.0013 46.4001 9.94189 47.0033 10.0576 47.5853C10.1734 48.1672 10.4591 48.7018 10.8787 49.1213C11.2982 49.5409 11.8328 49.8266 12.4147 49.9424C12.9967 50.0581 13.5999 49.9987 14.1481 49.7716C14.6962 49.5446 15.1648 49.1601 15.4944 48.6667C15.8241 48.1734 16 47.5933 16 47C16 46.2044 15.6839 45.4413 15.1213 44.8787C14.5587 44.3161 13.7957 44 13 44Z" fill="#2B8DFE"/>
    <path d="M13 60C10.2263 60.0081 7.55421 58.9564 5.53 57.06C5.39449 56.9361 5.29574 56.7772 5.24459 56.6008C5.19343 56.4244 5.19185 56.2373 5.24 56.06C5.67354 54.3302 6.67261 52.7949 8.07856 51.6978C9.4845 50.6007 11.2167 50.0049 13 50.0049C14.7833 50.0049 16.5155 50.6007 17.9215 51.6978C19.3274 52.7949 20.3265 54.3302 20.76 56.06C20.8082 56.2373 20.8066 56.4244 20.7554 56.6008C20.7043 56.7772 20.6055 56.9361 20.47 57.06C18.4458 58.9564 15.7737 60.0081 13 60ZM7.35 56C8.95026 57.2907 10.9442 57.9945 13 57.9945C15.0559 57.9945 17.0497 57.2907 18.65 56C18.2336 54.8349 17.4672 53.8271 16.4557 53.1144C15.4443 52.4018 14.2373 52.0193 13 52.0193C11.7627 52.0193 10.5557 52.4018 9.54426 53.1144C8.53281 53.8271 7.7664 54.8349 7.35 56Z" fill="#2B8DFE"/>
</svg>
