<svg width="64" height="64" viewBox="0 0 64 64" fill="none" xmlns="http://www.w3.org/2000/svg">
    <path d="M32 29C30.8133 29 29.6533 28.6481 28.6666 27.9888C27.6799 27.3295 26.9109 26.3925 26.4567 25.2961C26.0026 24.1997 25.8838 22.9933 26.1153 21.8295C26.3468 20.6656 26.9182 19.5965 27.7574 18.7574C28.5965 17.9182 29.6656 17.3468 30.8295 17.1153C31.9933 16.8838 33.1997 17.0026 34.2961 17.4567C35.3925 17.9109 36.3295 18.6799 36.9888 19.6666C37.6481 20.6533 38 21.8133 38 23C38 24.5913 37.3679 26.1174 36.2426 27.2426C35.1174 28.3679 33.5913 29 32 29ZM32 19C31.2089 19 30.4355 19.2346 29.7777 19.6741C29.1199 20.1137 28.6072 20.7384 28.3045 21.4693C28.0017 22.2002 27.9225 23.0044 28.0769 23.7804C28.2312 24.5563 28.6122 25.269 29.1716 25.8284C29.731 26.3878 30.4437 26.7688 31.2196 26.9231C31.9956 27.0775 32.7998 26.9983 33.5307 26.6955C34.2616 26.3928 34.8864 25.8801 35.3259 25.2223C35.7654 24.5645 36 23.7911 36 23C36 21.9391 35.5786 20.9217 34.8284 20.1716C34.0783 19.4214 33.0609 19 32 19Z" fill="#2B8DFE"/>
    <path d="M32 13C30.446 13.0087 28.9119 12.651 27.522 11.9561C26.1321 11.2611 24.9255 10.2484 24 9.00004C23.8771 8.82972 23.811 8.62504 23.811 8.41504C23.811 8.20503 23.8771 8.00036 24 7.83004C25.9532 5.03602 28.5272 2.73247 31.52 1.10004C31.672 1.01227 31.8445 0.966064 32.02 0.966064C32.1955 0.966064 32.368 1.01227 32.52 1.10004C35.5004 2.7432 38.0605 5.0534 40 7.85004C40.1183 8.01843 40.1818 8.21923 40.1818 8.42504C40.1818 8.63085 40.1183 8.83165 40 9.00004C39.0745 10.2484 37.8679 11.2611 36.478 11.9561C35.0881 12.651 33.554 13.0087 32 13ZM26.08 8.38004C26.8298 9.20499 27.7438 9.86411 28.7632 10.3152C29.7827 10.7662 30.8852 10.9992 32 10.9992C33.1148 10.9992 34.2173 10.7662 35.2368 10.3152C36.2562 9.86411 37.1702 9.20499 37.92 8.38004C36.314 6.26047 34.3014 4.48246 32 3.15004C29.6986 4.48246 27.686 6.26047 26.08 8.38004Z" fill="#2B8DFE"/>
    <path d="M39 44.0001H35C34.7348 44.0001 34.4804 43.8947 34.2929 43.7072C34.1054 43.5196 34 43.2653 34 43.0001V35.0001C34 34.4696 33.7893 33.9609 33.4142 33.5858C33.0391 33.2108 32.5304 33.0001 32 33.0001C31.4696 33.0001 30.9609 33.2108 30.5858 33.5858C30.2107 33.9609 30 34.4696 30 35.0001V43.0001C30 43.2653 29.8946 43.5196 29.7071 43.7072C29.5196 43.8947 29.2652 44.0001 29 44.0001H24.77C24.4311 43.9833 24.0954 43.9263 23.77 43.8301C22.6949 43.5572 21.741 42.9346 21.0585 42.0602C20.376 41.1858 20.0036 40.1093 20 39.0001V20.5301C20.0019 16.5587 21.0725 12.6611 23.0994 9.24597C25.1263 5.83084 28.0349 3.02407 31.52 1.12006C31.672 1.03229 31.8445 0.986084 32.02 0.986084C32.1955 0.986084 32.368 1.03229 32.52 1.12006C35.4983 2.75751 38.0581 5.0607 40 7.85006C40.31 8.30006 40.62 8.77006 40.9 9.25006C42.9287 12.663 43.9996 16.5597 44 20.5301V39.0001C43.9969 40.1079 43.626 41.1834 42.9455 42.0577C42.2649 42.9319 41.3133 43.5553 40.24 43.8301C39.914 43.9221 39.5784 43.9757 39.24 43.9901L39 44.0001ZM36 42.0001H39.1C39.8782 41.9741 40.6158 41.6466 41.157 41.0868C41.6981 40.527 42.0004 39.7787 42 39.0001V20.5301C42.0012 16.9185 41.0269 13.3737 39.18 10.2701C38.92 9.83006 38.65 9.40006 38.36 8.99006C36.6905 6.60352 34.5199 4.61041 32 3.15006C28.957 4.91744 26.4316 7.45312 24.6767 10.5033C22.9217 13.5534 21.9987 17.0111 22 20.5301V39.0001C22.0027 39.6613 22.2237 40.3031 22.6288 40.8258C23.0339 41.3484 23.6003 41.7225 24.24 41.8901C24.4555 41.9484 24.6769 41.982 24.9 41.9901H28V35.0001C28 33.9392 28.4214 32.9218 29.1716 32.1716C29.9217 31.4215 30.9391 31.0001 32 31.0001C33.0609 31.0001 34.0783 31.4215 34.8284 32.1716C35.5786 32.9218 36 33.9392 36 35.0001V42.0001Z" fill="#2B8DFE"/>
    <path d="M32 48C31.0866 48.0003 30.2005 47.688 29.4892 47.1149C28.7779 46.5418 28.2841 45.7426 28.09 44.85C28.0266 44.5712 27.9964 44.2859 28 44V35C28 33.9391 28.4214 32.9217 29.1716 32.1716C29.9217 31.4214 30.9391 31 32 31C33.0609 31 34.0783 31.4214 34.8284 32.1716C35.5786 32.9217 36 33.9391 36 35V44C36.0036 44.2964 35.9701 44.592 35.9 44.88C35.7003 45.7654 35.2055 46.5565 34.4968 47.1235C33.7881 47.6904 32.9076 47.9995 32 48ZM32 33C31.4696 33 30.9609 33.2107 30.5858 33.5858C30.2107 33.9609 30 34.4696 30 35V44C29.9826 44.1328 29.9826 44.2672 30 44.4C30.0964 44.8469 30.3431 45.2472 30.6988 45.5344C31.0545 45.8215 31.4979 45.9781 31.955 45.9781C32.4122 45.9781 32.8555 45.8215 33.2112 45.5344C33.567 45.2472 33.8136 44.8469 33.91 44.4C33.9583 44.2715 33.9886 44.1368 34 44V35C34 34.4696 33.7893 33.9609 33.4142 33.5858C33.0392 33.2107 32.5304 33 32 33Z" fill="#2B8DFE"/>
    <path d="M20 48H14C13.7348 48 13.4804 47.8946 13.2929 47.7071C13.1054 47.5196 13 47.2652 13 47V39C13 36.8783 13.8429 34.8434 15.3431 33.3431C16.8434 31.8429 18.8783 31 21 31C21.2652 31 21.5196 31.1054 21.7071 31.2929C21.8946 31.4804 22 31.7348 22 32V39C22.0027 39.6612 22.2237 40.3031 22.6288 40.8257C23.0339 41.3483 23.6003 41.7225 24.24 41.89C24.4619 41.9447 24.6583 42.0738 24.7966 42.2558C24.9349 42.4377 25.0067 42.6616 25 42.89V43C25 43.6566 24.8707 44.3068 24.6194 44.9134C24.3681 45.52 23.9998 46.0712 23.5355 46.5355C23.0712 46.9998 22.52 47.3681 21.9134 47.6194C21.3068 47.8707 20.6566 48 20 48ZM15 46H20C20.7089 46.012 21.3992 45.7725 21.9484 45.324C22.4975 44.8755 22.8701 44.247 23 43.55C22.1134 43.1631 21.3581 42.5273 20.8256 41.7197C20.2931 40.9121 20.0063 39.9673 20 39V33.08C18.6012 33.3164 17.3315 34.0408 16.4162 35.1246C15.5008 36.2084 14.9991 37.5814 15 39V46Z" fill="#2B8DFE"/>
    <path d="M50 48H44C43.3434 48 42.6932 47.8707 42.0866 47.6194C41.48 47.3681 40.9288 46.9998 40.4645 46.5355C40.0002 46.0712 39.6319 45.52 39.3806 44.9134C39.1293 44.3068 39 43.6566 39 43V42.86C38.9933 42.6316 39.0651 42.4077 39.2034 42.2258C39.3417 42.0438 39.5381 41.9148 39.76 41.86C40.3948 41.6938 40.9575 41.3242 41.3621 40.8076C41.7667 40.291 41.9908 39.6561 42 39V32C42 31.7348 42.1054 31.4804 42.2929 31.2929C42.4804 31.1054 42.7348 31 43 31C45.1217 31 47.1566 31.8429 48.6568 33.3431C50.1571 34.8434 51 36.8783 51 39V47C51 47.2652 50.8946 47.5196 50.7071 47.7071C50.5196 47.8946 50.2652 48 50 48ZM41 43.55C41.1299 44.247 41.5025 44.8755 42.0516 45.324C42.6008 45.7725 43.2911 46.012 44 46H49V39C49.0009 37.5814 48.4992 36.2084 47.5838 35.1246C46.6685 34.0408 45.3988 33.3164 44 33.08V39C43.998 39.9618 43.7186 40.9026 43.1954 41.7096C42.6721 42.5167 41.9272 43.1557 41.05 43.55H41Z" fill="#2B8DFE"/>
    <path d="M32 63.0001C31.8807 63.0011 31.7622 62.9808 31.65 62.9401C29.1142 61.9803 26.9295 60.2732 25.3849 58.0448C23.8403 55.8163 23.0087 53.1715 23 50.4601C22.9905 48.6999 23.5335 46.9812 24.5525 45.546C25.5715 44.1108 27.0151 43.0314 28.68 42.4601C28.8304 42.4105 28.9904 42.3973 29.1469 42.4217C29.3033 42.446 29.4518 42.5072 29.58 42.6001C29.7092 42.6921 29.8147 42.8136 29.8878 42.9544C29.9608 43.0952 29.9993 43.2514 30 43.4101V44.0001C29.9826 44.1329 29.9826 44.2673 30 44.4001C30.0325 44.5343 30.0368 44.6738 30.0127 44.8097C29.9886 44.9457 29.9366 45.0752 29.86 45.1901C29.2462 46.1795 28.9335 47.3261 28.96 48.4901C28.96 51.6401 30.15 54.4901 31.96 55.8201C32.8267 55.1398 33.5134 54.2574 33.96 53.2501C34.631 51.7535 34.972 50.1301 34.96 48.4901C34.9865 47.3261 34.6738 46.1795 34.06 45.1901C33.9967 45.0694 33.9587 44.9371 33.9484 44.8013C33.9381 44.6654 33.9557 44.5289 34 44.4001C34.0174 44.2673 34.0174 44.1329 34 44.0001V43.4301C34.0007 43.2714 34.0392 43.1152 34.1122 42.9744C34.1853 42.8336 34.2908 42.7121 34.42 42.6201C34.5494 42.5256 34.6996 42.4635 34.8579 42.4391C35.0163 42.4148 35.1782 42.4288 35.33 42.4801C36.9905 43.057 38.4295 44.138 39.4459 45.5722C40.4624 47.0064 41.0057 48.7222 41 50.4801C40.9955 53.1925 40.1655 55.8392 38.6204 58.0685C37.0753 60.2977 34.8882 62.0039 32.35 62.9601C32.2366 62.994 32.1181 63.0076 32 63.0001ZM27.61 45.2701C27.3553 45.4629 27.1115 45.6699 26.88 45.8901C25.6761 47.1065 25.0006 48.7487 25 50.4601C25.0079 52.7002 25.6762 54.8883 26.9212 56.7506C28.1663 58.6129 29.9329 60.0667 32 60.9301C34.0702 60.0711 35.8397 58.6184 37.0855 56.7551C38.3312 54.8918 38.9974 52.7014 39 50.4601C39.0012 49.4526 38.7656 48.4588 38.3123 47.5591C37.8589 46.6593 37.2005 45.8787 36.39 45.2801C36.8 46.3003 37.0072 47.3906 37 48.4901C37.0158 50.4211 36.6097 52.3323 35.81 54.0901C35.13 55.6746 33.9638 57.0018 32.48 57.8801C32.328 57.9679 32.1555 58.0141 31.98 58.0141C31.8045 58.0141 31.632 57.9679 31.48 57.8801C28.77 56.3601 27 52.6801 27 48.4901C26.9928 47.3874 27.2 46.2938 27.61 45.2701Z" fill="#2B8DFE"/>
    <path d="M32 58C31.8325 58.0009 31.6674 57.9596 31.52 57.88C28.77 56.36 27 52.68 27 48.49C26.9746 46.9306 27.4056 45.3977 28.24 44.08C28.3486 43.9212 28.5007 43.7972 28.6781 43.7227C28.8555 43.6482 29.0506 43.6264 29.24 43.66C29.4327 43.6967 29.6103 43.7893 29.7508 43.9262C29.8912 44.0631 29.9883 44.2383 30.03 44.43C30.1307 44.8719 30.3785 45.2665 30.7328 45.5491C31.087 45.8317 31.5268 45.9856 31.98 45.9856C32.4332 45.9856 32.8729 45.8317 33.2272 45.5491C33.5815 45.2665 33.8293 44.8719 33.93 44.43C33.9716 44.2383 34.0687 44.0631 34.2092 43.9262C34.3497 43.7893 34.5273 43.6967 34.72 43.66C34.9094 43.6264 35.1045 43.6482 35.2819 43.7227C35.4592 43.7972 35.6114 43.9212 35.72 44.08C36.5684 45.3934 37.0134 46.9265 37 48.49C37.0158 50.4211 36.6097 52.3323 35.81 54.09C35.13 55.6745 33.9638 57.0018 32.48 57.88C32.3326 57.9596 32.1675 58.0009 32 58ZM29.2 46.85C29.0659 47.3863 28.9987 47.9372 29 48.49C29 51.64 30.19 54.49 32 55.82C32.8667 55.1397 33.5534 54.2573 34 53.25C34.671 51.7535 35.012 50.1301 35 48.49C35.0012 47.9372 34.9341 47.3863 34.8 46.85C34.0523 47.5829 33.047 47.9935 32 47.9935C30.953 47.9935 29.9477 47.5829 29.2 46.85Z" fill="#2B8DFE"/>
    <path d="M10 35C9.73478 35 9.48043 34.8946 9.29289 34.7071C9.10536 34.5196 9 34.2652 9 34C9 33.7348 8.89464 33.4804 8.70711 33.2929C8.51957 33.1054 8.26522 33 8 33C7.73478 33 7.48043 32.8946 7.29289 32.7071C7.10536 32.5196 7 32.2652 7 32C7 31.7348 7.10536 31.4804 7.29289 31.2929C7.48043 31.1054 7.73478 31 8 31C8.26522 31 8.51957 30.8946 8.70711 30.7071C8.89464 30.5196 9 30.2652 9 30C9 29.7348 9.10536 29.4804 9.29289 29.2929C9.48043 29.1054 9.73478 29 10 29C10.2652 29 10.5196 29.1054 10.7071 29.2929C10.8946 29.4804 11 29.7348 11 30C11 30.2652 11.1054 30.5196 11.2929 30.7071C11.4804 30.8946 11.7348 31 12 31C12.2652 31 12.5196 31.1054 12.7071 31.2929C12.8946 31.4804 13 31.7348 13 32C13 32.2652 12.8946 32.5196 12.7071 32.7071C12.5196 32.8946 12.2652 33 12 33C11.7348 33 11.4804 33.1054 11.2929 33.2929C11.1054 33.4804 11 33.7348 11 34C11 34.2652 10.8946 34.5196 10.7071 34.7071C10.5196 34.8946 10.2652 35 10 35Z" fill="#2B8DFE"/>
    <path d="M60 30C59.7348 30 59.4804 29.8946 59.2929 29.7071C59.1054 29.5196 59 29.2652 59 29C59 28.7348 58.8946 28.4804 58.7071 28.2929C58.5196 28.1054 58.2652 28 58 28C57.7348 28 57.4804 27.8946 57.2929 27.7071C57.1054 27.5196 57 27.2652 57 27C57 26.7348 57.1054 26.4804 57.2929 26.2929C57.4804 26.1054 57.7348 26 58 26C58.2652 26 58.5196 25.8946 58.7071 25.7071C58.8946 25.5196 59 25.2652 59 25C59 24.7348 59.1054 24.4804 59.2929 24.2929C59.4804 24.1054 59.7348 24 60 24C60.2652 24 60.5196 24.1054 60.7071 24.2929C60.8946 24.4804 61 24.7348 61 25C61 25.2652 61.1054 25.5196 61.2929 25.7071C61.4804 25.8946 61.7348 26 62 26C62.2652 26 62.5196 26.1054 62.7071 26.2929C62.8946 26.4804 63 26.7348 63 27C63 27.2652 62.8946 27.5196 62.7071 27.7071C62.5196 27.8946 62.2652 28 62 28C61.7348 28 61.4804 28.1054 61.2929 28.2929C61.1054 28.4804 61 28.7348 61 29C61 29.2652 60.8946 29.5196 60.7071 29.7071C60.5196 29.8946 60.2652 30 60 30Z" fill="#2B8DFE"/>
    <path d="M56 50C55.7348 50 55.4804 49.8946 55.2929 49.7071C55.1054 49.5196 55 49.2652 55 49C55 48.7348 54.8946 48.4804 54.7071 48.2929C54.5196 48.1054 54.2652 48 54 48C53.7348 48 53.4804 47.8946 53.2929 47.7071C53.1054 47.5196 53 47.2652 53 47C53 46.7348 53.1054 46.4804 53.2929 46.2929C53.4804 46.1054 53.7348 46 54 46C54.2652 46 54.5196 45.8946 54.7071 45.7071C54.8946 45.5196 55 45.2652 55 45C55 44.7348 55.1054 44.4804 55.2929 44.2929C55.4804 44.1054 55.7348 44 56 44C56.2652 44 56.5196 44.1054 56.7071 44.2929C56.8946 44.4804 57 44.7348 57 45C57 45.2652 57.1054 45.5196 57.2929 45.7071C57.4804 45.8946 57.7348 46 58 46C58.2652 46 58.5196 46.1054 58.7071 46.2929C58.8946 46.4804 59 46.7348 59 47C59 47.2652 58.8946 47.5196 58.7071 47.7071C58.5196 47.8946 58.2652 48 58 48C57.7348 48 57.4804 48.1054 57.2929 48.2929C57.1054 48.4804 57 48.7348 57 49C57 49.2652 56.8946 49.5196 56.7071 49.7071C56.5196 49.8946 56.2652 50 56 50Z" fill="#2B8DFE"/>
    <path d="M14 56C13.7348 56 13.4804 55.8946 13.2929 55.7071C13.1054 55.5196 13 55.2652 13 55C13 54.7348 12.8946 54.4804 12.7071 54.2929C12.5196 54.1054 12.2652 54 12 54C11.7348 54 11.4804 53.8946 11.2929 53.7071C11.1054 53.5196 11 53.2652 11 53C11 52.7348 11.1054 52.4804 11.2929 52.2929C11.4804 52.1054 11.7348 52 12 52C12.2652 52 12.5196 51.8946 12.7071 51.7071C12.8946 51.5196 13 51.2652 13 51C13 50.7348 13.1054 50.4804 13.2929 50.2929C13.4804 50.1054 13.7348 50 14 50C14.2652 50 14.5196 50.1054 14.7071 50.2929C14.8946 50.4804 15 50.7348 15 51C15 51.2652 15.1054 51.5196 15.2929 51.7071C15.4804 51.8946 15.7348 52 16 52C16.2652 52 16.5196 52.1054 16.7071 52.2929C16.8946 52.4804 17 52.7348 17 53C17 53.2652 16.8946 53.5196 16.7071 53.7071C16.5196 53.8946 16.2652 54 16 54C15.7348 54 15.4804 54.1054 15.2929 54.2929C15.1054 54.4804 15 54.7348 15 55C15 55.2652 14.8946 55.5196 14.7071 55.7071C14.5196 55.8946 14.2652 56 14 56Z" fill="#2B8DFE"/>
    <path d="M46 11C45.7348 11 45.4804 10.8946 45.2929 10.7071C45.1054 10.5196 45 10.2652 45 10C45 9.73478 44.8946 9.48043 44.7071 9.29289C44.5196 9.10536 44.2652 9 44 9C43.7348 9 43.4804 8.89464 43.2929 8.70711C43.1054 8.51957 43 8.26522 43 8C43 7.73478 43.1054 7.48043 43.2929 7.29289C43.4804 7.10536 43.7348 7 44 7C44.2652 7 44.5196 6.89464 44.7071 6.70711C44.8946 6.51957 45 6.26522 45 6C45 5.73478 45.1054 5.48043 45.2929 5.29289C45.4804 5.10536 45.7348 5 46 5C46.2652 5 46.5196 5.10536 46.7071 5.29289C46.8946 5.48043 47 5.73478 47 6C47 6.26522 47.1054 6.51957 47.2929 6.70711C47.4804 6.89464 47.7348 7 48 7C48.2652 7 48.5196 7.10536 48.7071 7.29289C48.8946 7.48043 49 7.73478 49 8C49 8.26522 48.8946 8.51957 48.7071 8.70711C48.5196 8.89464 48.2652 9 48 9C47.7348 9 47.4804 9.10536 47.2929 9.29289C47.1054 9.48043 47 9.73478 47 10C47 10.2652 46.8946 10.5196 46.7071 10.7071C46.5196 10.8946 46.2652 11 46 11Z" fill="#2B8DFE"/>
    <path d="M10 17C9.73478 17 9.48043 16.8946 9.29289 16.7071C9.10536 16.5196 9 16.2652 9 16C9 15.7348 8.89464 15.4804 8.70711 15.2929C8.51957 15.1054 8.26522 15 8 15C7.73478 15 7.48043 14.8946 7.29289 14.7071C7.10536 14.5196 7 14.2652 7 14C7 13.7348 7.10536 13.4804 7.29289 13.2929C7.48043 13.1054 7.73478 13 8 13C8.26522 13 8.51957 12.8946 8.70711 12.7071C8.89464 12.5196 9 12.2652 9 12C9 11.7348 9.10536 11.4804 9.29289 11.2929C9.48043 11.1054 9.73478 11 10 11C10.2652 11 10.5196 11.1054 10.7071 11.2929C10.8946 11.4804 11 11.7348 11 12C11 12.2652 11.1054 12.5196 11.2929 12.7071C11.4804 12.8946 11.7348 13 12 13C12.2652 13 12.5196 13.1054 12.7071 13.2929C12.8946 13.4804 13 13.7348 13 14C13 14.2652 12.8946 14.5196 12.7071 14.7071C12.5196 14.8946 12.2652 15 12 15C11.7348 15 11.4804 15.1054 11.2929 15.2929C11.1054 15.4804 11 15.7348 11 16C11 16.2652 10.8946 16.5196 10.7071 16.7071C10.5196 16.8946 10.2652 17 10 17Z" fill="#2B8DFE"/>
    <path d="M56 16C56.5523 16 57 15.5523 57 15C57 14.4477 56.5523 14 56 14C55.4477 14 55 14.4477 55 15C55 15.5523 55.4477 16 56 16Z" fill="#2B8DFE"/>
    <path d="M61 38C61.5523 38 62 37.5523 62 37C62 36.4477 61.5523 36 61 36C60.4477 36 60 36.4477 60 37C60 37.5523 60.4477 38 61 38Z" fill="#2B8DFE"/>
    <path d="M50 25C50.5523 25 51 24.5523 51 24C51 23.4477 50.5523 23 50 23C49.4477 23 49 23.4477 49 24C49 24.5523 49.4477 25 50 25Z" fill="#2B8DFE"/>
    <path d="M17 23C17.5523 23 18 22.5523 18 22C18 21.4477 17.5523 21 17 21C16.4477 21 16 21.4477 16 22C16 22.5523 16.4477 23 17 23Z" fill="#2B8DFE"/>
    <path d="M10 48C10.5523 48 11 47.5523 11 47C11 46.4477 10.5523 46 10 46C9.44772 46 9 46.4477 9 47C9 47.5523 9.44772 48 10 48Z" fill="#2B8DFE"/>
    <path d="M45 59C45.5523 59 46 58.5523 46 58C46 57.4477 45.5523 57 45 57C44.4477 57 44 57.4477 44 58C44 58.5523 44.4477 59 45 59Z" fill="#2B8DFE"/>
    <path d="M3 33C3.55228 33 4 32.5523 4 32C4 31.4477 3.55228 31 3 31C2.44772 31 2 31.4477 2 32C2 32.5523 2.44772 33 3 33Z" fill="#2B8DFE"/>
    <path d="M20 8C20.5523 8 21 7.55228 21 7C21 6.44772 20.5523 6 20 6C19.4477 6 19 6.44772 19 7C19 7.55228 19.4477 8 20 8Z" fill="#2B8DFE"/>
</svg>
