<svg width="160" height="160" viewBox="0 0 160 160" fill="none" xmlns="http://www.w3.org/2000/svg">
    <path d="M107.5 150H12.5C11.837 150 11.2011 149.737 10.7322 149.268C10.2634 148.799 10 148.163 10 147.5V107.5C10 106.837 10.2634 106.201 10.7322 105.732C11.2011 105.263 11.837 105 12.5 105H47.5C48.163 105 48.7989 105.263 49.2678 105.732C49.7366 106.201 50 106.837 50 107.5C50 110.152 51.0536 112.696 52.9289 114.571C54.8043 116.446 57.3478 117.5 60 117.5C62.6522 117.5 65.1957 116.446 67.0711 114.571C68.9464 112.696 70 110.152 70 107.5C70 106.837 70.2634 106.201 70.7322 105.732C71.2011 105.263 71.837 105 72.5 105H107.5C108.163 105 108.799 105.263 109.268 105.732C109.737 106.201 110 106.837 110 107.5V147.5C110 148.163 109.737 148.799 109.268 149.268C108.799 149.737 108.163 150 107.5 150ZM15 145H105V110H74.8C74.2214 113.508 72.4158 116.696 69.7052 118.996C66.9945 121.296 63.555 122.559 60 122.559C56.445 122.559 53.0055 121.296 50.2948 118.996C47.5842 116.696 45.7786 113.508 45.2 110H15V145Z" fill="#2B8DFE"/>
    <path d="M147.5 150H107.5C106.837 150 106.201 149.737 105.732 149.268C105.263 148.799 105 148.163 105 147.5V107.5C105 106.837 105.263 106.201 105.732 105.732C106.201 105.263 106.837 105 107.5 105H147.5C148.163 105 148.799 105.263 149.268 105.732C149.737 106.201 150 106.837 150 107.5V147.5C150 148.163 149.737 148.799 149.268 149.268C148.799 149.737 148.163 150 147.5 150ZM110 145H145V110H110V145Z" fill="#2B8DFE"/>
    <path d="M60 122.5C56.4535 122.502 53.0209 121.248 50.3115 118.96C47.6021 116.671 45.7911 113.497 45.2 110H20C19.337 110 18.7011 109.737 18.2322 109.268C17.7634 108.799 17.5 108.163 17.5 107.5V25C17.5 21.0218 19.0804 17.2064 21.8934 14.3934C24.7064 11.5804 28.5218 10 32.5 10H112.5C113.163 10 113.799 10.2634 114.268 10.7322C114.737 11.2011 115 11.837 115 12.5C115 13.163 114.737 13.7989 114.268 14.2678C113.799 14.7366 113.163 15 112.5 15C109.848 15 107.304 16.0536 105.429 17.9289C103.554 19.8043 102.5 22.3478 102.5 25V107.5C102.5 108.163 102.237 108.799 101.768 109.268C101.299 109.737 100.663 110 100 110H74.8C74.2089 113.497 72.3979 116.671 69.6885 118.96C66.9791 121.248 63.5465 122.502 60 122.5ZM22.5 105H47.5C48.163 105 48.7989 105.263 49.2678 105.732C49.7366 106.201 50 106.837 50 107.5C50 110.152 51.0536 112.696 52.9289 114.571C54.8043 116.446 57.3478 117.5 60 117.5C62.6522 117.5 65.1957 116.446 67.0711 114.571C68.9464 112.696 70 110.152 70 107.5C70 106.837 70.2634 106.201 70.7322 105.732C71.2011 105.263 71.837 105 72.5 105H97.5V25C97.5015 21.3096 98.8633 17.7493 101.325 15H32.5C29.8478 15 27.3043 16.0536 25.4289 17.9289C23.5536 19.8043 22.5 22.3478 22.5 25V105Z" fill="#2B8DFE"/>
    <path d="M125 35H100C99.337 35 98.7011 34.7366 98.2322 34.2678C97.7634 33.7989 97.5 33.163 97.5 32.5V25C97.5 21.0218 99.0804 17.2064 101.893 14.3934C104.706 11.5804 108.522 10 112.5 10C116.478 10 120.294 11.5804 123.107 14.3934C125.92 17.2064 127.5 21.0218 127.5 25V32.5C127.5 33.163 127.237 33.7989 126.768 34.2678C126.299 34.7366 125.663 35 125 35ZM102.5 30H122.5V25C122.5 22.3478 121.446 19.8043 119.571 17.9289C117.696 16.0536 115.152 15 112.5 15C109.848 15 107.304 16.0536 105.429 17.9289C103.554 19.8043 102.5 22.3478 102.5 25V30Z" fill="#2B8DFE"/>
    <path d="M112.5 110H100C99.337 110 98.7011 109.737 98.2322 109.268C97.7634 108.799 97.5 108.163 97.5 107.5V42.5C97.5 41.837 97.7634 41.2011 98.2322 40.7322C98.7011 40.2634 99.337 40 100 40H112.5C113.163 40 113.799 40.2634 114.268 40.7322C114.737 41.2011 115 41.837 115 42.5V107.5C115 108.163 114.737 108.799 114.268 109.268C113.799 109.737 113.163 110 112.5 110ZM102.5 105H110V45H102.5V105Z" fill="#2B8DFE"/>
    <path d="M125 110H112.5C111.837 110 111.201 109.737 110.732 109.268C110.263 108.799 110 108.163 110 107.5V47.5C110 46.837 110.263 46.2011 110.732 45.7322C111.201 45.2634 111.837 45 112.5 45H125C125.663 45 126.299 45.2634 126.768 45.7322C127.237 46.2011 127.5 46.837 127.5 47.5V107.5C127.5 108.163 127.237 108.799 126.768 109.268C126.299 109.737 125.663 110 125 110ZM115 105H122.5V50H115V105Z" fill="#2B8DFE"/>
    <path d="M137.5 110H125C124.337 110 123.701 109.737 123.232 109.268C122.763 108.799 122.5 108.163 122.5 107.5V52.5C122.5 51.837 122.763 51.2011 123.232 50.7322C123.701 50.2634 124.337 50 125 50H137.5C138.163 50 138.799 50.2634 139.268 50.7322C139.737 51.2011 140 51.837 140 52.5V107.5C140 108.163 139.737 108.799 139.268 109.268C138.799 109.737 138.163 110 137.5 110ZM127.5 105H135V55H127.5V105Z" fill="#2B8DFE"/>
    <path d="M87.5 45H32.5C31.837 45 31.2011 44.7366 30.7322 44.2678C30.2634 43.7989 30 43.163 30 42.5V27.5C30 26.837 30.2634 26.2011 30.7322 25.7322C31.2011 25.2634 31.837 25 32.5 25H87.5C88.163 25 88.7989 25.2634 89.2678 25.7322C89.7366 26.2011 90 26.837 90 27.5V42.5C90 43.163 89.7366 43.7989 89.2678 44.2678C88.7989 44.7366 88.163 45 87.5 45ZM35 40H85V30H35V40Z" fill="#2B8DFE"/>
    <path d="M57.5 57.5H32.5C31.837 57.5 31.2011 57.2366 30.7322 56.7678C30.2634 56.2989 30 55.663 30 55C30 54.337 30.2634 53.7011 30.7322 53.2322C31.2011 52.7634 31.837 52.5 32.5 52.5H57.5C58.163 52.5 58.7989 52.7634 59.2678 53.2322C59.7366 53.7011 60 54.337 60 55C60 55.663 59.7366 56.2989 59.2678 56.7678C58.7989 57.2366 58.163 57.5 57.5 57.5Z" fill="#2B8DFE"/>
    <path d="M57.5 70H32.5C31.837 70 31.2011 69.7366 30.7322 69.2678C30.2634 68.7989 30 68.163 30 67.5C30 66.837 30.2634 66.2011 30.7322 65.7322C31.2011 65.2634 31.837 65 32.5 65H57.5C58.163 65 58.7989 65.2634 59.2678 65.7322C59.7366 66.2011 60 66.837 60 67.5C60 68.163 59.7366 68.7989 59.2678 69.2678C58.7989 69.7366 58.163 70 57.5 70Z" fill="#2B8DFE"/>
    <path d="M87.5 82.5H32.5C31.837 82.5 31.2011 82.2366 30.7322 81.7678C30.2634 81.2989 30 80.663 30 80C30 79.337 30.2634 78.7011 30.7322 78.2322C31.2011 77.7634 31.837 77.5 32.5 77.5H87.5C88.163 77.5 88.7989 77.7634 89.2678 78.2322C89.7366 78.7011 90 79.337 90 80C90 80.663 89.7366 81.2989 89.2678 81.7678C88.7989 82.2366 88.163 82.5 87.5 82.5Z" fill="#2B8DFE"/>
    <path d="M87.5 95H32.5C31.837 95 31.2011 94.7366 30.7322 94.2678C30.2634 93.7989 30 93.163 30 92.5C30 91.837 30.2634 91.2011 30.7322 90.7322C31.2011 90.2634 31.837 90 32.5 90H87.5C88.163 90 88.7989 90.2634 89.2678 90.7322C89.7366 91.2011 90 91.837 90 92.5C90 93.163 89.7366 93.7989 89.2678 94.2678C88.7989 94.7366 88.163 95 87.5 95Z" fill="#2B8DFE"/>
    <path d="M87.5 70H67.5C66.837 70 66.2011 69.7366 65.7322 69.2678C65.2634 68.7989 65 68.163 65 67.5V55C65 54.337 65.2634 53.7011 65.7322 53.2322C66.2011 52.7634 66.837 52.5 67.5 52.5H87.5C88.163 52.5 88.7989 52.7634 89.2678 53.2322C89.7366 53.7011 90 54.337 90 55V67.5C90 68.163 89.7366 68.7989 89.2678 69.2678C88.7989 69.7366 88.163 70 87.5 70ZM70 65H85V57.5H70V65Z" fill="#2B8DFE"/>
</svg>
