<svg width="160" height="160" viewBox="0 0 160 160" fill="none" xmlns="http://www.w3.org/2000/svg">
    <path d="M137.5 147.5H100.3C98.2902 147.502 96.2997 147.107 94.4423 146.339C92.5849 145.572 90.897 144.445 89.475 143.025C88.5227 142.065 87.3893 141.303 86.1406 140.784C84.8918 140.264 83.5524 139.998 82.2 140H55C54.337 140 53.7011 139.737 53.2322 139.268C52.7634 138.799 52.5 138.163 52.5 137.5V107.5C52.5 106.837 52.7634 106.201 53.2322 105.732C53.7011 105.263 54.337 105 55 105H78.475C80.8307 104.998 83.1494 104.414 85.225 103.3C87.3252 102.206 89.1142 100.597 90.425 98.625C92.1894 95.9714 94.5827 93.7952 97.3917 92.2904C100.201 90.7856 103.338 89.9987 106.525 90H107.5C108.163 90 108.799 90.2634 109.268 90.7322C109.737 91.2011 110 91.837 110 92.5V102.5H140C141.989 102.5 143.897 103.29 145.303 104.697C146.71 106.103 147.5 108.011 147.5 110C147.513 111.291 147.176 112.56 146.525 113.675C147.474 114.28 148.275 115.09 148.868 116.047C149.461 117.003 149.831 118.081 149.951 119.199C150.071 120.318 149.938 121.45 149.561 122.51C149.184 123.571 148.574 124.533 147.775 125.325C147.402 125.7 146.992 126.035 146.55 126.325C147.177 127.448 147.504 128.714 147.5 130C147.499 130.991 147.302 131.971 146.92 132.885C146.538 133.799 145.979 134.628 145.275 135.325C144.902 135.7 144.492 136.035 144.05 136.325C144.677 137.448 145.004 138.714 145 140C145.01 141.862 144.327 143.661 143.084 145.047C141.841 146.433 140.127 147.308 138.275 147.5C138.018 147.531 137.757 147.531 137.5 147.5ZM57.5 135H82.2C84.2098 134.998 86.2003 135.393 88.0577 136.161C89.9151 136.928 91.603 138.055 93.025 139.475C93.9773 140.435 95.1107 141.197 96.3594 141.716C97.6082 142.236 98.9476 142.502 100.3 142.5H137.5C138.147 142.491 138.766 142.231 139.225 141.775C139.466 141.546 139.658 141.27 139.791 140.966C139.924 140.661 139.995 140.333 140 140C140 139.337 139.737 138.701 139.268 138.232C138.799 137.763 138.163 137.5 137.5 137.5C136.837 137.5 136.201 137.237 135.732 136.768C135.263 136.299 135 135.663 135 135C135 134.337 135.263 133.701 135.732 133.232C136.201 132.763 136.837 132.5 137.5 132.5H140C140.322 132.505 140.642 132.444 140.939 132.319C141.236 132.194 141.503 132.009 141.725 131.775C141.966 131.546 142.158 131.27 142.291 130.966C142.424 130.661 142.495 130.333 142.5 130C142.5 129.337 142.237 128.701 141.768 128.232C141.299 127.763 140.663 127.5 140 127.5C139.337 127.5 138.701 127.237 138.232 126.768C137.763 126.299 137.5 125.663 137.5 125C137.5 124.337 137.763 123.701 138.232 123.232C138.701 122.763 139.337 122.5 140 122.5H142.5C142.822 122.505 143.142 122.444 143.439 122.319C143.736 122.194 144.003 122.009 144.225 121.775C144.466 121.546 144.658 121.27 144.791 120.966C144.924 120.661 144.995 120.333 145 120C145 119.337 144.737 118.701 144.268 118.232C143.799 117.763 143.163 117.5 142.5 117.5H140C139.337 117.5 138.701 117.237 138.232 116.768C137.763 116.299 137.5 115.663 137.5 115C137.5 114.337 137.763 113.701 138.232 113.232C138.701 112.763 139.337 112.5 140 112.5C140.322 112.505 140.642 112.444 140.939 112.319C141.236 112.194 141.503 112.009 141.725 111.775C141.966 111.546 142.158 111.27 142.291 110.966C142.424 110.661 142.495 110.333 142.5 110C142.498 109.628 142.412 109.26 142.25 108.925C142.047 108.5 141.729 108.14 141.331 107.888C140.932 107.636 140.471 107.501 140 107.5H107.5C106.837 107.5 106.201 107.237 105.732 106.768C105.263 106.299 105 105.663 105 105V95C102.905 95.2258 100.885 95.9093 99.0836 97.0024C97.2821 98.0954 95.7429 99.5711 94.575 101.325C92.8067 103.979 90.4138 106.157 87.6066 107.67C84.7994 109.182 81.6637 109.983 78.475 110H57.5V135Z" fill="#2B8DFE"/>
    <path d="M137.5 107.498H107.5C106.837 107.498 106.201 107.234 105.732 106.766C105.263 106.297 105 105.661 105 104.998V81.5228C104.998 79.1671 104.414 76.8484 103.3 74.7728C102.206 72.6726 100.597 70.8836 98.625 69.5728C95.9714 67.8084 93.7952 65.4151 92.2904 62.6061C90.7856 59.7971 89.9987 56.6595 90 53.4728V52.4978C90 51.8348 90.2634 51.1989 90.7322 50.73C91.2011 50.2612 91.837 49.9978 92.5 49.9978H102.5V19.9978C102.502 18.6897 102.847 17.4049 103.499 16.271C104.151 15.1371 105.089 14.1936 106.218 13.534C107.348 12.8744 108.63 12.5217 109.938 12.511C111.247 12.5003 112.535 12.8318 113.675 13.4728C114.28 12.5239 115.09 11.7232 116.047 11.1301C117.003 10.537 118.081 10.1668 119.199 10.0467C120.318 9.92666 121.45 10.0599 122.51 10.4366C123.571 10.8133 124.533 11.4238 125.325 12.2228C125.7 12.5955 126.035 13.006 126.325 13.4478C127.768 12.6855 129.415 12.3984 131.032 12.6273C132.648 12.8563 134.15 13.5896 135.325 14.7228C135.7 15.0955 136.035 15.506 136.325 15.9478C137.768 15.1855 139.415 14.8984 141.032 15.1273C142.648 15.3563 144.15 16.0896 145.325 17.2228C146.543 18.43 147.311 20.0183 147.5 21.7228C147.531 21.9802 147.531 22.2404 147.5 22.4978V59.6978C147.502 61.7077 147.107 63.6981 146.339 65.5555C145.572 67.4129 144.445 69.1008 143.025 70.5228C142.065 71.4751 141.303 72.6085 140.784 73.8573C140.264 75.106 139.998 76.4454 140 77.7978V104.998C140 105.661 139.737 106.297 139.268 106.766C138.799 107.234 138.163 107.498 137.5 107.498ZM110 102.498H135V77.7978C134.998 75.788 135.393 73.7975 136.161 71.9401C136.928 70.0827 138.055 68.3948 139.475 66.9728C140.435 66.0205 141.197 64.8871 141.716 63.6384C142.236 62.3896 142.502 61.0502 142.5 59.6978V22.4978C142.491 21.8506 142.231 21.2323 141.775 20.7728C141.546 20.5321 141.27 20.3395 140.966 20.2064C140.661 20.0734 140.333 20.0024 140 19.9978C139.337 19.9978 138.701 20.2612 138.232 20.7301C137.763 21.1989 137.5 21.8348 137.5 22.4978C137.5 23.1609 137.237 23.7967 136.768 24.2656C136.299 24.7344 135.663 24.9978 135 24.9978C134.337 24.9978 133.701 24.7344 133.232 24.2656C132.763 23.7967 132.5 23.1609 132.5 22.4978V19.9978C132.505 19.6758 132.444 19.3561 132.319 19.0592C132.194 18.7622 132.009 18.4944 131.775 18.2728C131.546 18.0321 131.27 17.8395 130.966 17.7064C130.661 17.5734 130.333 17.5024 130 17.4978C129.337 17.4978 128.701 17.7612 128.232 18.2301C127.763 18.6989 127.5 19.3348 127.5 19.9978C127.5 20.6609 127.237 21.2967 126.768 21.7656C126.299 22.2344 125.663 22.4978 125 22.4978C124.337 22.4978 123.701 22.2344 123.232 21.7656C122.763 21.2967 122.5 20.6609 122.5 19.9978V17.4978C122.505 17.1758 122.444 16.8561 122.319 16.5592C122.194 16.2622 122.009 15.9944 121.775 15.7728C121.546 15.5321 121.27 15.3395 120.966 15.2064C120.661 15.0734 120.333 15.0024 120 14.9978C119.337 14.9978 118.701 15.2612 118.232 15.7301C117.763 16.1989 117.5 16.8348 117.5 17.4978V19.9978C117.5 20.6609 117.237 21.2967 116.768 21.7656C116.299 22.2344 115.663 22.4978 115 22.4978C114.337 22.4978 113.701 22.2344 113.232 21.7656C112.763 21.2967 112.5 20.6609 112.5 19.9978C112.505 19.6758 112.444 19.3561 112.319 19.0592C112.194 18.7622 112.009 18.4944 111.775 18.2728C111.413 17.9001 110.945 17.6493 110.434 17.5552C109.923 17.4612 109.396 17.5285 108.925 17.7478C108.5 17.9504 108.14 18.2692 107.888 18.6673C107.636 19.0654 107.501 19.5266 107.5 19.9978V52.4978C107.5 53.1609 107.237 53.7967 106.768 54.2656C106.299 54.7344 105.663 54.9978 105 54.9978H95C95.2258 57.0929 95.9093 59.1127 97.0024 60.9142C98.0954 62.7157 99.5711 64.2549 101.325 65.4228C103.979 67.1911 106.157 69.584 107.67 72.3912C109.182 75.1984 109.983 78.3341 110 81.5228V102.498Z" fill="#2B8DFE"/>
    <path d="M53.4689 69.9962H52.4939C51.8309 69.9962 51.195 69.7328 50.7261 69.264C50.2573 68.7951 49.9939 68.1592 49.9939 67.4962V57.4962H19.9939C18.0048 57.4962 16.0971 56.706 14.6906 55.2995C13.2841 53.893 12.4939 51.9853 12.4939 49.9962C12.4813 48.7057 12.8182 47.4358 13.4689 46.3212C12.52 45.7164 11.7193 44.9058 11.1262 43.9495C10.5331 42.9931 10.1629 41.9156 10.0428 40.7968C9.92275 39.6779 10.056 38.5463 10.4327 37.486C10.8094 36.4256 11.4199 35.4636 12.2189 34.6712C12.5916 34.2965 13.0021 33.9613 13.4439 33.6712C12.8174 32.5479 12.4902 31.2824 12.4939 29.9962C12.4948 29.0057 12.6918 28.0251 13.0737 27.1111C13.4556 26.1972 14.0148 25.3679 14.7189 24.6712C15.0916 24.2965 15.5021 23.9613 15.9439 23.6712C15.3174 22.5479 14.9902 21.2824 14.9939 19.9962C14.9839 18.1343 15.6669 16.3353 16.9099 14.9491C18.1528 13.5629 19.867 12.6886 21.7189 12.4962C21.9763 12.4648 22.2365 12.4648 22.4939 12.4962H59.6939C61.7038 12.4946 63.6942 12.8889 65.5516 13.6568C67.409 14.4246 69.0969 15.5509 70.5189 16.9712C71.4712 17.9315 72.6046 18.6933 73.8533 19.2126C75.1021 19.7318 76.4415 19.9982 77.7939 19.9962H104.994C105.657 19.9962 106.293 20.2596 106.762 20.7284C107.231 21.1973 107.494 21.8332 107.494 22.4962V52.4962C107.494 53.1592 107.231 53.7951 106.762 54.264C106.293 54.7328 105.657 54.9962 104.994 54.9962H81.5189C79.1632 54.9982 76.8445 55.5822 74.7689 56.6962C72.6687 57.7905 70.8797 59.3988 69.5689 61.3712C67.8045 64.0248 65.4112 66.201 62.6022 67.7058C59.7932 69.2106 56.6556 69.9975 53.4689 69.9962ZM22.4939 44.9962C22.4939 45.6592 22.2305 46.2951 21.7617 46.764C21.2928 47.2328 20.657 47.4962 19.9939 47.4962C19.6718 47.491 19.3522 47.5527 19.0553 47.6775C18.7583 47.8023 18.4905 47.9875 18.2689 48.2212C18.0282 48.4507 17.8356 48.7258 17.7025 49.0306C17.5695 49.3354 17.4985 49.6637 17.4939 49.9962C17.4961 50.3687 17.5815 50.736 17.7439 51.0712C17.9465 51.4966 18.2653 51.8561 18.6634 52.1083C19.0615 52.3604 19.5227 52.4949 19.9939 52.4962H52.4939C53.157 52.4962 53.7928 52.7596 54.2617 53.2284C54.7305 53.6973 54.9939 54.3332 54.9939 54.9962V64.9962C57.089 64.7705 59.1088 64.0869 60.9103 62.9939C62.7118 61.9008 64.251 60.4251 65.4189 58.6712C67.1872 56.0176 69.5801 53.8389 72.3873 52.3263C75.1945 50.8137 78.3302 50.0136 81.5189 49.9962H102.494V24.9962H77.7939C75.7841 24.9979 73.7936 24.6035 71.9362 23.8357C70.0788 23.0678 68.3909 21.9416 66.9689 20.5212C66.0166 19.5609 64.8832 18.7991 63.6345 18.2799C62.3857 17.7606 61.0463 17.4943 59.6939 17.4962H22.4939C21.8467 17.5055 21.2284 17.7654 20.7689 18.2212C20.5282 18.4506 20.3356 18.7258 20.2025 19.0306C20.0695 19.3354 19.9985 19.6637 19.9939 19.9962C19.9939 20.6592 20.2573 21.2951 20.7261 21.764C21.195 22.2328 21.8309 22.4962 22.4939 22.4962C23.157 22.4962 23.7928 22.7596 24.2617 23.2284C24.7305 23.6973 24.9939 24.3332 24.9939 24.9962C24.9939 25.6592 24.7305 26.2951 24.2617 26.764C23.7928 27.2328 23.157 27.4962 22.4939 27.4962H19.9939C19.6718 27.491 19.3522 27.5527 19.0553 27.6775C18.7583 27.8023 18.4905 27.9875 18.2689 28.2212C18.0282 28.4506 17.8356 28.7258 17.7025 29.0306C17.5695 29.3354 17.4985 29.6637 17.4939 29.9962C17.4939 30.6592 17.7573 31.2951 18.2261 31.764C18.695 32.2328 19.3309 32.4962 19.9939 32.4962C20.657 32.4962 21.2928 32.7596 21.7617 33.2284C22.2305 33.6973 22.4939 34.3332 22.4939 34.9962C22.4939 35.6592 22.2305 36.2951 21.7617 36.764C21.2928 37.2328 20.657 37.4962 19.9939 37.4962H17.4939C17.1718 37.491 16.8522 37.5527 16.5553 37.6775C16.2583 37.8023 15.9905 37.9875 15.7689 38.2212C15.5282 38.4506 15.3356 38.7258 15.2025 39.0306C15.0695 39.3354 14.9985 39.6637 14.9939 39.9962C14.9939 40.6592 15.2573 41.2951 15.7261 41.764C16.195 42.2328 16.8309 42.4962 17.4939 42.4962H19.9939C20.657 42.4962 21.2928 42.7596 21.7617 43.2284C22.2305 43.6973 22.4939 44.3332 22.4939 44.9962Z" fill="#2B8DFE"/>
    <path d="M52.5 72.5H43.075C42.72 72.4995 42.3692 72.4235 42.0459 72.277C41.7227 72.1304 41.4343 71.9167 41.2 71.65C40.7204 71.1352 40.14 70.7246 39.4948 70.4439C38.8496 70.1632 38.1536 70.0183 37.45 70.0183C36.7464 70.0183 36.0504 70.1632 35.4052 70.4439C34.76 70.7246 34.1796 71.1352 33.7 71.65C33.4657 71.9167 33.1773 72.1304 32.8541 72.277C32.5308 72.4235 32.18 72.4995 31.825 72.5H22.5C21.837 72.5 21.2011 72.2366 20.7322 71.7678C20.2634 71.2989 20 70.663 20 70V55C20 54.337 20.2634 53.7011 20.7322 53.2322C21.2011 52.7634 21.837 52.5 22.5 52.5H52.5C53.163 52.5 53.7989 52.7634 54.2678 53.2322C54.7366 53.7011 55 54.337 55 55V70C55 70.663 54.7366 71.2989 54.2678 71.7678C53.7989 72.2366 53.163 72.5 52.5 72.5ZM44.125 67.5H50V57.5H25V67.5H30.875C32.7349 65.9504 35.0792 65.1018 37.5 65.1018C39.9208 65.1018 42.2651 65.9504 44.125 67.5Z" fill="#2B8DFE"/>
    <path d="M39.9923 150C39.0018 149.999 38.0212 149.802 37.1072 149.42C36.1933 149.038 35.364 148.479 34.6673 147.775C34.2925 147.402 33.9574 146.992 33.6673 146.55C32.223 147.309 30.5768 147.594 28.9616 147.365C27.3464 147.136 25.844 146.405 24.6673 145.275C24.2925 144.902 23.9574 144.492 23.6673 144.05C22.224 144.812 20.5769 145.099 18.9607 144.871C17.3446 144.642 15.8421 143.908 14.6673 142.775C13.4491 141.568 12.6815 139.98 12.4923 138.275C12.4609 138.018 12.4609 137.757 12.4923 137.5V100.3C12.4907 98.2902 12.885 96.2997 13.6528 94.4423C14.4207 92.5849 15.5469 90.897 16.9673 89.475C17.9276 88.5227 18.6894 87.3893 19.2086 86.1406C19.7279 84.8918 19.9943 83.5524 19.9923 82.2V80C19.9923 79.337 20.2557 78.7011 20.7245 78.2323C21.1934 77.7634 21.8293 77.5 22.4923 77.5H31.9173C32.2723 77.5005 32.6231 77.5765 32.9464 77.7231C33.2696 77.8696 33.558 78.0833 33.7923 78.35C34.2719 78.8648 34.8523 79.2754 35.4975 79.5561C36.1427 79.8369 36.8387 79.9817 37.5423 79.9817C38.2459 79.9817 38.9419 79.8369 39.5871 79.5561C40.2323 79.2754 40.8127 78.8648 41.2923 78.35C41.5266 78.0833 41.815 77.8696 42.1382 77.7231C42.4615 77.5765 42.8123 77.5005 43.1673 77.5H52.4923C53.1181 77.4975 53.7222 77.7298 54.185 78.151C54.6479 78.5722 54.936 79.1517 54.9923 79.775C55.1339 81.6877 55.6883 83.5471 56.6173 85.225C57.7116 87.3253 59.3199 89.1142 61.2923 90.425C63.9598 92.1808 66.1507 94.5704 67.6689 97.3799C69.1871 100.189 69.9853 103.332 69.9923 106.525V107.5C69.9923 108.163 69.7289 108.799 69.2601 109.268C68.7912 109.737 68.1553 110 67.4923 110H57.4923V140C57.49 141.308 57.1457 142.593 56.4934 143.727C55.8412 144.861 54.9037 145.804 53.774 146.464C52.6444 147.123 51.3619 147.476 50.0538 147.487C48.7457 147.498 47.4576 147.166 46.3173 146.525C45.6403 147.589 44.7058 148.466 43.6002 149.073C42.4947 149.681 41.2537 149.999 39.9923 150ZM37.4923 140V142.5C37.4871 142.822 37.5488 143.142 37.6736 143.439C37.7984 143.736 37.9836 144.003 38.2173 144.225C38.4467 144.466 38.7219 144.658 39.0267 144.791C39.3315 144.924 39.6598 144.995 39.9923 145C40.6553 145 41.2912 144.737 41.7601 144.268C42.2289 143.799 42.4923 143.163 42.4923 142.5V140C42.4923 139.337 42.7557 138.701 43.2245 138.232C43.6934 137.763 44.3293 137.5 44.9923 137.5C45.6553 137.5 46.2912 137.763 46.7601 138.232C47.2289 138.701 47.4923 139.337 47.4923 140C47.4871 140.322 47.5488 140.642 47.6736 140.939C47.7984 141.236 47.9836 141.503 48.2173 141.725C48.579 142.098 49.0477 142.349 49.5585 142.443C50.0692 142.537 50.5966 142.469 51.0673 142.25C51.4927 142.047 51.8522 141.729 52.1044 141.331C52.3565 140.932 52.491 140.471 52.4923 140V107.5C52.4923 106.837 52.7557 106.201 53.2245 105.732C53.6934 105.263 54.3293 105 54.9923 105H64.9923C64.7665 102.905 64.083 100.885 62.9899 99.0836C61.8969 97.2821 60.4212 95.7429 58.6673 94.575C55.9783 92.7936 53.7849 90.3594 52.2923 87.5C51.4272 85.9335 50.7955 84.2491 50.4173 82.5H44.1173C42.2574 84.0496 39.9131 84.8982 37.4923 84.8982C35.0715 84.8982 32.7272 84.0496 30.8673 82.5H24.9923C24.9173 86.4549 23.3134 90.2271 20.5173 93.025C19.557 93.9773 18.7952 95.1107 18.2759 96.3595C17.7567 97.6082 17.4903 98.9476 17.4923 100.3V137.5C17.5016 138.147 17.7614 138.766 18.2173 139.225C18.4467 139.466 18.7219 139.658 19.0267 139.791C19.3315 139.924 19.6598 139.995 19.9923 140C20.6553 140 21.2912 139.737 21.7601 139.268C22.2289 138.799 22.4923 138.163 22.4923 137.5C22.4923 136.837 22.7557 136.201 23.2245 135.732C23.6934 135.263 24.3293 135 24.9923 135C25.6553 135 26.2912 135.263 26.7601 135.732C27.2289 136.201 27.4923 136.837 27.4923 137.5V140C27.4871 140.322 27.5488 140.642 27.6736 140.939C27.7984 141.236 27.9836 141.503 28.2173 141.725C28.4467 141.966 28.7219 142.158 29.0267 142.291C29.3315 142.424 29.6598 142.495 29.9923 142.5C30.6553 142.5 31.2912 142.237 31.7601 141.768C32.2289 141.299 32.4923 140.663 32.4923 140C32.4923 139.337 32.7557 138.701 33.2245 138.232C33.6934 137.763 34.3293 137.5 34.9923 137.5C35.6553 137.5 36.2912 137.763 36.7601 138.232C37.2289 138.701 37.4923 139.337 37.4923 140Z" fill="#2B8DFE"/>
    <path d="M37.5087 84.9999C35.2209 84.9876 33.0065 84.1912 31.235 82.7435C29.4634 81.2959 28.2417 79.2845 27.7739 77.0451C27.306 74.8056 27.6202 72.4734 28.664 70.4376C29.7078 68.4017 31.4181 66.7854 33.5096 65.8581C35.6011 64.9309 37.9473 64.7489 40.1568 65.3424C42.3663 65.9359 44.3055 67.2691 45.6508 69.1196C46.9962 70.9701 47.6663 73.2259 47.5495 75.5108C47.4326 77.7956 46.5358 79.9713 45.0087 81.6749C44.07 82.7342 42.9144 83.5794 41.6204 84.1531C40.3264 84.7268 38.9241 85.0155 37.5087 84.9999ZM37.5087 69.9999C36.811 70.0015 36.1214 70.1492 35.4841 70.4333C34.8469 70.7175 34.2762 71.1319 33.8087 71.6499C32.9865 72.5671 32.5318 73.7555 32.5318 74.9874C32.5318 76.2192 32.9865 77.4076 33.8087 78.3249C34.278 78.8569 34.855 79.283 35.5016 79.5749C36.1481 79.8667 36.8494 80.0177 37.5587 80.0177C38.2681 80.0177 38.9694 79.8667 39.6159 79.5749C40.2625 79.283 40.8395 78.8569 41.3087 78.3249C42.131 77.4076 42.5857 76.2192 42.5857 74.9874C42.5857 73.7555 42.131 72.5671 41.3087 71.6499C40.83 71.1192 40.2432 70.6974 39.5877 70.4128C38.9322 70.1282 38.2233 69.9874 37.5087 69.9999Z" fill="#2B8DFE"/>
    <path d="M31.925 82.5H20C19.337 82.5 18.7011 82.2366 18.2322 81.7678C17.7634 81.2989 17.5 80.663 17.5 80V70C17.5 69.337 17.7634 68.7011 18.2322 68.2322C18.7011 67.7634 19.337 67.5 20 67.5H31.925C32.4081 67.5011 32.8804 67.6422 33.285 67.9061C33.6896 68.1701 34.0091 68.5455 34.2048 68.9872C34.4005 69.4288 34.464 69.9177 34.3877 70.3947C34.3115 70.8717 34.0987 71.3164 33.775 71.675C32.9597 72.5907 32.5092 73.774 32.5092 75C32.5092 76.226 32.9597 77.4093 33.775 78.325C34.0987 78.6836 34.3115 79.1283 34.3877 79.6053C34.464 80.0823 34.4005 80.5712 34.2048 81.0128C34.0091 81.4545 33.6896 81.8299 33.285 82.0939C32.8804 82.3578 32.4081 82.4989 31.925 82.5ZM22.5 77.5H27.825C27.3915 75.8615 27.3915 74.1385 27.825 72.5H22.5V77.5Z" fill="#2B8DFE"/>
    <path d="M54.9816 82.5H43.0566C42.5735 82.4989 42.1012 82.3578 41.6966 82.0939C41.292 81.8299 40.9725 81.4545 40.7768 81.0128C40.5811 80.5712 40.5176 80.0823 40.5939 79.6053C40.6701 79.1283 40.883 78.6836 41.2066 78.325C42.0219 77.4093 42.4724 76.226 42.4724 75C42.4724 73.774 42.0219 72.5907 41.2066 71.675C40.883 71.3164 40.6701 70.8717 40.5939 70.3947C40.5176 69.9177 40.5811 69.4288 40.7768 68.9872C40.9725 68.5455 41.292 68.1701 41.6966 67.9061C42.1012 67.6422 42.5735 67.5011 43.0566 67.5H54.9816C55.6446 67.5 56.2805 67.7634 56.7494 68.2322C57.2182 68.7011 57.4816 69.337 57.4816 70V80C57.4816 80.663 57.2182 81.2989 56.7494 81.7678C56.2805 82.2366 55.6446 82.5 54.9816 82.5ZM47.1566 77.5H52.4816V72.5H47.1566C47.5901 74.1385 47.5901 75.8615 47.1566 77.5Z" fill="#2B8DFE"/>
</svg>
