<svg width="160" height="160" viewBox="0 0 160 160" fill="none" xmlns="http://www.w3.org/2000/svg">
    <path d="M102.5 150H22.5C19.1848 150 16.0054 148.683 13.6612 146.339C11.317 143.995 10 140.815 10 137.5V27.5C10 24.1848 11.317 21.0054 13.6612 18.6612C16.0054 16.317 19.1848 15 22.5 15H47.5C48.163 15 48.7989 15.2634 49.2678 15.7322C49.7366 16.2011 50 16.837 50 17.5V27.5H75V22.5C75 20.5109 75.7902 18.6032 77.1967 17.1967C78.6032 15.7902 80.5109 15 82.5 15H102.5C105.815 15 108.995 16.317 111.339 18.6612C113.683 21.0054 115 24.1848 115 27.5V64.075C115 64.5657 114.855 65.0455 114.584 65.4545C114.312 65.8635 113.927 66.1836 113.475 66.375C113.025 66.5642 112.53 66.6177 112.05 66.5289C111.57 66.44 111.127 66.2127 110.775 65.875C108.103 63.2965 104.974 61.2366 101.55 59.8C99.2771 58.8724 96.9022 58.2178 94.475 57.85H94C93.6919 57.8332 93.3831 57.8332 93.075 57.85C92.0585 57.668 91.0314 57.5511 90 57.5C85.5636 57.5044 81.1833 58.4928 77.1748 60.3938C73.1663 62.2949 69.6293 65.0613 66.8187 68.4939C64.008 71.9264 61.9937 75.9396 60.9207 80.2443C59.8477 84.5491 59.7428 89.0382 60.6136 93.3884C61.4844 97.7385 63.3092 101.841 65.9565 105.401C68.6038 108.961 72.0077 111.89 75.923 113.976C79.8384 116.062 84.1677 117.254 88.5991 117.466C93.0305 117.677 97.4537 116.904 101.55 115.2C103.207 114.516 104.798 113.679 106.3 112.7C106.779 112.379 107.354 112.234 107.929 112.288C108.503 112.343 109.04 112.594 109.45 113L114.275 117.825C114.507 118.059 114.69 118.336 114.814 118.64C114.939 118.945 115.002 119.271 115 119.6V137.5C115 140.815 113.683 143.995 111.339 146.339C108.995 148.683 105.815 150 102.5 150ZM22.5 20C20.5109 20 18.6032 20.7902 17.1967 22.1967C15.7902 23.6032 15 25.5109 15 27.5V137.5C15 139.489 15.7902 141.397 17.1967 142.803C18.6032 144.21 20.5109 145 22.5 145H102.5C104.489 145 106.397 144.21 107.803 142.803C109.21 141.397 110 139.489 110 137.5V120.6L107.3 117.925C106.058 118.638 104.772 119.273 103.45 119.825C98.6704 121.809 93.5102 122.709 88.3411 122.459C83.172 122.209 78.1225 120.817 73.5565 118.381C68.9904 115.945 65.0213 112.527 61.935 108.373C58.8488 104.218 56.7222 99.4316 55.7083 94.3567C54.6945 89.2818 54.8186 84.0453 56.0719 79.0242C57.3251 74.0031 59.6763 69.3223 62.956 65.3191C66.2357 61.3159 70.3623 58.0898 75.0387 55.8731C79.7151 53.6565 84.8249 52.5045 90 52.5C91.1865 52.4868 92.3725 52.5536 93.55 52.7C93.8997 52.6788 94.2503 52.6788 94.6 52.7H94.875H95.225C98.0495 53.1314 100.811 53.9037 103.45 55C105.767 56.0104 107.964 57.2766 110 58.775V27.5C110 25.5109 109.21 23.6032 107.803 22.1967C106.397 20.7902 104.489 20 102.5 20H82.5C81.837 20 81.2011 20.2634 80.7322 20.7322C80.2634 21.2011 80 21.837 80 22.5V30C80 30.663 79.7366 31.2989 79.2678 31.7678C78.7989 32.2366 78.163 32.5 77.5 32.5H47.5C46.837 32.5 46.2011 32.2366 45.7322 31.7678C45.2634 31.2989 45 30.663 45 30V20H22.5Z" fill="#2B8DFE"/>
    <path d="M102.5 140H22.5C21.837 140 21.2011 139.737 20.7322 139.268C20.2634 138.799 20 138.163 20 137.5V27.5C20 26.837 20.2634 26.2011 20.7322 25.7322C21.2011 25.2634 21.837 25 22.5 25H47.5C48.163 25 48.7989 25.2634 49.2678 25.7322C49.7366 26.2011 50 26.837 50 27.5H75C75 26.837 75.2634 26.2011 75.7322 25.7322C76.2011 25.2634 76.837 25 77.5 25H102.5C103.163 25 103.799 25.2634 104.268 25.7322C104.737 26.2011 105 26.837 105 27.5V57.5C105.001 57.9095 104.901 58.3129 104.709 58.6747C104.517 59.0365 104.239 59.3457 103.9 59.575C103.557 59.8032 103.163 59.9431 102.753 59.9824C102.343 60.0216 101.93 59.959 101.55 59.8C99.2771 58.8724 96.9022 58.2178 94.475 57.85C94.0045 57.7593 93.5284 57.7008 93.05 57.675C92.0382 57.5508 91.0194 57.4923 90 57.5C85.5636 57.5044 81.1833 58.4928 77.1748 60.3938C73.1663 62.2949 69.6293 65.0613 66.8187 68.4939C64.008 71.9264 61.9937 75.9396 60.9207 80.2443C59.8477 84.5491 59.7428 89.0382 60.6136 93.3884C61.4844 97.7385 63.3092 101.841 65.9565 105.401C68.6038 108.961 72.0077 111.89 75.923 113.976C79.8384 116.062 84.1677 117.254 88.5991 117.466C93.0305 117.677 97.4537 116.904 101.55 115.2C101.927 115.045 102.335 114.985 102.74 115.024C103.146 115.063 103.535 115.201 103.875 115.425C104.219 115.651 104.502 115.959 104.698 116.321C104.894 116.683 104.998 117.088 105 117.5V137.5C105 138.163 104.737 138.799 104.268 139.268C103.799 139.737 103.163 140 102.5 140ZM25 135H100V121.05C96.7526 122.007 93.3853 122.495 90 122.5C80.7174 122.5 71.815 118.813 65.2513 112.249C58.6875 105.685 55 96.7826 55 87.5C55 78.2174 58.6875 69.315 65.2513 62.7513C71.815 56.1875 80.7174 52.5 90 52.5C91.1865 52.4868 92.3725 52.5536 93.55 52.7C94.1456 52.7396 94.7383 52.8147 95.325 52.925C96.9078 53.1555 98.4707 53.5065 100 53.975V30H80C80 30.663 79.7366 31.2989 79.2678 31.7678C78.7989 32.2366 78.163 32.5 77.5 32.5H47.5C46.837 32.5 46.2011 32.2366 45.7322 31.7678C45.2634 31.2989 45 30.663 45 30H25V135Z" fill="#2B8DFE"/>
    <path d="M37.3415 56.7001C37.0125 56.702 36.6863 56.6389 36.3817 56.5145C36.0771 56.3901 35.8001 56.2068 35.5665 55.9751L30.2665 50.6751C29.7957 50.2043 29.5312 49.5658 29.5312 48.9001C29.5313 48.2343 29.7957 47.5958 30.2665 47.1251C30.7372 46.6543 31.3757 46.3898 32.0415 46.3898C32.7072 46.3898 33.3457 46.6543 33.8165 47.1251L37.3415 50.6751L46.1665 41.8251C46.3996 41.592 46.6763 41.4071 46.9809 41.2809C47.2854 41.1548 47.6118 41.0898 47.9415 41.0898C48.2711 41.0898 48.5975 41.1548 48.9021 41.2809C49.2067 41.4071 49.4834 41.592 49.7165 41.8251C49.9496 42.0582 50.1345 42.3349 50.2606 42.6394C50.3868 42.944 50.4517 43.2704 50.4517 43.6001C50.4517 43.9297 50.3868 44.2561 50.2606 44.5607C50.1345 44.8652 49.9496 45.142 49.7165 45.3751L39.1165 55.9751C38.8829 56.2068 38.6058 56.3901 38.3012 56.5145C37.9967 56.6389 37.6705 56.702 37.3415 56.7001Z" fill="#2B8DFE"/>
    <path d="M37.3415 91.7001C37.0125 91.702 36.6863 91.6389 36.3817 91.5145C36.0771 91.3901 35.8001 91.2068 35.5665 90.9751L30.2665 85.6751C29.7957 85.2043 29.5312 84.5658 29.5312 83.9001C29.5312 83.2343 29.7957 82.5958 30.2665 82.1251C30.7372 81.6543 31.3757 81.3898 32.0415 81.3898C32.7072 81.3898 33.3457 81.6543 33.8165 82.1251L37.3415 85.6751L46.1665 76.8251C46.6372 76.3543 47.2757 76.0898 47.9415 76.0898C48.6072 76.0898 49.2457 76.3543 49.7165 76.8251C50.1872 77.2958 50.4517 77.9343 50.4517 78.6001C50.4517 79.2658 50.1872 79.9043 49.7165 80.3751L39.1165 90.9751C38.8829 91.2068 38.6058 91.3901 38.3012 91.5145C37.9967 91.6389 37.6705 91.702 37.3415 91.7001Z" fill="#2B8DFE"/>
    <path d="M45 130H32.5C31.837 130 31.2011 129.737 30.7322 129.268C30.2634 128.799 30 128.163 30 127.5V115C30 114.337 30.2634 113.701 30.7322 113.232C31.2011 112.763 31.837 112.5 32.5 112.5H45C45.663 112.5 46.2989 112.763 46.7678 113.232C47.2366 113.701 47.5 114.337 47.5 115V127.5C47.5 128.163 47.2366 128.799 46.7678 129.268C46.2989 129.737 45.663 130 45 130ZM35 125H42.5V117.5H35V125Z" fill="#2B8DFE"/>
    <path d="M136.65 143.35C134.158 143.344 131.769 142.356 130 140.6L107.325 117.925C106.083 118.638 104.797 119.273 103.475 119.825C103.075 120 102.625 120.15 102.125 120.325L101.725 120.5H101.4C100.319 120.879 99.2172 121.197 98.1 121.45C97.0703 121.702 96.0269 121.894 94.975 122.025C94.471 122.121 93.9618 122.188 93.45 122.225H91.825L90 122.5C80.7174 122.5 71.815 118.813 65.2513 112.249C58.6875 105.685 55 96.7826 55 87.5C55 78.2174 58.6875 69.315 65.2513 62.7513C71.815 56.1875 80.7174 52.5 90 52.5H91.775H92.5H93.425C93.875 52.5 94.425 52.625 94.975 52.7C95.9924 52.8404 97.002 53.0323 98 53.275C98.8 53.45 99.55 53.65 100.325 53.9L101.625 54.325L102.225 54.575C102.525 54.575 102.975 54.825 103.425 55.025C109.821 57.71 115.281 62.2248 119.119 68.0026C122.958 73.7803 125.004 80.5634 125 87.5C125.005 93.46 123.482 99.3217 120.575 104.525L143.3 127.25C144.621 128.567 145.521 130.246 145.888 132.074C146.254 133.903 146.069 135.799 145.357 137.523C144.645 139.247 143.438 140.721 141.888 141.758C140.338 142.795 138.515 143.349 136.65 143.35ZM108 111.55L133.525 137.05C133.935 137.459 134.422 137.783 134.958 138.003C135.493 138.224 136.067 138.337 136.646 138.336C137.226 138.334 137.799 138.219 138.334 137.996C138.868 137.774 139.354 137.448 139.762 137.037C140.171 136.627 140.495 136.14 140.716 135.605C140.936 135.069 141.049 134.495 141.048 133.916C141.047 133.337 140.932 132.764 140.709 132.229C140.486 131.694 140.16 131.209 139.75 130.8L114.25 105.275L115.325 103.575C117.669 99.8852 119.178 95.7278 119.747 91.3936C120.316 87.0595 119.931 82.6533 118.619 78.4836C117.307 74.3138 115.099 70.4811 112.151 67.2539C109.203 64.0266 105.585 61.4826 101.55 59.8L100.45 59.375L98.825 58.825C98.225 58.625 97.575 58.475 96.925 58.3C96.275 58.125 95.2 57.95 94.3 57.825L93.125 57.675H92.225H91.65L90 57.5C82.0435 57.5 74.4129 60.6607 68.7868 66.2868C63.1607 71.9129 60 79.5435 60 87.5C60 95.4565 63.1607 103.087 68.7868 108.713C74.4129 114.339 82.0435 117.5 90 117.5H91.525H92.925C93.3534 117.47 93.7793 117.411 94.2 117.325C95.1159 117.214 96.0255 117.055 96.925 116.85C97.875 116.625 98.8 116.35 99.725 116.05L100.25 115.85L101.5 115.35C103.178 114.677 104.786 113.839 106.3 112.85L108 111.55Z" fill="#2B8DFE"/>
    <path d="M90 112.5C83.3696 112.5 77.0107 109.866 72.3223 105.178C67.6339 100.489 65 94.1304 65 87.5C65 80.8696 67.6339 74.5107 72.3223 69.8223C77.0107 65.1339 83.3696 62.5 90 62.5C92.4907 62.5047 94.9671 62.8753 97.35 63.6L97.9 63.8H98.55L98.9 64.15L99.45 64.375C99.7113 64.4551 99.9629 64.5641 100.2 64.7C100.483 64.8078 100.758 64.933 101.025 65.075C101.475 65.275 101.9 65.525 102.325 65.75C102.866 66.0477 103.392 66.3731 103.9 66.725C107.314 69.01 110.111 72.1009 112.046 75.7244C113.981 79.3479 114.993 83.3923 114.993 87.5C114.993 91.6077 113.981 95.6521 112.046 99.2756C110.111 102.899 107.314 105.99 103.9 108.275C103.387 108.633 102.853 108.958 102.3 109.25C101.9 109.475 101.475 109.725 101.075 109.9C100.751 110.071 100.417 110.221 100.075 110.35C99.8795 110.468 99.6694 110.561 99.45 110.625L98.95 110.825L98.625 111.175H97.925L97.4 111.35C95.0044 112.1 92.5102 112.487 90 112.5ZM90 67.5C84.6957 67.5 79.6086 69.6071 75.8579 73.3579C72.1071 77.1086 70 82.1957 70 87.5C70 92.8043 72.1071 97.8914 75.8579 101.642C79.6086 105.393 84.6957 107.5 90 107.5C91.9845 107.501 93.9574 107.197 95.85 106.6L97.05 106.2L97.625 105.975L98.275 105.7L98.775 105.45L99.075 105.3C99.3455 105.192 99.6051 105.058 99.85 104.9C100.35 104.625 100.725 104.375 101.1 104.125C103.833 102.297 106.073 99.8242 107.622 96.9244C109.172 94.0247 109.982 90.7877 109.982 87.5C109.982 84.2123 109.172 80.9753 107.622 78.0756C106.073 75.1758 103.833 72.7026 101.1 70.875C100.725 70.625 100.35 70.375 99.95 70.15C99.6714 69.9758 99.3787 69.8253 99.075 69.7L98.775 69.55L98.275 69.3L97.625 69.025L96.725 68.675L95.8 68.375C93.9213 67.7948 91.9662 67.4998 90 67.5Z" fill="#2B8DFE"/>
    <path d="M90 112.5C83.3696 112.5 77.0107 109.866 72.3223 105.178C67.6339 100.489 65 94.1304 65 87.5C65 80.8696 67.6339 74.5107 72.3223 69.8223C77.0107 65.1339 83.3696 62.5 90 62.5C96.6304 62.5 102.989 65.1339 107.678 69.8223C112.366 74.5107 115 80.8696 115 87.5C115 94.1304 112.366 100.489 107.678 105.178C102.989 109.866 96.6304 112.5 90 112.5ZM90 67.5C85.2037 67.4957 80.5656 69.2151 76.9312 72.3449C73.2968 75.4747 70.9082 79.8063 70.2008 84.5501C69.4933 89.2939 70.5142 94.134 73.0773 98.1879C75.6405 102.242 79.5751 105.24 84.1639 106.635C88.7528 108.03 93.6902 107.73 98.0761 105.789C102.462 103.848 106.004 100.395 108.057 96.0605C110.11 91.7258 110.537 86.7977 109.26 82.1746C107.983 77.5515 105.087 73.5412 101.1 70.875C97.8147 68.678 93.9522 67.5036 90 67.5Z" fill="#2B8DFE"/>
    <path d="M92.5 47.5H60C59.337 47.5 58.7011 47.2366 58.2322 46.7678C57.7634 46.2989 57.5 45.663 57.5 45C57.5 44.337 57.7634 43.7011 58.2322 43.2322C58.7011 42.7634 59.337 42.5 60 42.5H92.5C93.163 42.5 93.7989 42.7634 94.2678 43.2322C94.7366 43.7011 95 44.337 95 45C95 45.663 94.7366 46.2989 94.2678 46.7678C93.7989 47.2366 93.163 47.5 92.5 47.5Z" fill="#2B8DFE"/>
    <path d="M70 57.5H60C59.337 57.5 58.7011 57.2366 58.2322 56.7678C57.7634 56.2989 57.5 55.663 57.5 55C57.5 54.337 57.7634 53.7011 58.2322 53.2322C58.7011 52.7634 59.337 52.5 60 52.5H70C70.663 52.5 71.2989 52.7634 71.7678 53.2322C72.2366 53.7011 72.5 54.337 72.5 55C72.5 55.663 72.2366 56.2989 71.7678 56.7678C71.2989 57.2366 70.663 57.5 70 57.5Z" fill="#2B8DFE"/>
    <path d="M122.5 90C121.837 90 121.201 89.7366 120.732 89.2678C120.263 88.7989 120 88.163 120 87.5C120.017 83.4572 119.207 79.4536 117.62 75.735C116.034 72.0163 113.705 68.661 110.775 65.875C110.531 65.6426 110.337 65.3634 110.204 65.0541C110.071 64.7448 110.001 64.4118 110 64.075V27.5C110 25.5109 109.21 23.6032 107.803 22.1967C106.397 20.7902 104.489 20 102.5 20C101.837 20 101.201 19.7366 100.732 19.2678C100.263 18.7989 100 18.163 100 17.5C100 16.837 100.263 16.2011 100.732 15.7322C101.201 15.2634 101.837 15 102.5 15H112.5C115.815 15 118.995 16.317 121.339 18.6612C123.683 21.0054 125 24.1848 125 27.5V87.5C125 88.163 124.737 88.7989 124.268 89.2678C123.799 89.7366 123.163 90 122.5 90ZM115 63.025C116.904 64.9713 118.581 67.1267 120 69.45V27.5C120 25.5109 119.21 23.6032 117.803 22.1967C116.397 20.7902 114.489 20 112.5 20C114.123 22.1637 115 24.7954 115 27.5V63.025Z" fill="#2B8DFE"/>
    <path d="M112.5 149.999H102.5C101.837 149.999 101.201 149.735 100.732 149.266C100.263 148.798 100 148.162 100 147.499C100 146.836 100.263 146.2 100.732 145.731C101.201 145.262 101.837 144.999 102.5 144.999C104.489 144.999 106.397 144.208 107.803 142.802C109.21 141.395 110 139.488 110 137.499V119.574C110.002 119.08 110.151 118.598 110.427 118.189C110.703 117.78 111.093 117.461 111.55 117.274C112.005 117.082 112.507 117.03 112.992 117.123C113.477 117.217 113.923 117.452 114.275 117.799L124.275 127.799C124.507 128.032 124.69 128.309 124.814 128.614C124.939 128.918 125.002 129.245 125 129.574V137.499C125 140.814 123.683 143.993 121.339 146.337C118.995 148.682 115.815 149.999 112.5 149.999ZM112.5 144.999C114.489 144.999 116.397 144.208 117.803 142.802C119.21 141.395 120 139.488 120 137.499V130.599L115 125.599V137.499C115 140.203 114.123 142.835 112.5 144.999Z" fill="#2B8DFE"/>
    <path d="M122.503 112.5C122.174 112.502 121.848 112.439 121.543 112.314C121.239 112.19 120.962 112.007 120.728 111.775L115.728 106.775C115.325 106.37 115.073 105.839 115.013 105.27C114.954 104.701 115.092 104.13 115.403 103.65C118.443 98.8143 120.038 93.2115 120.003 87.5C120.003 86.837 120.267 86.2011 120.735 85.7322C121.204 85.2634 121.84 85 122.503 85C123.166 85 123.802 85.2634 124.271 85.7322C124.74 86.2011 125.003 86.837 125.003 87.5V110C125.001 110.494 124.852 110.975 124.576 111.385C124.301 111.794 123.91 112.112 123.453 112.3C123.156 112.44 122.831 112.508 122.503 112.5Z" fill="#2B8DFE"/>
    <path d="M77.5 32.5H47.5C46.837 32.5 46.2011 32.2366 45.7322 31.7678C45.2634 31.2989 45 30.663 45 30V17.5C45 15.5109 45.7902 13.6032 47.1967 12.1967C48.6032 10.7902 50.5109 10 52.5 10H80C81.9891 10 83.8968 10.7902 85.3033 12.1967C86.7098 13.6032 87.5 15.5109 87.5 17.5C87.5 18.163 87.2366 18.7989 86.7678 19.2678C86.2989 19.7366 85.663 20 85 20H82.5C81.837 20 81.2011 20.2634 80.7322 20.7322C80.2634 21.2011 80 21.837 80 22.5V30C80 30.663 79.7366 31.2989 79.2678 31.7678C78.7989 32.2366 78.163 32.5 77.5 32.5ZM50 27.5H75V22.5C75.0005 20.7892 75.5859 19.13 76.6591 17.7977C77.7322 16.4654 79.2286 15.54 80.9 15.175C80.6161 15.0526 80.3091 14.9929 80 15H52.5C51.837 15 51.2011 15.2634 50.7322 15.7322C50.2634 16.2011 50 16.837 50 17.5V27.5Z" fill="#2B8DFE"/>
</svg>
