<svg width="160" height="160" viewBox="0 0 160 160" fill="none" xmlns="http://www.w3.org/2000/svg">
    <path d="M105 140H35C34.337 140 33.7011 139.737 33.2322 139.268C32.7634 138.799 32.5 138.163 32.5 137.5C32.5 134.848 31.4464 132.304 29.5711 130.429C27.6957 128.554 25.1522 127.5 22.5 127.5C21.837 127.5 21.2011 127.237 20.7322 126.768C20.2634 126.299 20 125.663 20 125V100C20 99.337 20.2634 98.7011 20.7322 98.2322C21.2011 97.7634 21.837 97.5 22.5 97.5C25.1522 97.5 27.6957 96.4464 29.5711 94.5711C31.4464 92.6957 32.5 90.1522 32.5 87.5C32.5 86.837 32.7634 86.2011 33.2322 85.7322C33.7011 85.2634 34.337 85 35 85H105C105.663 85 106.299 85.2634 106.768 85.7322C107.237 86.2011 107.5 86.837 107.5 87.5C107.5 90.1522 108.554 92.6957 110.429 94.5711C112.304 96.4464 114.848 97.5 117.5 97.5C118.163 97.5 118.799 97.7634 119.268 98.2322C119.737 98.7011 120 99.337 120 100V125C120 125.663 119.737 126.299 119.268 126.768C118.799 127.237 118.163 127.5 117.5 127.5C114.848 127.5 112.304 128.554 110.429 130.429C108.554 132.304 107.5 134.848 107.5 137.5C107.5 138.163 107.237 138.799 106.768 139.268C106.299 139.737 105.663 140 105 140ZM37.3 135H102.7C103.218 131.926 104.681 129.089 106.885 126.885C109.089 124.681 111.926 123.218 115 122.7V102.3C111.926 101.782 109.089 100.319 106.885 98.115C104.681 95.9106 103.218 93.0742 102.7 90H37.3C36.7822 93.0742 35.3194 95.9106 33.115 98.115C30.9106 100.319 28.0742 101.782 25 102.3V122.7C28.0742 123.218 30.9106 124.681 33.115 126.885C35.3194 129.089 36.7822 131.926 37.3 135Z" fill="#2B8DFE"/>
    <path d="M70 132.5C61.725 132.5 55 123.525 55 112.5C55 101.475 61.725 92.5 70 92.5C78.275 92.5 85 101.475 85 112.5C85 123.525 78.275 132.5 70 132.5ZM70 97.5C64.575 97.5 60 104.375 60 112.5C60 120.625 64.575 127.5 70 127.5C75.425 127.5 80 120.625 80 112.5C80 104.375 75.425 97.5 70 97.5Z" fill="#2B8DFE"/>
    <path d="M122.5 150H17.5C15.5109 150 13.6032 149.21 12.1967 147.803C10.7902 146.397 10 144.489 10 142.5V82.5C10 80.5109 10.7902 78.6032 12.1967 77.1967C13.6032 75.7902 15.5109 75 17.5 75H122.5C124.489 75 126.397 75.7902 127.803 77.1967C129.21 78.6032 130 80.5109 130 82.5V142.5C130 144.489 129.21 146.397 127.803 147.803C126.397 149.21 124.489 150 122.5 150ZM17.5 80C16.837 80 16.2011 80.2634 15.7322 80.7322C15.2634 81.2011 15 81.837 15 82.5V142.5C15 143.163 15.2634 143.799 15.7322 144.268C16.2011 144.737 16.837 145 17.5 145H122.5C123.163 145 123.799 144.737 124.268 144.268C124.737 143.799 125 143.163 125 142.5V82.5C125 81.837 124.737 81.2011 124.268 80.7322C123.799 80.2634 123.163 80 122.5 80H17.5Z" fill="#2B8DFE"/>
    <path d="M105 140H35C34.337 140 33.7011 139.737 33.2322 139.268C32.7634 138.799 32.5 138.163 32.5 137.5C32.5 134.848 31.4464 132.304 29.5711 130.429C27.6957 128.554 25.1522 127.5 22.5 127.5C21.837 127.5 21.2011 127.237 20.7322 126.768C20.2634 126.299 20 125.663 20 125V100C20 99.337 20.2634 98.7011 20.7322 98.2322C21.2011 97.7634 21.837 97.5 22.5 97.5C25.1522 97.5 27.6957 96.4464 29.5711 94.5711C31.4464 92.6957 32.5 90.1522 32.5 87.5C32.5 86.837 32.7634 86.2011 33.2322 85.7322C33.7011 85.2634 34.337 85 35 85H105C105.663 85 106.299 85.2634 106.768 85.7322C107.237 86.2011 107.5 86.837 107.5 87.5C107.5 90.1522 108.554 92.6957 110.429 94.5711C112.304 96.4464 114.848 97.5 117.5 97.5C118.163 97.5 118.799 97.7634 119.268 98.2322C119.737 98.7011 120 99.337 120 100V125C120 125.663 119.737 126.299 119.268 126.768C118.799 127.237 118.163 127.5 117.5 127.5C114.848 127.5 112.304 128.554 110.429 130.429C108.554 132.304 107.5 134.848 107.5 137.5C107.5 138.163 107.237 138.799 106.768 139.268C106.299 139.737 105.663 140 105 140ZM37.3 135H102.7C103.218 131.926 104.681 129.089 106.885 126.885C109.089 124.681 111.926 123.218 115 122.7V102.3C111.926 101.782 109.089 100.319 106.885 98.115C104.681 95.9106 103.218 93.0742 102.7 90H37.3C36.7822 93.0742 35.3194 95.9106 33.115 98.115C30.9106 100.319 28.0742 101.782 25 102.3V122.7C28.0742 123.218 30.9106 124.681 33.115 126.885C35.3194 129.089 36.7822 131.926 37.3 135Z" fill="#2B8DFE"/>
    <path d="M70 132.5C61.725 132.5 55 123.525 55 112.5C55 101.475 61.725 92.5 70 92.5C78.275 92.5 85 101.475 85 112.5C85 123.525 78.275 132.5 70 132.5ZM70 97.5C64.575 97.5 60 104.375 60 112.5C60 120.625 64.575 127.5 70 127.5C75.425 127.5 80 120.625 80 112.5C80 104.375 75.425 97.5 70 97.5Z" fill="#2B8DFE"/>
    <path d="M127.497 120.9C127.281 120.925 127.063 120.925 126.847 120.9C126.302 120.754 125.822 120.427 125.486 119.973C125.15 119.519 124.978 118.965 124.997 118.4V82.5002C124.997 81.8371 124.734 81.2013 124.265 80.7324C123.796 80.2636 123.16 80.0002 122.497 80.0002H105.847C105.41 79.9966 104.981 79.885 104.597 79.6752L60.4224 54.1752C60.1015 54.5686 59.7593 54.9442 59.3974 55.3002C58.9474 55.7002 58.5974 56.0252 58.1974 56.3252L57.7474 56.6502L56.5974 57.4502C54.6673 58.6092 52.501 59.3189 50.2593 59.5267C48.0175 59.7344 45.7577 59.4348 43.6474 58.6502L33.1974 76.7752C33.3407 77.2479 33.3407 77.7525 33.1974 78.2252C33.0369 78.7566 32.7041 79.2195 32.2515 79.5409C31.7988 79.8623 31.2521 80.0239 30.6974 80.0002H18.1974C17.7569 80.0019 17.3237 79.8872 16.9418 79.6677C16.5599 79.4482 16.2427 79.1317 16.0224 78.7502C15.803 78.3701 15.6875 77.939 15.6875 77.5002C15.6875 77.0613 15.803 76.6302 16.0224 76.2502L40.3974 34.0252C40.8916 33.17 41.5498 32.4208 42.3343 31.8206C43.1188 31.2204 44.0141 30.7812 44.9688 30.528C45.9235 30.2748 46.9188 30.2126 47.8976 30.3452C48.8764 30.4777 49.8194 30.8022 50.6724 31.3002L61.6724 37.5002L141.672 83.7002C142.526 84.1922 143.275 84.8478 143.876 85.6294C144.476 86.411 144.917 87.3032 145.172 88.2552C145.427 89.2071 145.493 90.2001 145.364 91.1773C145.235 92.1545 144.915 93.0967 144.422 93.9502L129.672 119.65C129.452 120.032 129.135 120.348 128.753 120.568C128.371 120.787 127.938 120.902 127.497 120.9ZM129.997 82.8002V109.075L139.997 91.5752C140.325 91.0042 140.415 90.3268 140.246 89.6902C140.078 89.0535 139.665 88.5091 139.097 88.1752L129.997 82.8002ZM106.522 75.0002H116.522L48.2724 35.6252C47.7077 35.291 47.0343 35.1922 46.3974 35.3502C46.0782 35.4355 45.7791 35.5833 45.5173 35.785C45.2555 35.9867 45.0364 36.2383 44.8724 36.5252L22.6474 75.0002H28.4224L40.4474 54.1752C40.6108 53.8887 40.8291 53.6374 41.09 53.4357C41.3509 53.234 41.6491 53.0859 41.9674 52.9999C42.2858 52.9139 42.618 52.8918 42.9449 52.9347C43.2719 52.9777 43.5871 53.0849 43.8724 53.2502C45.4074 54.1513 47.155 54.6263 48.9349 54.6263C50.7148 54.6263 52.4625 54.1513 53.9974 53.2502C54.3224 53.0752 54.6224 52.8502 54.9224 52.6502L55.0974 52.5002C55.3803 52.2951 55.6477 52.0695 55.8974 51.8252C56.2052 51.5223 56.4894 51.1964 56.7474 50.8502C57.0252 50.4889 57.2839 50.1134 57.5224 49.7252C57.8522 49.1534 58.3948 48.7352 59.0318 48.5619C59.6687 48.3886 60.3484 48.4743 60.9224 48.8002L106.522 75.0002Z" fill="#2B8DFE"/>
    <path d="M105.861 80.0016H30.861C30.3624 80.0027 29.8749 79.8547 29.461 79.5766L28.986 79.2516C28.697 79.0931 28.4422 78.8789 28.2362 78.6215C28.0303 78.364 27.8773 78.0684 27.786 77.7516C27.6935 77.4319 27.6658 77.097 27.7044 76.7664C27.743 76.4359 27.8473 76.1164 28.011 75.8266L40.511 54.1766C40.6744 53.8902 40.8927 53.6388 41.1536 53.4371C41.4145 53.2354 41.7127 53.0873 42.031 53.0013C42.3494 52.9153 42.6816 52.8932 43.0085 52.9361C43.3355 52.9791 43.6507 53.0863 43.936 53.2516C45.471 54.1527 47.2186 54.6278 48.9985 54.6278C50.7784 54.6278 52.5261 54.1527 54.061 53.2516C55.5146 52.3627 56.7053 51.1029 57.511 49.6016C57.6744 49.3152 57.8927 49.0638 58.1536 48.8621C58.4145 48.6604 58.7127 48.5123 59.031 48.4263C59.3494 48.3403 59.6816 48.3182 60.0085 48.3611C60.3355 48.4041 60.6507 48.5113 60.936 48.6766L107.111 75.3266C107.592 75.6009 107.968 76.0271 108.181 76.5384C108.394 77.0497 108.431 77.6171 108.286 78.1516C108.143 78.6843 107.827 79.1547 107.388 79.4893C106.95 79.8239 106.413 80.004 105.861 80.0016ZM34.211 75.0016H96.536L60.436 54.1516C59.3632 55.4894 58.0592 56.624 56.586 57.5016C54.659 58.6568 52.4972 59.3644 50.2601 59.5721C48.023 59.7798 45.7678 59.4823 43.661 58.7016L34.211 75.0016Z" fill="#2B8DFE"/>
    <path d="M132.667 83.9518C132.229 83.9548 131.798 83.8427 131.417 83.6268L114.142 73.6268C113.764 73.3981 113.446 73.0807 113.217 72.7018L93.2174 37.9018C90.2999 38.9844 87.1179 39.1329 84.1123 38.3266C81.1067 37.5204 78.4263 35.7993 76.4424 33.4018L61.7674 41.9018C61.3873 42.1212 60.9562 42.2367 60.5174 42.2367C60.0785 42.2367 59.6474 42.1212 59.2674 41.9018L49.2674 36.1018C48.8826 35.8837 48.5626 35.5675 48.34 35.1854C48.1173 34.8033 48 34.369 48 33.9268C48 33.4846 48.1173 33.0502 48.34 32.6681C48.5626 32.286 48.8826 31.9698 49.2674 31.7518L86.0924 10.5018C86.9458 10.0088 87.8881 9.68882 88.8653 9.56022C89.8425 9.43161 90.8354 9.49687 91.7874 9.75227C92.7393 10.0077 93.6316 10.4482 94.4132 11.0487C95.1947 11.6491 95.8503 12.3978 96.3424 13.2518L134.842 80.2018C135.119 80.6794 135.23 81.2352 135.157 81.7824C135.085 82.3296 134.834 82.8375 134.442 83.2268C134.209 83.4585 133.932 83.6418 133.627 83.7662C133.323 83.8906 132.996 83.9537 132.667 83.9518ZM117.217 69.6518L125.842 74.6518L91.8674 15.7768C91.5133 15.2302 90.9598 14.8433 90.3248 14.6986C89.6898 14.5539 89.0234 14.6626 88.4674 15.0018L55.3924 33.9518L60.3924 36.8518L75.7924 27.9518C76.0771 27.7872 76.3914 27.6804 76.7175 27.6375C77.0435 27.5946 77.3748 27.6164 77.6924 27.7018C78.33 27.8884 78.8743 28.3078 79.2174 28.8768C79.8769 30.0131 80.7539 31.0083 81.7982 31.8055C82.8426 32.6027 84.0337 33.1863 85.3037 33.5229C86.5737 33.8596 87.8976 33.9427 89.1997 33.7675C90.5018 33.5922 91.7566 33.1622 92.8924 32.5018C93.1777 32.3365 93.4929 32.2293 93.8199 32.1863C94.1468 32.1434 94.479 32.1655 94.7974 32.2515C95.1157 32.3375 95.4139 32.4856 95.6748 32.6873C95.9357 32.889 96.154 33.1403 96.3174 33.4268L117.217 69.6518Z" fill="#2B8DFE"/>
    <path d="M127.5 124.753C126.837 124.753 126.201 124.49 125.732 124.021C125.263 123.552 125 122.916 125 122.253V118.403C125.004 117.966 125.115 117.537 125.325 117.153L138.575 94.2031C138.795 93.8216 139.112 93.5051 139.494 93.2856C139.876 93.0661 140.309 92.9514 140.75 92.9531C141.191 92.9514 141.624 93.0661 142.006 93.2856C142.388 93.5051 142.705 93.8216 142.925 94.2031L148.725 104.203C149.218 105.057 149.538 105.999 149.667 106.976C149.795 107.953 149.73 108.946 149.475 109.898C149.219 110.85 148.779 111.742 148.178 112.524C147.578 113.306 146.829 113.961 145.975 114.453L128.75 124.453C128.363 124.651 127.935 124.754 127.5 124.753ZM140.75 100.453L131 117.353L143.5 110.128C144.065 109.799 144.479 109.26 144.651 108.629C144.824 107.998 144.743 107.325 144.425 106.753L140.75 100.453Z" fill="#2B8DFE"/>
    <path d="M115.392 73.9778C114.954 73.9809 114.523 73.8688 114.142 73.6528L59.1424 41.9278C58.7576 41.7098 58.4376 41.3936 58.215 41.0115C57.9923 40.6294 57.875 40.1951 57.875 39.7528C57.875 39.3106 57.9923 38.8763 58.215 38.4942C58.4376 38.1121 58.7576 37.7959 59.1424 37.5778L75.7924 27.9528C76.0771 27.7883 76.3914 27.6815 76.7175 27.6386C77.0435 27.5957 77.3748 27.6175 77.6924 27.7028C78.33 27.8895 78.8743 28.3088 79.2174 28.8778C79.8769 30.0141 80.7539 31.0093 81.7982 31.8065C82.8426 32.6037 84.0337 33.1873 85.3037 33.524C86.5737 33.8606 87.8976 33.9437 89.1997 33.7685C90.5018 33.5933 91.7566 33.1632 92.8924 32.5028C93.1777 32.3375 93.4929 32.2303 93.8199 32.1874C94.1468 32.1444 94.479 32.1666 94.7974 32.2525C95.1157 32.3385 95.4139 32.4866 95.6748 32.6883C95.9357 32.89 96.154 33.1414 96.3174 33.4278L117.492 70.2278C117.769 70.7055 117.88 71.2612 117.807 71.8084C117.735 72.3556 117.484 72.8635 117.092 73.2528C116.639 73.7028 116.031 73.9622 115.392 73.9778ZM65.3924 39.7528L108.542 64.7528L93.1174 37.9278C90.1999 39.0105 87.0179 39.1589 84.0123 38.3527C81.0067 37.5464 78.3263 35.8253 76.3424 33.4278L65.3924 39.7528Z" fill="#2B8DFE"/>
</svg>
