<svg width="333" height="55" viewBox="0 0 333 55" fill="none" xmlns="http://www.w3.org/2000/svg">
<path d="M33.636 32.984C32.196 36.088 30.18 38.472 27.588 40.136C25.028 41.8 22.052 42.632 18.66 42.632C15.172 42.632 12.052 41.768 9.3 40.04C6.548 38.312 4.388 35.912 2.82 32.84C1.284 29.736 0.516 26.232 0.516 22.328C0.516 18.488 1.3 15.064 2.868 12.056C4.436 9.016 6.628 6.648 9.444 4.952C12.26 3.256 15.492 2.408 19.14 2.408C25.7 2.408 30.5 5.624 33.54 12.056L25.62 15.512C24.98 13.944 24.052 12.76 22.836 11.96C21.652 11.16 20.244 10.76 18.612 10.76C16.884 10.76 15.332 11.256 13.956 12.248C12.612 13.24 11.556 14.616 10.788 16.376C10.052 18.104 9.684 20.088 9.684 22.328C9.684 24.632 10.052 26.696 10.788 28.52C11.556 30.312 12.612 31.72 13.956 32.744C15.332 33.768 16.884 34.28 18.612 34.28C21.652 34.28 24.02 32.696 25.716 29.528L33.636 32.984ZM50.8043 42.632C47.9243 42.632 45.4123 42.024 43.2683 40.808C41.1563 39.56 39.5243 37.8 38.3723 35.528C37.2523 33.224 36.6923 30.52 36.6923 27.416C36.6923 24.344 37.2523 21.672 38.3723 19.4C39.5243 17.096 41.1563 15.336 43.2683 14.12C45.4123 12.872 47.9243 12.248 50.8043 12.248C53.6843 12.248 56.1803 12.872 58.2923 14.12C60.4363 15.336 62.0683 17.096 63.1883 19.4C64.3403 21.672 64.9163 24.344 64.9163 27.416C64.9163 30.52 64.3403 33.224 63.1883 35.528C62.0683 37.8 60.4363 39.56 58.2923 40.808C56.1803 42.024 53.6843 42.632 50.8043 42.632ZM50.8043 34.472C52.4363 34.472 53.7163 33.848 54.6443 32.6C55.6043 31.32 56.0843 29.592 56.0843 27.416C56.0843 25.24 55.6043 23.528 54.6443 22.28C53.7163 21.032 52.4363 20.408 50.8043 20.408C49.1723 20.408 47.8763 21.032 46.9163 22.28C45.9883 23.528 45.5243 25.24 45.5243 27.416C45.5243 29.592 45.9883 31.32 46.9163 32.6C47.8763 33.848 49.1723 34.472 50.8043 34.472ZM69.1568 41.96V12.92H77.7968V16.568H78.0848C78.9168 15.16 79.9888 14.088 81.3008 13.352C82.6448 12.616 84.1808 12.248 85.9088 12.248C87.5088 12.248 88.8848 12.616 90.0368 13.352C91.2208 14.088 92.1007 15.16 92.6768 16.568H92.9648C93.9888 15.128 95.2048 14.056 96.6128 13.352C98.0208 12.616 99.7008 12.248 101.653 12.248C104.341 12.248 106.437 13.176 107.941 15.032C109.477 16.856 110.245 19.432 110.245 22.76V41.96H101.605V24.776C101.605 23.336 101.301 22.232 100.693 21.464C100.117 20.696 99.2848 20.312 98.1968 20.312C96.8528 20.312 95.8128 20.744 95.0768 21.608C94.3728 22.44 94.0208 23.656 94.0208 25.256V41.96H85.3808V24.776C85.3808 23.336 85.0768 22.232 84.4688 21.464C83.8928 20.696 83.0608 20.312 81.9728 20.312C80.6288 20.312 79.5888 20.744 78.8528 21.608C78.1488 22.44 77.7968 23.656 77.7968 25.256V41.96H69.1568ZM125.217 5.048C125.217 6.584 124.753 7.816 123.825 8.744C122.929 9.64 121.697 10.088 120.129 10.088C118.593 10.088 117.377 9.64 116.481 8.744C115.585 7.816 115.137 6.584 115.137 5.048C115.137 3.512 115.585 2.296 116.481 1.4C117.377 0.471998 118.593 0.00799847 120.129 0.00799847C121.697 0.00799847 122.929 0.471998 123.825 1.4C124.753 2.296 125.217 3.512 125.217 5.048ZM124.497 12.92V41.96H115.857V12.92H124.497ZM130.422 41.96V12.92H139.062V16.664H139.302C140.134 15.256 141.222 14.168 142.566 13.4C143.91 12.632 145.478 12.248 147.27 12.248C150.15 12.248 152.374 13.176 153.942 15.032C155.51 16.888 156.294 19.528 156.294 22.952V41.96H147.654V24.968C147.654 23.56 147.302 22.456 146.598 21.656C145.926 20.856 144.982 20.456 143.766 20.456C142.326 20.456 141.174 20.904 140.31 21.8C139.478 22.696 139.062 23.928 139.062 25.496V41.96H130.422ZM174.416 54.632C171.088 54.632 168.24 53.896 165.872 52.424C163.504 50.984 161.84 49 160.88 46.472L168.224 43.448C168.8 44.696 169.584 45.672 170.576 46.376C171.6 47.08 172.784 47.432 174.128 47.432C175.76 47.432 177.04 46.92 177.968 45.896C178.928 44.872 179.408 43.512 179.408 41.816V38.12H179.12C178.416 39.4 177.44 40.392 176.192 41.096C174.976 41.8 173.664 42.152 172.256 42.152C169.824 42.152 167.696 41.544 165.872 40.328C164.048 39.08 162.64 37.32 161.648 35.048C160.688 32.744 160.208 30.04 160.208 26.936C160.208 23.96 160.672 21.368 161.6 19.16C162.56 16.952 163.904 15.256 165.632 14.072C167.392 12.856 169.44 12.248 171.776 12.248C173.312 12.248 174.72 12.6 176 13.304C177.28 14.008 178.32 15 179.12 16.28H179.408V12.92H188.048V40.424C188.048 43.272 187.504 45.768 186.416 47.912C185.36 50.056 183.808 51.704 181.76 52.856C179.712 54.04 177.264 54.632 174.416 54.632ZM174.416 34.088C176.016 34.088 177.28 33.48 178.208 32.264C179.136 31.016 179.6 29.336 179.6 27.224C179.6 25.112 179.12 23.432 178.16 22.184C177.2 20.936 175.888 20.312 174.224 20.312C172.656 20.312 171.392 20.936 170.432 22.184C169.504 23.432 169.04 25.112 169.04 27.224C169.04 29.336 169.52 31.016 170.48 32.264C171.44 33.48 172.752 34.088 174.416 34.088ZM224.255 42.632C220.639 42.632 217.487 41.736 214.799 39.944C212.143 38.152 210.175 35.784 208.895 32.84L216.623 29.24C217.263 30.968 218.255 32.28 219.599 33.176C220.975 34.072 222.543 34.52 224.303 34.52C226.127 34.52 227.567 34.2 228.623 33.56C229.711 32.888 230.255 32.024 230.255 30.968C230.255 30.232 230.063 29.624 229.679 29.144C229.295 28.664 228.607 28.216 227.615 27.8C226.623 27.352 225.151 26.856 223.199 26.312C220.607 25.576 218.447 24.84 216.719 24.104C215.023 23.368 213.519 22.216 212.207 20.648C210.895 19.048 210.239 16.952 210.239 14.36C210.239 12.056 210.879 10.008 212.159 8.216C213.471 6.392 215.231 4.968 217.439 3.944C219.679 2.92 222.143 2.408 224.831 2.408C231.679 2.408 236.591 5.56 239.567 11.864L231.887 15.464C231.055 13.704 230.063 12.44 228.911 11.672C227.759 10.904 226.367 10.52 224.735 10.52C223.199 10.52 221.919 10.856 220.895 11.528C219.871 12.168 219.359 12.968 219.359 13.928C219.359 14.696 219.551 15.336 219.935 15.848C220.351 16.328 221.039 16.776 221.999 17.192C222.991 17.608 224.479 18.088 226.463 18.632C228.991 19.304 231.119 20.008 232.847 20.744C234.575 21.48 236.095 22.632 237.407 24.2C238.719 25.768 239.375 27.864 239.375 30.488C239.375 32.92 238.735 35.064 237.455 36.92C236.175 38.744 234.383 40.152 232.079 41.144C229.807 42.136 227.199 42.632 224.255 42.632ZM256.82 42.632C253.94 42.632 251.428 42.024 249.284 40.808C247.172 39.56 245.54 37.8 244.388 35.528C243.268 33.224 242.708 30.52 242.708 27.416C242.708 24.344 243.268 21.672 244.388 19.4C245.54 17.096 247.172 15.336 249.284 14.12C251.428 12.872 253.94 12.248 256.82 12.248C259.7 12.248 262.196 12.872 264.308 14.12C266.452 15.336 268.084 17.096 269.204 19.4C270.356 21.672 270.932 24.344 270.932 27.416C270.932 30.52 270.356 33.224 269.204 35.528C268.084 37.8 266.452 39.56 264.308 40.808C262.196 42.024 259.7 42.632 256.82 42.632ZM256.82 34.472C258.452 34.472 259.732 33.848 260.66 32.6C261.62 31.32 262.1 29.592 262.1 27.416C262.1 25.24 261.62 23.528 260.66 22.28C259.732 21.032 258.452 20.408 256.82 20.408C255.188 20.408 253.892 21.032 252.932 22.28C252.004 23.528 251.54 25.24 251.54 27.416C251.54 29.592 252.004 31.32 252.932 32.6C253.892 33.848 255.188 34.472 256.82 34.472ZM288.132 42.632C285.252 42.632 282.74 42.024 280.596 40.808C278.484 39.56 276.852 37.8 275.7 35.528C274.58 33.224 274.02 30.52 274.02 27.416C274.02 24.344 274.58 21.672 275.7 19.4C276.852 17.096 278.484 15.336 280.596 14.12C282.74 12.872 285.252 12.248 288.132 12.248C291.012 12.248 293.508 12.872 295.62 14.12C297.764 15.336 299.396 17.096 300.516 19.4C301.668 21.672 302.244 24.344 302.244 27.416C302.244 30.52 301.668 33.224 300.516 35.528C299.396 37.8 297.764 39.56 295.62 40.808C293.508 42.024 291.012 42.632 288.132 42.632ZM288.132 34.472C289.764 34.472 291.044 33.848 291.972 32.6C292.932 31.32 293.412 29.592 293.412 27.416C293.412 25.24 292.932 23.528 291.972 22.28C291.044 21.032 289.764 20.408 288.132 20.408C286.5 20.408 285.204 21.032 284.244 22.28C283.316 23.528 282.852 25.24 282.852 27.416C282.852 29.592 283.316 31.32 284.244 32.6C285.204 33.848 286.5 34.472 288.132 34.472ZM306.485 41.96V12.92H315.125V16.664H315.365C316.197 15.256 317.285 14.168 318.629 13.4C319.973 12.632 321.541 12.248 323.333 12.248C326.213 12.248 328.437 13.176 330.005 15.032C331.573 16.888 332.357 19.528 332.357 22.952V41.96H323.717V24.968C323.717 23.56 323.365 22.456 322.661 21.656C321.989 20.856 321.045 20.456 319.829 20.456C318.389 20.456 317.237 20.904 316.373 21.8C315.541 22.696 315.125 23.928 315.125 25.496V41.96H306.485Z" fill="#006FF7"/>
</svg>
