<svg width="224" height="270" viewBox="0 0 224 270" fill="none" xmlns="http://www.w3.org/2000/svg">
<path d="M0.5 175.986C0.5 192.477 50.3833 205.828 111.916 205.828C173.448 205.828 223.332 192.477 223.332 175.986V187.313C223.332 203.804 173.448 217.155 111.916 217.155C50.3833 217.155 0.5 203.804 0.5 187.313V175.986Z" fill="url(#paint0_linear_35001_197229)"/>
<path d="M111.916 205.828C173.449 205.828 223.332 192.467 223.332 175.986C223.332 159.505 173.449 146.144 111.916 146.144C50.3826 146.144 0.5 159.505 0.5 175.986C0.5 192.467 50.3826 205.828 111.916 205.828Z" fill="url(#paint1_linear_35001_197229)"/>
<path d="M110.859 186.402H216.318C220.837 183.145 223.302 179.653 223.302 175.985C223.302 172.787 221.424 169.735 217.991 166.83H110.859V186.402Z" fill="url(#paint2_linear_35001_197229)"/>
<path d="M60.2417 166.831C60.2417 170.352 65.23 173.844 75.2067 176.514C95.1894 181.855 127.555 181.855 147.508 176.514C157.485 173.844 162.473 170.323 162.473 166.831V172.7C162.473 176.192 157.485 179.713 147.508 182.383C127.526 187.723 95.16 187.723 75.2067 182.383C65.23 179.713 60.2417 176.192 60.2417 172.7V166.831Z" fill="url(#paint3_linear_35001_197229)"/>
<path d="M60.2417 166.831C60.2417 163.339 65.23 159.818 75.2067 157.148C95.1894 151.807 127.555 151.807 147.508 157.148C157.485 159.818 162.473 163.339 162.473 166.831C162.473 170.323 157.485 173.844 147.508 176.514C127.526 181.855 95.16 181.855 75.2067 176.514C65.23 173.844 60.2417 170.352 60.2417 166.831Z" fill="url(#paint4_linear_35001_197229)"/>
<path d="M118.165 84.8156L128.494 79.9152C145.777 71.7285 156.81 54.328 156.81 35.1963V17.0036C156.81 13.8932 152.379 10.7828 143.518 8.40601C125.765 3.65242 97.0089 3.65242 79.2856 8.40601C70.424 10.7828 65.9932 13.8932 65.9932 17.0036V35.1963C65.9932 54.328 77.0262 71.7285 94.3093 79.9152L104.638 84.8156C105.929 85.4318 106.751 86.7229 106.751 88.1607V94C106.751 95.4378 105.929 96.7289 104.638 97.3451L94.3093 102.245C77.0262 110.432 65.9932 127.833 65.9932 146.964V165.157C65.9932 168.267 70.424 171.378 79.2856 173.755C97.0382 178.508 125.794 178.508 143.518 173.755C152.379 171.378 156.81 168.267 156.81 165.157V146.964C156.81 127.833 145.777 110.432 128.494 102.245L118.165 97.3451C116.874 96.7289 116.053 95.4378 116.053 94V88.1607C116.023 86.7229 116.845 85.4318 118.165 84.8156Z" fill="url(#paint5_linear_35001_197229)"/>
<path d="M143.488 8.40601C125.735 3.65242 96.9791 3.65242 79.2558 8.40601C70.3942 10.7828 65.9634 13.8932 65.9634 17.0036V29.0636C67.6066 31.4404 71.8614 33.6998 78.7276 35.5484C96.7737 40.39 126.029 40.39 144.075 35.5484C150.941 33.6998 155.196 31.4404 156.839 29.0636V17.0036C156.78 13.8932 152.35 10.7828 143.488 8.40601Z" fill="url(#paint6_linear_35001_197229)"/>
<path d="M156.81 17.0036C156.81 20.1139 152.379 23.2243 143.518 25.6011C125.765 30.3547 97.0089 30.3547 79.2856 25.6011C70.424 23.2243 65.9932 20.1139 65.9932 17.0036C65.9932 13.8932 70.424 10.7828 79.2856 8.40601C97.0382 3.65242 125.794 3.65242 143.518 8.40601C152.379 10.7828 156.81 13.8932 156.81 17.0036Z" fill="url(#paint7_linear_35001_197229)"/>
<path d="M72.7725 53.0376C77.2033 63.2197 85.2726 71.6411 95.8068 76.3654L107.691 81.7058C108.718 82.1753 109.363 83.173 109.363 84.3174V146.906H113.413V84.4054C113.413 83.2904 114.058 82.2634 115.085 81.7939L127.116 76.3947C137.65 71.6705 145.72 63.249 150.15 53.0669H72.7725V53.0376Z" fill="url(#paint8_linear_35001_197229)"/>
<path d="M111.447 62.4862C133.017 62.4862 150.503 57.7961 150.503 52.0107C150.503 46.2252 133.017 41.5352 111.447 41.5352C89.877 41.5352 72.3911 46.2252 72.3911 52.0107C72.3911 57.7961 89.877 62.4862 111.447 62.4862Z" fill="url(#paint9_linear_35001_197229)"/>
<path d="M68.4878 146.084C68.4878 152.423 87.6782 157.558 111.358 157.558C135.038 157.558 154.228 152.423 154.228 146.084V163.397C154.228 169.735 135.038 174.87 111.358 174.87C87.6782 174.87 68.4878 169.735 68.4878 163.397V146.084Z" fill="url(#paint10_linear_35001_197229)"/>
<path d="M111.358 157.558C135.035 157.558 154.228 152.421 154.228 146.085C154.228 139.749 135.035 134.612 111.358 134.612C87.6815 134.612 68.4878 139.749 68.4878 146.085C68.4878 152.421 87.6815 157.558 111.358 157.558Z" fill="url(#paint11_linear_35001_197229)"/>
<path d="M136.358 142.798L114.673 127.628C112.707 126.248 110.066 126.248 108.071 127.628L86.3863 142.798C84.5671 143.796 83.54 144.911 83.54 146.084C83.54 150.192 96.0109 153.538 111.387 153.538C126.762 153.538 139.233 150.192 139.233 146.084C139.204 144.911 138.177 143.796 136.358 142.798Z" fill="url(#paint12_linear_35001_197229)"/>
<path d="M83.8931 37.8666C83.8931 52.274 91.4049 65.5078 103.436 72.9609L98.2712 70.6135C84.8027 64.5101 76.1465 51.1003 76.1465 36.3114V25.5718H83.8637L83.8931 37.8666Z" fill="url(#paint13_linear_35001_197229)"/>
<path d="M60.2417 13.688C60.2417 17.2092 65.23 20.701 75.2067 23.3712C95.1894 28.7117 127.555 28.7117 147.508 23.3712C157.485 20.701 162.473 17.1798 162.473 13.688V19.5566C162.473 23.0484 157.485 26.5696 147.508 29.2399C127.555 34.6096 95.1894 34.6096 75.2067 29.2399C65.23 26.5696 60.2417 23.0484 60.2417 19.5566V13.688Z" fill="url(#paint14_linear_35001_197229)"/>
<path d="M60.2417 13.6886C60.2417 10.1967 65.23 6.67556 75.2067 4.00534C95.1894 -1.33511 127.555 -1.33511 147.508 4.00534C157.485 6.67556 162.473 10.1967 162.473 13.6886C162.473 17.1804 157.485 20.7016 147.508 23.3718C127.526 28.7123 95.16 28.7123 75.2067 23.3718C65.23 20.7016 60.2417 17.1804 60.2417 13.6886Z" fill="url(#paint15_linear_35001_197229)"/>
<path d="M84.245 147.346C84.245 128.948 93.8109 112.076 109.187 102.568L102.614 105.561C85.4481 113.337 74.415 130.444 74.415 149.312V166.126H84.245V147.346Z" fill="url(#paint16_linear_35001_197229)"/>
<path d="M165.701 123.932C165.701 122.142 168.225 120.381 173.301 119.032C183.424 116.332 199.857 116.332 209.98 119.032C215.056 120.381 217.58 122.171 217.58 123.932C217.58 125.722 215.056 127.482 209.98 128.832C199.857 131.532 183.424 131.532 173.301 128.832C168.254 127.512 165.701 125.722 165.701 123.932Z" fill="url(#paint17_linear_35001_197229)"/>
<path d="M165.701 121.466C165.701 123.05 167.931 124.606 172.421 125.809C181.37 128.215 195.895 128.215 204.845 125.809C209.305 124.606 211.565 123.05 211.565 121.466V124.107C211.565 125.691 209.334 127.246 204.845 128.449C195.895 130.856 181.37 130.856 172.421 128.449C167.931 127.246 165.701 125.691 165.701 124.107V121.466Z" fill="url(#paint18_linear_35001_197229)"/>
<path d="M165.701 121.466C165.701 119.882 167.931 118.327 172.421 117.123C181.37 114.717 195.895 114.717 204.845 117.123C209.334 118.327 211.565 119.882 211.565 121.466C211.565 123.051 209.334 124.606 204.845 125.809C195.895 128.215 181.37 128.215 172.421 125.809C167.961 124.606 165.701 123.021 165.701 121.466Z" fill="url(#paint19_linear_35001_197229)"/>
<path d="M191.67 84.7001L196.306 82.4994C204.052 78.8315 208.982 71.0262 208.982 62.458V54.3006C208.982 52.8921 206.987 51.513 203.025 50.4566C195.073 48.3146 182.192 48.3146 174.24 50.4566C170.279 51.513 168.283 52.9215 168.283 54.3006V62.458C168.283 71.0262 173.213 78.8315 180.959 82.4994L185.596 84.7001C186.183 84.9642 186.535 85.551 186.535 86.1966V88.8081C186.535 89.4537 186.153 90.0405 185.596 90.3046L180.959 92.5054C173.213 96.1732 168.283 103.979 168.283 112.547V120.704C168.283 122.113 170.279 123.492 174.24 124.548C182.192 126.69 195.073 126.69 203.025 124.548C206.987 123.492 208.982 122.083 208.982 120.704V112.547C208.982 103.979 204.052 96.1732 196.306 92.5054L191.67 90.3046C191.083 90.0405 190.731 89.4537 190.731 88.8081V86.1966C190.731 85.551 191.083 84.9642 191.67 84.7001Z" fill="url(#paint20_linear_35001_197229)"/>
<path d="M203.025 50.4268C195.073 48.2848 182.192 48.2848 174.24 50.4268C170.279 51.4832 168.283 52.8917 168.283 54.2708V59.6699C169.017 60.7263 170.924 61.7533 174.005 62.5749C182.104 64.7463 195.22 64.7463 203.29 62.5749C206.371 61.7533 208.278 60.7263 209.011 59.6699V54.2708C208.982 52.8917 207.016 51.5125 203.025 50.4268Z" fill="url(#paint21_linear_35001_197229)"/>
<path d="M208.983 54.3001C208.983 55.7086 206.987 57.0877 203.026 58.1441C195.074 60.2861 182.192 60.2861 174.24 58.1441C170.25 57.0877 168.284 55.6793 168.284 54.2708C168.284 52.8623 170.279 51.4832 174.24 50.4268C182.192 48.2848 195.074 48.2848 203.026 50.4268C207.017 51.5125 208.983 52.8917 208.983 54.3001Z" fill="url(#paint22_linear_35001_197229)"/>
<path d="M171.335 70.438C173.331 75.0155 176.94 78.7714 181.664 80.9135L186.975 83.2903C187.445 83.4957 187.738 83.9652 187.738 84.464V112.516H189.558V84.4934C189.558 83.9945 189.851 83.525 190.32 83.3196L195.72 80.9135C200.444 78.8008 204.053 75.0155 206.048 70.438H171.335Z" fill="url(#paint23_linear_35001_197229)"/>
<path d="M188.677 74.6916C198.336 74.6916 206.166 72.5896 206.166 69.9967C206.166 67.4037 198.336 65.3018 188.677 65.3018C179.019 65.3018 171.189 67.4037 171.189 69.9967C171.189 72.5896 179.019 74.6916 188.677 74.6916Z" fill="url(#paint24_linear_35001_197229)"/>
<path d="M169.399 112.166C169.399 115.012 177.996 117.301 188.619 117.301C199.241 117.301 207.838 114.983 207.838 112.166V119.913C207.838 122.759 199.241 125.048 188.619 125.048C177.996 125.048 169.399 122.73 169.399 119.913V112.166Z" fill="url(#paint25_linear_35001_197229)"/>
<path d="M188.619 117.3C199.233 117.3 207.838 115.001 207.838 112.165C207.838 109.329 199.233 107.03 188.619 107.03C178.004 107.03 169.399 109.329 169.399 112.165C169.399 115.001 178.004 117.3 188.619 117.3Z" fill="url(#paint26_linear_35001_197229)"/>
<path d="M199.828 110.669L190.115 103.861C189.235 103.245 188.032 103.245 187.152 103.861L177.439 110.669C176.617 111.109 176.177 111.608 176.177 112.136C176.177 113.984 181.752 115.481 188.648 115.481C195.544 115.481 201.119 113.984 201.119 112.136C201.119 111.637 200.649 111.138 199.828 110.669Z" fill="url(#paint27_linear_35001_197229)"/>
<path d="M176.324 63.6317C176.324 70.0872 179.698 76.0145 185.097 79.3597L182.779 78.3033C176.735 75.5744 172.861 69.5591 172.861 62.9275V58.1152H176.324V63.6317Z" fill="url(#paint28_linear_35001_197229)"/>
<path d="M165.701 52.8042C165.701 54.3887 167.931 55.9439 172.421 57.147C181.37 59.5531 195.895 59.5531 204.845 57.147C209.305 55.9439 211.565 54.3887 211.565 52.8042V55.4451C211.565 57.0296 209.334 58.5848 204.845 59.7879C195.895 62.194 181.37 62.194 172.421 59.7879C167.931 58.5848 165.701 57.0296 165.701 55.4451V52.8042Z" fill="url(#paint29_linear_35001_197229)"/>
<path d="M165.701 52.8046C165.701 51.2201 167.931 49.6649 172.421 48.4618C181.37 46.0557 195.895 46.0557 204.845 48.4618C209.334 49.6649 211.565 51.2201 211.565 52.8046C211.565 54.3891 209.334 55.9443 204.845 57.1474C195.895 59.5535 181.37 59.5535 172.421 57.1474C167.961 55.9443 165.701 54.3891 165.701 52.8046Z" fill="url(#paint30_linear_35001_197229)"/>
<path d="M176.47 112.722C176.47 104.477 180.754 96.9061 187.65 92.6514L184.686 94.0012C176.999 97.493 172.04 105.152 172.04 113.602V121.144H176.441V112.722H176.47Z" fill="url(#paint31_linear_35001_197229)"/>
<path d="M6.25 123.931C6.25 122.141 8.77351 120.381 13.8499 119.031C23.9733 116.331 40.4054 116.331 50.5288 119.031C55.6052 120.381 58.1287 122.171 58.1287 123.931C58.1287 125.721 55.6052 127.482 50.5288 128.832C40.4054 131.531 23.9733 131.531 13.8499 128.832C8.77351 127.511 6.25 125.721 6.25 123.931Z" fill="url(#paint32_linear_35001_197229)"/>
<path d="M6.25 121.466C6.25 123.051 8.48008 124.606 12.9696 125.809C21.9192 128.215 36.4441 128.215 45.3937 125.809C49.8539 124.606 52.1133 123.051 52.1133 121.466V124.107C52.1133 125.692 49.8833 127.247 45.3937 128.45C36.4441 130.856 21.9192 130.856 12.9696 128.45C8.48008 127.247 6.25 125.692 6.25 124.107V121.466Z" fill="url(#paint33_linear_35001_197229)"/>
<path d="M6.25 121.466C6.25 119.882 8.48008 118.327 12.9696 117.123C21.9192 114.717 36.4441 114.717 45.3937 117.123C49.8833 118.327 52.1133 119.882 52.1133 121.466C52.1133 123.051 49.8833 124.606 45.3937 125.809C36.4441 128.215 21.9192 128.215 12.9696 125.809C8.48008 124.606 6.25 123.021 6.25 121.466Z" fill="url(#paint34_linear_35001_197229)"/>
<path d="M32.2195 84.6996L36.8557 82.4989C44.6023 78.831 49.5319 71.0257 49.5319 62.4575V54.3001C49.5319 52.8916 47.5366 51.5125 43.5753 50.4561C35.6233 48.3141 22.7417 48.3141 14.7897 50.4561C10.8283 51.5125 8.83301 52.921 8.83301 54.3001V62.4575C8.83301 71.0257 13.7627 78.831 21.5092 82.4989L26.1455 84.6996C26.7323 84.9637 27.0844 85.5505 27.0844 86.1961V88.8076C27.0844 89.4532 26.703 90.04 26.1455 90.3041L21.5092 92.5049C13.7627 96.1728 8.83301 103.978 8.83301 112.546V120.704C8.83301 122.112 10.8283 123.491 14.7897 124.548C22.7417 126.69 35.6233 126.69 43.5753 124.548C47.5366 123.491 49.5319 122.083 49.5319 120.704V112.546C49.5319 103.978 44.6023 96.1728 36.8557 92.5049L32.2195 90.3041C31.6326 90.04 31.2805 89.4532 31.2805 88.8076V86.1961C31.2512 85.5505 31.6326 84.9637 32.2195 84.6996Z" fill="url(#paint35_linear_35001_197229)"/>
<path d="M43.5753 50.4264C35.6233 48.2843 22.7417 48.2843 14.7897 50.4264C10.8283 51.4827 8.83301 52.8912 8.83301 54.2703V59.6694C9.56659 60.7258 11.4739 61.7528 14.5549 62.5744C22.6536 64.7458 35.77 64.7458 43.8394 62.5744C46.9204 61.7528 48.8277 60.7258 49.5613 59.6694V54.2703C49.5319 52.8912 47.5366 51.5121 43.5753 50.4264Z" fill="url(#paint36_linear_35001_197229)"/>
<path d="M49.5319 54.2997C49.5319 55.7081 47.5366 57.0873 43.5753 58.1436C35.6233 60.2857 22.7417 60.2857 14.7897 58.1436C10.799 57.0873 8.83301 55.6788 8.83301 54.2703C8.83301 52.8618 10.8283 51.4827 14.7897 50.4264C22.7417 48.2843 35.6233 48.2843 43.5753 50.4264C47.5366 51.5121 49.5319 52.8912 49.5319 54.2997Z" fill="url(#paint37_linear_35001_197229)"/>
<path d="M11.8545 70.438C13.8498 75.0155 17.459 78.7714 22.1833 80.9135L27.4944 83.2903C27.9639 83.4957 28.2573 83.9652 28.2573 84.464V112.516H30.0766V84.4934C30.0766 83.9945 30.37 83.525 30.8395 83.3196L36.2386 80.9135C40.9629 78.8008 44.5721 75.0155 46.5674 70.438H11.8545Z" fill="url(#paint38_linear_35001_197229)"/>
<path d="M29.196 74.6921C38.8547 74.6921 46.6845 72.5901 46.6845 69.9971C46.6845 67.4042 38.8547 65.3022 29.196 65.3022C19.5374 65.3022 11.7075 67.4042 11.7075 69.9971C11.7075 72.5901 19.5374 74.6921 29.196 74.6921Z" fill="url(#paint39_linear_35001_197229)"/>
<path d="M9.94922 112.166C9.94922 115.012 18.5468 117.301 29.169 117.301C39.7912 117.301 48.3887 114.982 48.3887 112.166V119.912C48.3887 122.758 39.7912 125.047 29.169 125.047C18.5468 125.047 9.94922 122.729 9.94922 119.912V112.166Z" fill="url(#paint40_linear_35001_197229)"/>
<path d="M29.169 117.3C39.7838 117.3 48.3887 115.001 48.3887 112.165C48.3887 109.329 39.7838 107.03 29.169 107.03C18.5542 107.03 9.94922 109.329 9.94922 112.165C9.94922 115.001 18.5542 117.3 29.169 117.3Z" fill="url(#paint41_linear_35001_197229)"/>
<path d="M40.3781 110.669L30.6655 103.862C29.7852 103.245 28.5822 103.245 27.7019 103.862L17.9893 110.669C17.1677 111.109 16.7275 111.608 16.7275 112.136C16.7275 113.985 22.3027 115.481 29.1984 115.481C36.094 115.481 41.6692 113.985 41.6692 112.136C41.6399 111.638 41.1997 111.139 40.3781 110.669Z" fill="url(#paint42_linear_35001_197229)"/>
<path d="M16.8433 63.6313C16.8433 70.0867 20.2178 76.0141 25.6169 79.3592L23.2988 78.3028C17.2542 75.5739 13.3809 69.5586 13.3809 62.927V58.1147H16.8433V63.6313Z" fill="url(#paint43_linear_35001_197229)"/>
<path d="M6.25 52.8037C6.25 54.3882 8.48008 55.9434 12.9696 57.1465C21.9192 59.5526 36.4441 59.5526 45.3937 57.1465C49.8539 55.9434 52.1133 54.3882 52.1133 52.8037V55.4446C52.1133 57.0291 49.8833 58.5843 45.3937 59.7874C36.4441 62.1935 21.9192 62.1935 12.9696 59.7874C8.48008 58.5843 6.25 57.0291 6.25 55.4446V52.8037Z" fill="url(#paint44_linear_35001_197229)"/>
<path d="M6.25 52.8041C6.25 51.2196 8.48008 49.6644 12.9696 48.4613C21.9192 46.0552 36.4441 46.0552 45.3937 48.4613C49.8833 49.6644 52.1133 51.2196 52.1133 52.8041C52.1133 54.3887 49.8833 55.9438 45.3937 57.1469C36.4441 59.5531 21.9192 59.5531 12.9696 57.1469C8.48008 55.9438 6.25 54.3887 6.25 52.8041Z" fill="url(#paint45_linear_35001_197229)"/>
<path d="M17.0197 112.722C17.0197 104.477 21.3038 96.9061 28.1994 92.6514L25.2358 94.0012C17.5479 97.493 12.5889 105.152 12.5889 113.602V121.144H16.9903V112.722H17.0197Z" fill="url(#paint46_linear_35001_197229)"/>
<path d="M150.531 188.485C150.531 188.485 148.507 192.299 146.57 195.703C143.929 200.369 135.86 196.378 139.058 190.774C142.345 185.022 142.785 184.142 142.785 184.142L150.531 188.485Z" fill="url(#paint47_linear_35001_197229)"/>
<path d="M140.995 186.343C140.995 186.343 146.57 175.75 148.8 173.344C150.737 171.261 159.041 173.403 155.402 180.504C152.145 186.813 149.533 191.39 149.533 191.39C149.533 191.39 144.545 189.395 140.995 186.343Z" fill="url(#paint48_linear_35001_197229)"/>
<path d="M109.394 190.715C110.479 190.95 115.497 191.948 118.05 192.095C119.869 192.183 127.352 194.823 141.025 197.846C147.774 199.342 149.271 189.953 141.935 189.043C132.076 187.81 121.072 186.754 119.957 186.167C118.842 185.61 117.727 184.231 117.052 183.497C116.436 182.822 115.937 182.206 115.409 182.265C114.881 182.323 115.35 183.497 115.732 184.172C116.084 184.817 116.524 185.698 115.82 185.551C115.82 185.551 111.36 184.495 110.156 184.231C108.953 183.967 108.748 185.258 109.863 185.58C110.978 185.903 114.411 186.93 114.411 186.93C114.411 186.93 109.305 185.874 108.19 185.668C107.105 185.463 106.841 186.901 108.102 187.194C109.364 187.488 113.971 188.456 113.971 188.456C113.971 188.456 110.391 187.869 108.748 187.664C107.545 187.488 107.281 188.749 108.66 189.072C110.362 189.454 113.766 190.099 113.766 190.099C113.766 190.099 110.861 189.718 109.54 189.6C108.689 189.483 108.308 190.451 109.394 190.715Z" fill="url(#paint49_linear_35001_197229)"/>
<path d="M116.318 186.46C116.318 186.46 115.673 188.954 119.575 190.568" stroke="white" stroke-miterlimit="10" stroke-linecap="round" stroke-linejoin="round"/>
<path d="M200.739 246.38H153.408V254.186H200.739V246.38Z" fill="url(#paint50_linear_35001_197229)"/>
<path d="M139.206 239.484C139.206 239.484 141.406 246.409 141.612 248.522C141.758 249.901 141.524 251.427 140.878 251.897C140.233 252.366 132.545 254.625 128.231 255.154C123.918 255.682 121.658 253.598 122.832 251.985C124.006 250.371 133.748 246.351 133.22 243.886C132.691 241.392 132.046 240.247 132.046 240.247L139.206 239.484Z" fill="url(#paint51_linear_35001_197229)"/>
<path d="M122.803 252.014C122.832 253.393 124.974 254.713 128.525 254.273C132.838 253.745 140.526 251.515 141.172 251.016C141.348 250.899 141.465 250.723 141.582 250.488C141.406 251.133 141.201 251.662 140.849 251.926C140.203 252.395 132.515 254.655 128.202 255.183C123.918 255.682 121.658 253.628 122.803 252.014Z" fill="url(#paint52_linear_35001_197229)"/>
<path d="M180.521 233.821C180.521 233.821 186.654 230.74 188.591 230.212C189.853 229.889 191.32 229.86 191.877 230.388C192.435 230.916 195.692 237.753 196.836 241.714C197.981 245.646 196.367 248.082 194.694 247.231C193.022 246.409 187.769 237.9 185.569 238.751C183.309 239.631 182.341 240.394 182.341 240.394L180.521 233.821Z" fill="url(#paint53_linear_35001_197229)"/>
<path d="M194.694 247.231C195.985 246.996 196.894 244.795 195.955 241.568C194.811 237.636 191.554 230.799 190.996 230.241C190.85 230.094 190.674 230.006 190.439 229.948C191.055 230.006 191.583 230.124 191.877 230.417C192.434 230.945 195.691 237.782 196.836 241.744C197.951 245.646 196.366 248.082 194.694 247.231Z" fill="url(#paint54_linear_35001_197229)"/>
<path d="M133.073 200.81C123.625 198.551 117.052 205.183 121.189 215.159C125.327 225.136 132.809 242.36 132.809 242.36C132.809 242.36 136.213 243.182 139.529 240.512C139.529 240.512 138.384 231.474 137.563 224.784C136.507 216.509 133.778 212.372 133.778 212.372C133.778 212.372 145.398 221.439 160.186 224.344C173.89 227.043 176.384 214.631 176.795 211.491C176.765 211.491 140.262 202.512 133.073 200.81Z" fill="url(#paint55_linear_35001_197229)"/>
<path d="M160.215 209.996C160.215 209.996 147.921 234.116 144.399 241.686C140.878 249.257 147.51 257.326 157.692 252.866C167.874 248.406 184.717 239.221 184.717 239.221C184.717 239.221 184.453 235.113 181.871 233.118C181.871 233.118 176.237 234.908 170.955 236.434C165.673 237.96 160.685 240.425 157.486 242.655C157.486 242.655 170.955 229.832 175.327 223.171C179.729 216.51 177.821 209.614 177.821 209.614L160.215 209.996Z" fill="url(#paint56_linear_35001_197229)"/>
<path d="M178.497 213.486C178.497 213.486 177.88 207.236 177.059 201.66C176.061 195.029 175.826 190.95 175.005 180.827C174.418 173.491 153.584 169.119 149.388 172.787C145.632 176.073 153.232 195.968 152.146 206.033C151.824 208.908 157.105 212.869 163.473 213.808C177.117 215.804 178.497 213.486 178.497 213.486Z" fill="url(#paint57_linear_35001_197229)"/>
<path d="M155.786 170.498C159.336 170.674 163.679 171.965 167.406 174.371C166.643 175.75 164.237 178.655 159.688 179.506C153.38 180.68 150.269 177.276 155.786 170.498Z" fill="url(#paint58_linear_35001_197229)"/>
<path d="M166.642 173.872C166.642 173.872 163.414 171.848 163.649 167.769L157.956 166.302C157.956 166.302 157.516 169.265 156.577 170.38C155.638 171.496 151.647 176.366 155.198 177.863C159.453 179.624 165.087 176.484 166.642 173.872Z" fill="url(#paint59_linear_35001_197229)"/>
<path d="M153.79 175.986C153.702 174.577 154.729 172.817 155.609 171.614L162.622 169.09C162.622 169.09 161.302 176.133 156.46 176.632C155.286 176.749 154.406 176.397 153.79 175.986Z" fill="url(#paint60_linear_35001_197229)"/>
<path d="M164.176 166.479C165.966 164.014 164.91 162.43 163.531 161.931C163.091 159.672 162.328 158.322 159.834 157.09C155.784 155.094 150.092 157.882 149.387 160.816C148.683 163.75 150.414 166.274 150.473 167.36C150.532 168.445 151.001 170.265 151.618 171.526C152.645 173.668 154.024 175.282 155.667 175.312C157.427 175.312 164.03 171.204 164.176 166.479Z" fill="url(#paint61_linear_35001_197229)"/>
<path d="M158.132 160.962C157.691 162.224 158.484 164.249 159.98 164.66C161.477 165.07 161.565 165.335 161.565 165.335C161.565 165.335 161.007 162.43 163.061 162.518C163.971 162.547 165.497 163.985 163.237 166.596C163.325 167.711 163.736 168.504 163.736 168.504C163.736 168.504 166.524 165.129 165.937 161.285C165.35 157.441 162.826 157.412 162.826 157.412C162.826 157.412 161.829 153.597 156.987 153.656C152.175 153.715 148.448 156.209 147.773 158.498C146.805 161.667 149.387 163.955 149.387 163.955C149.387 163.955 148.654 160.786 151.031 161.403C153.437 161.989 156.254 162.488 158.132 160.962Z" fill="url(#paint62_linear_35001_197229)"/>
<path d="M152.996 167.359C152.996 167.359 152.967 169.854 152.996 170.323C153.025 170.763 153.641 171.379 154.434 170.793" stroke="#2E405C" stroke-miterlimit="10" stroke-linecap="round"/>
<path d="M155.872 167.388C156.228 167.388 156.517 167.099 156.517 166.743C156.517 166.386 156.228 166.097 155.872 166.097C155.515 166.097 155.226 166.386 155.226 166.743C155.226 167.099 155.515 167.388 155.872 167.388Z" fill="#2E405C"/>
<path d="M151.529 167.976C151.885 167.976 152.174 167.687 152.174 167.331C152.174 166.974 151.885 166.685 151.529 166.685C151.172 166.685 150.883 166.974 150.883 167.331C150.883 167.687 151.172 167.976 151.529 167.976Z" fill="#2E405C"/>
<path d="M154.758 164.777C154.758 164.777 155.579 163.809 156.9 164.542" stroke="#2E405C" stroke-miterlimit="10" stroke-linecap="round"/>
<path d="M150.033 165.452C150.033 165.452 150.854 164.484 152.175 165.217" stroke="#2E405C" stroke-miterlimit="10" stroke-linecap="round"/>
<path d="M156.166 171.967C156.166 171.967 157.721 171.41 157.457 169.561" stroke="#2E405C" stroke-miterlimit="10" stroke-linecap="round"/>
<path d="M152.792 224.108C153.642 223.404 157.516 220.059 159.188 218.151C160.391 216.772 167.052 212.488 177.88 203.597C183.22 199.196 176.765 192.241 171.512 197.465C164.47 204.478 156.841 212.488 155.697 213.016C154.552 213.545 152.792 213.574 151.823 213.662C150.914 213.721 150.121 213.721 149.828 214.19C149.564 214.63 150.796 214.982 151.5 215.1C152.234 215.217 153.202 215.423 152.645 215.863L150.268 217.77C150.268 217.77 148.86 217.506 148.067 217.477C147.422 217.447 147.011 218.21 148.097 218.621C148.654 218.826 150.356 219.589 151.178 219.002C152.087 218.357 152.85 217.799 152.85 217.799L150.239 220C150.239 220 148.39 220.235 147.803 220.264C146.688 220.352 146.541 221.321 147.833 221.438C148.302 221.497 150.62 221.614 151.06 221.233C151.5 220.851 153.76 219.061 153.76 219.061L151.53 221.321C151.53 221.321 150.18 221.907 149.329 222.083C148.449 222.289 148.86 223.463 149.799 223.287C150.444 223.169 151.941 222.846 152.557 222.318C153.114 221.849 154.963 220.206 154.963 220.206C154.963 220.206 152.85 222.26 151.97 223.228C151.383 223.903 151.911 224.812 152.792 224.108Z" fill="url(#paint63_linear_35001_197229)"/>
<path d="M177.703 190.628C177.703 190.628 178.847 194.795 179.786 198.61C181.077 203.833 172.48 206.474 170.954 200.194C169.399 193.768 169.105 192.8 169.105 192.8L177.703 190.628Z" fill="url(#paint64_linear_35001_197229)"/>
<path d="M168.959 195.558C168.959 195.558 166.729 185.817 165.996 182.618C164.881 177.6 173.185 173.757 175.385 181.386C177.381 188.193 178.613 193.328 178.613 193.328C178.613 193.328 173.625 195.353 168.959 195.558Z" fill="url(#paint65_linear_35001_197229)"/>
<path d="M75.9414 259.466C75.9414 256.766 79.7854 254.067 87.4733 252.013C102.849 247.905 127.791 247.905 143.167 252.013C150.854 254.067 154.698 256.766 154.698 259.466C154.698 262.165 150.854 264.865 143.167 266.919C127.791 271.027 102.849 271.027 87.4733 266.919C79.7854 264.865 75.9414 262.165 75.9414 259.466Z" fill="url(#paint66_linear_35001_197229)"/>
<path d="M72.6553 254.889C72.6553 257.412 76.2645 259.936 83.4536 261.872C97.861 265.716 121.189 265.716 135.567 261.872C142.756 259.936 146.365 257.412 146.365 254.889V259.114C146.365 261.638 142.756 264.161 135.567 266.098C121.159 269.942 97.8317 269.942 83.4536 266.098C76.2645 264.161 72.6553 261.638 72.6553 259.114V254.889Z" fill="url(#paint67_linear_35001_197229)"/>
<path d="M72.6553 254.89C72.6553 252.367 76.2645 249.843 83.4536 247.906C97.861 244.062 121.189 244.062 135.567 247.906C142.756 249.843 146.365 252.367 146.365 254.89C146.365 257.414 142.756 259.937 135.567 261.874C121.159 265.718 97.8317 265.718 83.4536 261.874C76.2645 259.966 72.6553 257.443 72.6553 254.89Z" fill="url(#paint68_linear_35001_197229)"/>
<path d="M112.826 259.261H142.638C145.132 257.882 146.394 256.415 146.394 254.919C146.394 253.393 145.074 251.867 142.433 250.458H112.826V259.261Z" fill="url(#paint69_linear_35001_197229)"/>
<path d="M128.377 247.054H91.8745V231.737C91.8745 221.673 100.032 213.486 110.126 213.486C120.191 213.486 128.377 221.643 128.377 231.737V247.054Z" fill="url(#paint70_linear_35001_197229)"/>
<path d="M128.377 251.954H91.8745V236.637C91.8745 226.572 100.032 218.385 110.126 218.385C120.191 218.385 128.377 226.543 128.377 236.637V251.954Z" fill="url(#paint71_linear_35001_197229)"/>
<path d="M110.125 242.507V191.245" stroke="url(#paint72_linear_35001_197229)" stroke-width="10" stroke-miterlimit="10" stroke-linecap="round" stroke-linejoin="round"/>
<path d="M110.126 196.995C114.34 196.995 117.756 193.58 117.756 189.366C117.756 185.153 114.34 181.737 110.126 181.737C105.913 181.737 102.497 185.153 102.497 189.366C102.497 193.58 105.913 196.995 110.126 196.995Z" fill="url(#paint73_linear_35001_197229)"/>
<path d="M110.127 189.63C113.157 189.63 115.614 187.922 115.614 185.816C115.614 183.709 113.157 182.001 110.127 182.001C107.096 182.001 104.64 183.709 104.64 185.816C104.64 187.922 107.096 189.63 110.127 189.63Z" fill="url(#paint74_linear_35001_197229)"/>
<path d="M128.378 254.391H91.875V239.074C91.875 229.009 100.032 220.822 110.126 220.822C120.191 220.822 128.378 228.98 128.378 239.074V254.391Z" fill="url(#paint75_linear_35001_197229)"/>
<path d="M128.378 259.29H91.875V243.973C91.875 233.908 100.032 225.722 110.126 225.722C120.191 225.722 128.378 233.879 128.378 243.973V259.29Z" fill="url(#paint76_linear_35001_197229)"/>
<path d="M110.127 248.374C113.368 248.374 115.996 245.747 115.996 242.506C115.996 239.265 113.368 236.637 110.127 236.637C106.886 236.637 104.258 239.265 104.258 242.506C104.258 245.747 106.886 248.374 110.127 248.374Z" fill="url(#paint77_linear_35001_197229)"/>
<path d="M98.3593 192.771H51.0288V197.26H98.3593V192.771Z" fill="url(#paint78_linear_35001_197229)"/>
<path d="M48.5914 112.929C50.1466 106.238 52.8755 96.1149 53.2569 92.5644C53.8145 87.6054 46.3026 85.346 44.7181 92.0362C42.4293 101.719 41.461 106.796 40.522 111.52C39.3483 117.477 47.2709 118.562 48.5914 112.929Z" fill="url(#paint79_linear_35001_197229)"/>
<path d="M48.4457 131.826C48.1523 125.4 48.5338 118.181 48.4457 113.721C48.3284 107.764 40.0829 108.175 40.4057 113.457C40.7285 118.739 43.1933 130.916 43.164 131.65C43.1346 132.383 42.8119 134.291 42.313 135.728C41.8729 136.99 41.198 139.543 41.0806 140.071C40.9632 140.629 41.9022 141.157 42.2543 140.306C42.6358 139.367 43.5454 136.902 43.5454 136.902C43.5454 136.902 42.7825 140.746 42.6945 141.891C42.6358 142.565 43.8389 142.83 44.0736 141.744C44.367 140.306 44.9833 137.46 44.9833 137.46C44.9833 137.46 44.6311 141.803 44.5138 142.742C44.3964 143.739 45.7462 143.945 45.9222 142.947C46.2743 141.01 46.7145 137.694 46.7145 137.694C46.7145 137.694 46.6558 141.128 46.5971 142.331C46.5678 143.27 47.8002 143.328 47.9176 142.419C48.1523 140.746 48.4164 137.724 48.4457 137.078C48.4457 136.667 49.7662 138.604 50.6758 139.074C51.5855 139.543 52.3484 138.663 51.4387 137.46C50.4998 136.286 49.9716 135.728 49.7955 134.349C49.5901 133.058 48.4751 132.559 48.4457 131.826Z" fill="url(#paint80_linear_35001_197229)"/>
<path d="M48.2104 179.685C48.2104 179.685 49.0907 188.752 48.6799 192.889C48.4158 195.53 49.3842 196 53.3162 195.941C57.2481 195.912 61.0334 193.359 58.2458 192.977C53.727 192.332 55.3995 189.192 55.4289 178.482L48.2104 179.685Z" fill="url(#paint81_linear_35001_197229)"/>
<path d="M48.2696 182.736C48.2696 182.736 46.2743 173.258 47.5947 160.523C48.2696 154.156 47.1252 149.373 45.7754 142.008C43.8975 131.679 44.1616 123.492 48.475 113.956L60.0069 114.983C60.0069 114.983 59.0972 130.799 58.481 140.658C57.8061 151.515 55.6054 183 55.6054 183C55.6054 183 52.6711 184.379 48.2696 182.736Z" fill="url(#paint82_linear_35001_197229)"/>
<path d="M54.667 190.16C53.8454 191.774 50.7937 192.684 48.681 190.747C46.6857 195.148 46.9791 198.435 52.6423 197.144C56.5156 196.263 57.8067 195.589 59.5673 194.708C61.2105 193.916 61.1519 191.921 58.9511 191.891C55.2539 191.833 55.6647 189.515 55.3126 188.253C55.1365 187.666 55.1072 189.309 54.667 190.16Z" fill="url(#paint83_linear_35001_197229)"/>
<path d="M52.4358 196.381C56.3091 195.5 57.6002 194.825 59.3608 193.945C60.065 193.593 60.4465 193.036 60.5052 192.507C61.004 193.182 60.6519 194.209 59.5955 194.708C57.8349 195.559 56.5438 196.263 52.6706 197.144C49.3254 197.906 47.8583 197.056 47.6235 195.354C48.1517 196.527 49.6482 197.026 52.4358 196.381Z" fill="url(#paint84_linear_35001_197229)"/>
<path d="M62.5308 181.151C62.5308 181.151 63.4111 190.218 63.0003 194.356C62.7362 196.997 63.7045 197.466 67.6365 197.407C71.5685 197.378 76.0873 197.437 77.261 196.762C78.4347 196.087 76.234 195.031 73.4464 194.649C68.9276 194.004 69.7198 190.688 69.7492 179.948L62.5308 181.151Z" fill="url(#paint85_linear_35001_197229)"/>
<path d="M62.5892 184.174C62.5892 184.174 59.9776 174.784 61.3274 162.078C62.0023 155.711 60.4765 152.982 58.2757 146.086C55.8109 138.398 53.4928 125.106 56.8966 114.865L70.9813 117.77C70.9813 117.77 73.4461 132.236 72.8299 142.096C72.155 152.953 69.9543 184.438 69.9543 184.438C69.9543 184.438 66.9907 185.846 62.5892 184.174Z" fill="url(#paint86_linear_35001_197229)"/>
<path d="M62.0898 197.378C62.0898 197.378 62.3245 194.913 63.0581 193.064C63.0581 193.064 64.8187 194.15 66.8434 193.505C69.1908 192.771 69.1028 190.218 69.7777 190.688C70.3646 191.098 69.7777 192.8 73.0348 193.857C78.1112 195.529 79.3142 196.087 79.0208 197.495C78.6687 199.168 67.4596 199.461 64.8187 199.373C62.2072 199.285 62.0605 197.965 62.0898 197.378Z" fill="url(#paint87_linear_35001_197229)"/>
<path d="M78.9624 196.645C78.9624 196.674 78.9624 196.703 78.9331 196.733C78.5809 198.405 67.9587 198.552 65.3179 198.464C63.5279 198.405 62.2955 197.906 62.0608 197.349C62.0608 197.378 62.0608 197.407 62.0608 197.407C62.0021 198.024 62.1781 199.315 64.819 199.403C67.4599 199.491 78.6396 199.227 79.0211 197.525C79.1091 197.173 79.0798 196.909 78.9624 196.645Z" fill="url(#paint88_linear_35001_197229)"/>
<path d="M66.7565 87.5179C66.7565 87.5179 63.7342 86.2561 62.9126 84.965C61.7095 83.0577 61.7388 80.4462 61.7388 80.4462L54.7552 80.2114C54.7552 80.2114 54.1096 86.2561 50.4124 87.0777C50.4124 87.0777 48.9452 92.0661 57.4254 91.9193C65.5534 91.802 66.7565 87.5179 66.7565 87.5179Z" fill="url(#paint89_linear_35001_197229)"/>
<path d="M72.2436 122.613C71.5687 124.315 52.6717 127.601 45.6587 120.852C45.6587 120.852 48.3876 113.751 46.627 104.596C44.5143 93.7978 44.9251 89.0148 47.9181 87.8705C48.8277 87.5183 50.8818 86.8141 50.8818 86.8141C49.9721 89.8951 60.0075 91.4503 65.6707 86.7261C68.6637 88.0172 72.5663 89.9245 72.7717 93.7978C73.0945 99.3143 74.7377 100.429 74.1215 102.865C73.2706 106.151 71.0698 106.063 70.7764 113.311C70.6003 117.83 72.2436 122.613 72.2436 122.613Z" fill="url(#paint90_linear_35001_197229)"/>
<path d="M52.2589 75.8393C52.3469 67.0363 59.4186 66.2734 62.9398 68.0633C66.4609 69.8533 66.1675 75.0177 66.4316 76.162C66.6957 77.3358 67.3119 77.4825 67.3119 77.8346C67.2826 78.4215 66.4609 78.4802 66.4609 78.4802C66.4609 78.4802 66.8718 82.1774 64.759 82.9403C62.3823 83.8206 52.1708 84.6716 52.2589 75.8393Z" fill="url(#paint91_linear_35001_197229)"/>
<path d="M65.7576 71.8771C65.7576 71.8771 66.4325 66.5073 60.7693 65.0988C55.106 63.6904 48.5625 66.4486 48.5332 73.8724C48.4745 81.2669 48.2398 84.8174 46.0684 85.6977C46.0684 85.6977 49.4428 91.2729 56.896 90.2753C64.3491 89.2776 65.1707 83.8198 63.7623 80.8561C62.3831 77.8925 60.6812 75.9558 61.7376 74.0778C62.7939 72.1999 65.6109 71.613 64.848 69.8818C64.848 69.8818 65.4055 70.674 65.7576 71.8771Z" fill="url(#paint92_linear_35001_197229)"/>
<path d="M78.5811 113.691C76.9966 107.001 73.9743 95.5867 72.6538 92.2709C70.8345 87.6347 63.5575 89.1605 65.0833 97.0245C66.9613 106.62 68.8686 111.285 70.2477 115.921C72.1256 122.201 80.283 120.91 78.5811 113.691Z" fill="url(#paint93_linear_35001_197229)"/>
<path d="M95.395 97.4641C95.395 97.4641 95.7178 100.046 95.9819 100.633C96.246 101.22 96.7155 101.132 96.8035 100.956C96.8915 100.751 96.8035 97.3174 96.8035 97.3174L95.395 97.4641Z" fill="url(#paint94_linear_35001_197229)"/>
<path d="M91.7264 103.01C93.0762 101.426 95.1889 100.868 95.7758 100.076C96.3626 99.2839 96.9201 98.2569 96.9201 98.2569C96.9201 98.2569 97.0962 99.0785 97.2136 99.8707C97.3309 100.663 97.8298 101.074 98.1525 100.839C98.5047 100.604 98.3579 98.785 98.3286 97.67C98.2993 96.555 97.419 96.5256 97.419 96.5256C97.419 95.3519 96.1572 95.6453 96.1572 95.6453C95.8344 94.589 94.7781 94.9411 94.7781 94.9411C94.7781 94.9411 96.48 92.2709 97.0082 91.3612C97.507 90.569 96.5093 89.6593 95.7758 90.6863C95.4236 91.1852 92.9882 93.9141 91.1982 96.2615C89.643 98.2862 89.4376 98.8144 88.7041 99.5186C85.0949 102.922 79.6077 105.739 72.9468 111.579C66.8728 116.89 73.6804 121.761 77.495 119.002C81.1042 116.332 88.2933 107.089 91.7264 103.01Z" fill="url(#paint95_linear_35001_197229)"/>
<defs>
<linearGradient id="paint0_linear_35001_197229" x1="-33.9292" y1="196.568" x2="271.589" y2="196.568" gradientUnits="userSpaceOnUse">
<stop stop-color="white"/>
<stop offset="1" stop-color="#AEBDDF"/>
</linearGradient>
<linearGradient id="paint1_linear_35001_197229" x1="9.51104" y1="175.979" x2="523.908" y2="175.979" gradientUnits="userSpaceOnUse">
<stop stop-color="white"/>
<stop offset="1" stop-color="#AEBDDF"/>
</linearGradient>
<linearGradient id="paint2_linear_35001_197229" x1="223.32" y1="176.622" x2="162.954" y2="176.622" gradientUnits="userSpaceOnUse">
<stop stop-color="white" stop-opacity="0"/>
<stop offset="1" stop-color="#AEBDDF"/>
</linearGradient>
<linearGradient id="paint3_linear_35001_197229" x1="159.471" y1="176.622" x2="-29.123" y2="176.622" gradientUnits="userSpaceOnUse">
<stop stop-color="white"/>
<stop offset="1" stop-color="#AEBDDF"/>
</linearGradient>
<linearGradient id="paint4_linear_35001_197229" x1="73.5773" y1="166.837" x2="256.342" y2="166.837" gradientUnits="userSpaceOnUse">
<stop stop-color="white"/>
<stop offset="1" stop-color="#AEBDDF"/>
</linearGradient>
<linearGradient id="paint5_linear_35001_197229" x1="68.9702" y1="91.0785" x2="214.525" y2="91.0785" gradientUnits="userSpaceOnUse">
<stop stop-color="#79D985" stop-opacity="0.2"/>
<stop offset="1" stop-color="#027A71"/>
</linearGradient>
<linearGradient id="paint6_linear_35001_197229" x1="68.9698" y1="22.0131" x2="214.524" y2="22.0131" gradientUnits="userSpaceOnUse">
<stop stop-color="#79D985" stop-opacity="0.2"/>
<stop offset="1" stop-color="#027A71"/>
</linearGradient>
<linearGradient id="paint7_linear_35001_197229" x1="46.8113" y1="17.0118" x2="194.7" y2="17.0118" gradientUnits="userSpaceOnUse">
<stop stop-color="#79D985" stop-opacity="0.2"/>
<stop offset="1" stop-color="#027A71"/>
</linearGradient>
<linearGradient id="paint8_linear_35001_197229" x1="76.2113" y1="99.9699" x2="160.135" y2="99.9699" gradientUnits="userSpaceOnUse">
<stop stop-color="#79D985"/>
<stop offset="1" stop-color="#027A71"/>
</linearGradient>
<linearGradient id="paint9_linear_35001_197229" x1="74.0175" y1="52.0145" x2="239.881" y2="52.0145" gradientUnits="userSpaceOnUse">
<stop stop-color="#79D985"/>
<stop offset="1" stop-color="#027A71"/>
</linearGradient>
<linearGradient id="paint10_linear_35001_197229" x1="63.047" y1="160.487" x2="188.634" y2="160.487" gradientUnits="userSpaceOnUse">
<stop stop-color="#79D985"/>
<stop offset="1" stop-color="#027A71"/>
</linearGradient>
<linearGradient id="paint11_linear_35001_197229" x1="75.5525" y1="146.09" x2="261.603" y2="146.09" gradientUnits="userSpaceOnUse">
<stop stop-color="#79D985"/>
<stop offset="1" stop-color="#027A71"/>
</linearGradient>
<linearGradient id="paint12_linear_35001_197229" x1="76.2099" y1="140.066" x2="160.134" y2="140.066" gradientUnits="userSpaceOnUse">
<stop stop-color="#79D985"/>
<stop offset="1" stop-color="#027A71"/>
</linearGradient>
<linearGradient id="paint13_linear_35001_197229" x1="89.8108" y1="36.7599" x2="89.8108" y2="67.1267" gradientUnits="userSpaceOnUse">
<stop stop-color="white" stop-opacity="0.8"/>
<stop offset="1" stop-color="white" stop-opacity="0"/>
</linearGradient>
<linearGradient id="paint14_linear_35001_197229" x1="38.474" y1="23.4702" x2="215.429" y2="23.4702" gradientUnits="userSpaceOnUse">
<stop stop-color="white"/>
<stop offset="1" stop-color="#AEBDDF"/>
</linearGradient>
<linearGradient id="paint15_linear_35001_197229" x1="181.081" y1="13.6863" x2="20.0395" y2="13.6863" gradientUnits="userSpaceOnUse">
<stop stop-color="white"/>
<stop offset="1" stop-color="#AEBDDF"/>
</linearGradient>
<linearGradient id="paint16_linear_35001_197229" x1="91.8095" y1="103.503" x2="91.8095" y2="163.929" gradientUnits="userSpaceOnUse">
<stop stop-color="white" stop-opacity="0.8"/>
<stop offset="1" stop-color="white" stop-opacity="0"/>
</linearGradient>
<linearGradient id="paint17_linear_35001_197229" x1="191.642" y1="144.389" x2="191.642" y2="123.289" gradientUnits="userSpaceOnUse">
<stop stop-color="white"/>
<stop offset="1" stop-color="#AEBDDF"/>
</linearGradient>
<linearGradient id="paint18_linear_35001_197229" x1="210.195" y1="125.841" x2="125.654" y2="125.841" gradientUnits="userSpaceOnUse">
<stop stop-color="white"/>
<stop offset="1" stop-color="#AEBDDF"/>
</linearGradient>
<linearGradient id="paint19_linear_35001_197229" x1="171.691" y1="121.455" x2="253.619" y2="121.455" gradientUnits="userSpaceOnUse">
<stop stop-color="white"/>
<stop offset="1" stop-color="#AEBDDF"/>
</linearGradient>
<linearGradient id="paint20_linear_35001_197229" x1="165.304" y1="87.4967" x2="208.63" y2="87.4967" gradientUnits="userSpaceOnUse">
<stop stop-color="white"/>
<stop offset="1" stop-color="#AEBDDF"/>
</linearGradient>
<linearGradient id="paint21_linear_35001_197229" x1="158.721" y1="56.5366" x2="200.217" y2="56.5366" gradientUnits="userSpaceOnUse">
<stop stop-color="white"/>
<stop offset="1" stop-color="#AEBDDF"/>
</linearGradient>
<linearGradient id="paint22_linear_35001_197229" x1="159.693" y1="54.2946" x2="225.987" y2="54.2946" gradientUnits="userSpaceOnUse">
<stop stop-color="#79D985" stop-opacity="0.2"/>
<stop offset="1" stop-color="#027A71"/>
</linearGradient>
<linearGradient id="paint23_linear_35001_197229" x1="172.872" y1="91.4808" x2="210.492" y2="91.4808" gradientUnits="userSpaceOnUse">
<stop stop-color="#ACBDDE"/>
<stop offset="1" stop-color="#2E405C"/>
</linearGradient>
<linearGradient id="paint24_linear_35001_197229" x1="171.889" y1="69.9828" x2="246.24" y2="69.9828" gradientUnits="userSpaceOnUse">
<stop stop-color="#ACBDDE"/>
<stop offset="1" stop-color="#2E405C"/>
</linearGradient>
<linearGradient id="paint25_linear_35001_197229" x1="166.971" y1="118.611" x2="223.268" y2="118.611" gradientUnits="userSpaceOnUse">
<stop stop-color="#ACBDDE"/>
<stop offset="1" stop-color="#2E405C"/>
</linearGradient>
<linearGradient id="paint26_linear_35001_197229" x1="172.577" y1="112.156" x2="255.977" y2="112.156" gradientUnits="userSpaceOnUse">
<stop stop-color="#ACBDDE"/>
<stop offset="1" stop-color="#2E405C"/>
</linearGradient>
<linearGradient id="paint27_linear_35001_197229" x1="172.872" y1="109.456" x2="210.492" y2="109.456" gradientUnits="userSpaceOnUse">
<stop stop-color="#ACBDDE"/>
<stop offset="1" stop-color="#2E405C"/>
</linearGradient>
<linearGradient id="paint28_linear_35001_197229" x1="178.968" y1="63.1476" x2="178.968" y2="76.76" gradientUnits="userSpaceOnUse">
<stop stop-color="white" stop-opacity="0.8"/>
<stop offset="1" stop-color="white" stop-opacity="0"/>
</linearGradient>
<linearGradient id="paint29_linear_35001_197229" x1="155.956" y1="57.1902" x2="235.279" y2="57.1902" gradientUnits="userSpaceOnUse">
<stop stop-color="white"/>
<stop offset="1" stop-color="#AEBDDF"/>
</linearGradient>
<linearGradient id="paint30_linear_35001_197229" x1="219.882" y1="52.8045" x2="147.692" y2="52.8045" gradientUnits="userSpaceOnUse">
<stop stop-color="white"/>
<stop offset="1" stop-color="#AEBDDF"/>
</linearGradient>
<linearGradient id="paint31_linear_35001_197229" x1="179.864" y1="93.0656" x2="179.864" y2="120.152" gradientUnits="userSpaceOnUse">
<stop stop-color="white" stop-opacity="0.8"/>
<stop offset="1" stop-color="white" stop-opacity="0"/>
</linearGradient>
<linearGradient id="paint32_linear_35001_197229" x1="32.1769" y1="144.388" x2="32.1769" y2="123.288" gradientUnits="userSpaceOnUse">
<stop stop-color="white"/>
<stop offset="1" stop-color="#AEBDDF"/>
</linearGradient>
<linearGradient id="paint33_linear_35001_197229" x1="50.7294" y1="125.841" x2="-33.8109" y2="125.841" gradientUnits="userSpaceOnUse">
<stop stop-color="white"/>
<stop offset="1" stop-color="#AEBDDF"/>
</linearGradient>
<linearGradient id="paint34_linear_35001_197229" x1="12.2263" y1="121.455" x2="94.1536" y2="121.455" gradientUnits="userSpaceOnUse">
<stop stop-color="white"/>
<stop offset="1" stop-color="#AEBDDF"/>
</linearGradient>
<linearGradient id="paint35_linear_35001_197229" x1="5.84012" y1="87.4962" x2="49.1662" y2="87.4962" gradientUnits="userSpaceOnUse">
<stop stop-color="white"/>
<stop offset="1" stop-color="#AEBDDF"/>
</linearGradient>
<linearGradient id="paint36_linear_35001_197229" x1="-0.74295" y1="56.5361" x2="40.7528" y2="56.5361" gradientUnits="userSpaceOnUse">
<stop stop-color="white"/>
<stop offset="1" stop-color="#AEBDDF"/>
</linearGradient>
<linearGradient id="paint37_linear_35001_197229" x1="0.228659" y1="54.2941" x2="66.5222" y2="54.2941" gradientUnits="userSpaceOnUse">
<stop stop-color="#79D985" stop-opacity="0.2"/>
<stop offset="1" stop-color="#027A71"/>
</linearGradient>
<linearGradient id="paint38_linear_35001_197229" x1="13.4064" y1="91.4808" x2="51.0266" y2="91.4808" gradientUnits="userSpaceOnUse">
<stop stop-color="#ACBDDE"/>
<stop offset="1" stop-color="#2E405C"/>
</linearGradient>
<linearGradient id="paint39_linear_35001_197229" x1="12.4226" y1="69.9833" x2="86.7737" y2="69.9833" gradientUnits="userSpaceOnUse">
<stop stop-color="#ACBDDE"/>
<stop offset="1" stop-color="#2E405C"/>
</linearGradient>
<linearGradient id="paint40_linear_35001_197229" x1="7.50755" y1="118.61" x2="63.804" y2="118.61" gradientUnits="userSpaceOnUse">
<stop stop-color="#ACBDDE"/>
<stop offset="1" stop-color="#2E405C"/>
</linearGradient>
<linearGradient id="paint41_linear_35001_197229" x1="13.1133" y1="112.156" x2="96.5136" y2="112.156" gradientUnits="userSpaceOnUse">
<stop stop-color="#ACBDDE"/>
<stop offset="1" stop-color="#2E405C"/>
</linearGradient>
<linearGradient id="paint42_linear_35001_197229" x1="13.4084" y1="109.456" x2="51.0287" y2="109.456" gradientUnits="userSpaceOnUse">
<stop stop-color="#ACBDDE"/>
<stop offset="1" stop-color="#2E405C"/>
</linearGradient>
<linearGradient id="paint43_linear_35001_197229" x1="19.5033" y1="63.1471" x2="19.5033" y2="76.7595" gradientUnits="userSpaceOnUse">
<stop stop-color="white" stop-opacity="0.8"/>
<stop offset="1" stop-color="white" stop-opacity="0"/>
</linearGradient>
<linearGradient id="paint44_linear_35001_197229" x1="-3.50938" y1="57.1897" x2="75.8137" y2="57.1897" gradientUnits="userSpaceOnUse">
<stop stop-color="white"/>
<stop offset="1" stop-color="#AEBDDF"/>
</linearGradient>
<linearGradient id="paint45_linear_35001_197229" x1="60.4166" y1="52.804" x2="-11.773" y2="52.804" gradientUnits="userSpaceOnUse">
<stop stop-color="white"/>
<stop offset="1" stop-color="#AEBDDF"/>
</linearGradient>
<linearGradient id="paint46_linear_35001_197229" x1="20.3996" y1="93.0656" x2="20.3996" y2="120.152" gradientUnits="userSpaceOnUse">
<stop stop-color="white" stop-opacity="0.8"/>
<stop offset="1" stop-color="white" stop-opacity="0"/>
</linearGradient>
<linearGradient id="paint47_linear_35001_197229" x1="144.41" y1="236.476" x2="144.41" y2="159.029" gradientUnits="userSpaceOnUse">
<stop stop-color="#FFD2BB"/>
<stop offset="1" stop-color="#FF6B5A"/>
</linearGradient>
<linearGradient id="paint48_linear_35001_197229" x1="148.645" y1="158.194" x2="148.645" y2="234.503" gradientUnits="userSpaceOnUse">
<stop stop-color="#FFEFA4"/>
<stop offset="1" stop-color="#FE8F01"/>
</linearGradient>
<linearGradient id="paint49_linear_35001_197229" x1="111.691" y1="227.154" x2="141.469" y2="155.662" gradientUnits="userSpaceOnUse">
<stop stop-color="#FFD2BB"/>
<stop offset="1" stop-color="#FF6B5A"/>
</linearGradient>
<linearGradient id="paint50_linear_35001_197229" x1="201.229" y1="250.29" x2="153.658" y2="250.29" gradientUnits="userSpaceOnUse">
<stop stop-color="white" stop-opacity="0"/>
<stop offset="1" stop-color="#AEBDDF"/>
</linearGradient>
<linearGradient id="paint51_linear_35001_197229" x1="131.783" y1="253.762" x2="134.121" y2="235.425" gradientUnits="userSpaceOnUse">
<stop stop-color="white"/>
<stop offset="1" stop-color="#AEBDDF"/>
</linearGradient>
<linearGradient id="paint52_linear_35001_197229" x1="137.173" y1="250.071" x2="108.736" y2="260.27" gradientUnits="userSpaceOnUse">
<stop stop-color="#ACBDDE"/>
<stop offset="1" stop-color="#2E405C"/>
</linearGradient>
<linearGradient id="paint53_linear_35001_197229" x1="194.973" y1="238.611" x2="177.507" y2="239.205" gradientUnits="userSpaceOnUse">
<stop stop-color="white"/>
<stop offset="1" stop-color="#AEBDDF"/>
</linearGradient>
<linearGradient id="paint54_linear_35001_197229" x1="190.719" y1="234.106" x2="204.546" y2="259.1" gradientUnits="userSpaceOnUse">
<stop stop-color="#ACBDDE"/>
<stop offset="1" stop-color="#2E405C"/>
</linearGradient>
<linearGradient id="paint55_linear_35001_197229" x1="133.061" y1="178.723" x2="154.035" y2="225.264" gradientUnits="userSpaceOnUse">
<stop stop-color="#ACBDDE"/>
<stop offset="1" stop-color="#2E405C"/>
</linearGradient>
<linearGradient id="paint56_linear_35001_197229" x1="164.089" y1="298.326" x2="164.089" y2="194.357" gradientUnits="userSpaceOnUse">
<stop stop-color="#ACBDDE"/>
<stop offset="1" stop-color="#2E405C"/>
</linearGradient>
<linearGradient id="paint57_linear_35001_197229" x1="163.422" y1="158.194" x2="163.422" y2="234.503" gradientUnits="userSpaceOnUse">
<stop stop-color="#FFEFA4"/>
<stop offset="1" stop-color="#FE8F01"/>
</linearGradient>
<linearGradient id="paint58_linear_35001_197229" x1="159.895" y1="179.292" x2="160.729" y2="167.439" gradientUnits="userSpaceOnUse">
<stop stop-color="white"/>
<stop offset="1" stop-color="#AEBDDF"/>
</linearGradient>
<linearGradient id="paint59_linear_35001_197229" x1="159.152" y1="181.385" x2="163.364" y2="155.363" gradientUnits="userSpaceOnUse">
<stop stop-color="#FFD2BB"/>
<stop offset="1" stop-color="#FF6B5A"/>
</linearGradient>
<linearGradient id="paint60_linear_35001_197229" x1="155.433" y1="183.092" x2="158.711" y2="170.391" gradientUnits="userSpaceOnUse">
<stop stop-color="#FFD2BB"/>
<stop offset="1" stop-color="#FF6B5A"/>
</linearGradient>
<linearGradient id="paint61_linear_35001_197229" x1="159.62" y1="180.184" x2="155.819" y2="154.101" gradientUnits="userSpaceOnUse">
<stop stop-color="#FFD2BB"/>
<stop offset="1" stop-color="#FF6B5A"/>
</linearGradient>
<linearGradient id="paint62_linear_35001_197229" x1="149.328" y1="121.722" x2="157.385" y2="164.045" gradientUnits="userSpaceOnUse">
<stop stop-color="#ACBDDE"/>
<stop offset="1" stop-color="#2E405C"/>
</linearGradient>
<linearGradient id="paint63_linear_35001_197229" x1="163.421" y1="245.704" x2="163.421" y2="180.024" gradientUnits="userSpaceOnUse">
<stop stop-color="#FFD2BB"/>
<stop offset="1" stop-color="#FF6B5A"/>
</linearGradient>
<linearGradient id="paint64_linear_35001_197229" x1="174.504" y1="245.704" x2="174.504" y2="180.025" gradientUnits="userSpaceOnUse">
<stop stop-color="#FFD2BB"/>
<stop offset="1" stop-color="#FF6B5A"/>
</linearGradient>
<linearGradient id="paint65_linear_35001_197229" x1="172.254" y1="158.195" x2="172.254" y2="234.504" gradientUnits="userSpaceOnUse">
<stop stop-color="#FFEFA4"/>
<stop offset="1" stop-color="#FE8F01"/>
</linearGradient>
<linearGradient id="paint66_linear_35001_197229" x1="194.273" y1="259.473" x2="96.4324" y2="259.473" gradientUnits="userSpaceOnUse">
<stop stop-color="white"/>
<stop offset="1" stop-color="#AEBDDF"/>
</linearGradient>
<linearGradient id="paint67_linear_35001_197229" x1="144.198" y1="261.956" x2="8.24699" y2="261.956" gradientUnits="userSpaceOnUse">
<stop stop-color="white"/>
<stop offset="1" stop-color="#AEBDDF"/>
</linearGradient>
<linearGradient id="paint68_linear_35001_197229" x1="109.527" y1="274.47" x2="109.527" y2="213.68" gradientUnits="userSpaceOnUse">
<stop stop-color="white"/>
<stop offset="1" stop-color="#AEBDDF"/>
</linearGradient>
<linearGradient id="paint69_linear_35001_197229" x1="157.837" y1="254.85" x2="124.898" y2="254.85" gradientUnits="userSpaceOnUse">
<stop stop-color="white" stop-opacity="0"/>
<stop offset="1" stop-color="#AEBDDF"/>
</linearGradient>
<linearGradient id="paint70_linear_35001_197229" x1="110.123" y1="212.176" x2="110.123" y2="264.824" gradientUnits="userSpaceOnUse">
<stop stop-color="white"/>
<stop offset="1" stop-color="#AEBDDF"/>
</linearGradient>
<linearGradient id="paint71_linear_35001_197229" x1="179.002" y1="235.169" x2="92.4256" y2="235.169" gradientUnits="userSpaceOnUse">
<stop stop-color="white"/>
<stop offset="1" stop-color="#AEBDDF"/>
</linearGradient>
<linearGradient id="paint72_linear_35001_197229" x1="-nan" y1="-nan" x2="-nan" y2="-nan" gradientUnits="userSpaceOnUse">
<stop stop-color="#5D6E8C"/>
<stop offset="1" stop-color="#2E405C"/>
</linearGradient>
<linearGradient id="paint73_linear_35001_197229" x1="110.123" y1="183.054" x2="110.123" y2="197.159" gradientUnits="userSpaceOnUse">
<stop stop-color="#FFEFA4"/>
<stop offset="1" stop-color="#FE8F01"/>
</linearGradient>
<linearGradient id="paint74_linear_35001_197229" x1="110.124" y1="182.678" x2="110.124" y2="189.73" gradientUnits="userSpaceOnUse">
<stop stop-color="white" stop-opacity="0.8"/>
<stop offset="1" stop-color="white" stop-opacity="0"/>
</linearGradient>
<linearGradient id="paint75_linear_35001_197229" x1="110.123" y1="212.176" x2="110.123" y2="264.825" gradientUnits="userSpaceOnUse">
<stop stop-color="white"/>
<stop offset="1" stop-color="#AEBDDF"/>
</linearGradient>
<linearGradient id="paint76_linear_35001_197229" x1="179.002" y1="242.509" x2="92.4261" y2="242.509" gradientUnits="userSpaceOnUse">
<stop stop-color="white"/>
<stop offset="1" stop-color="#AEBDDF"/>
</linearGradient>
<linearGradient id="paint77_linear_35001_197229" x1="110.124" y1="212.409" x2="110.124" y2="248.829" gradientUnits="userSpaceOnUse">
<stop stop-color="#ACBDDE"/>
<stop offset="1" stop-color="#2E405C"/>
</linearGradient>
<linearGradient id="paint78_linear_35001_197229" x1="98.8718" y1="195.019" x2="51.3005" y2="195.019" gradientUnits="userSpaceOnUse">
<stop stop-color="white" stop-opacity="0"/>
<stop offset="1" stop-color="#AEBDDF"/>
</linearGradient>
<linearGradient id="paint79_linear_35001_197229" x1="39.7662" y1="166.931" x2="49.7999" y2="75.4135" gradientUnits="userSpaceOnUse">
<stop stop-color="#FFD2BB"/>
<stop offset="1" stop-color="#FF6B5A"/>
</linearGradient>
<linearGradient id="paint80_linear_35001_197229" x1="41.5946" y1="166.959" x2="51.6625" y2="75.1304" gradientUnits="userSpaceOnUse">
<stop stop-color="#FFD2BB"/>
<stop offset="1" stop-color="#FF6B5A"/>
</linearGradient>
<linearGradient id="paint81_linear_35001_197229" x1="64.7909" y1="185.725" x2="38.6369" y2="189.593" gradientUnits="userSpaceOnUse">
<stop stop-color="#FFD2BB"/>
<stop offset="1" stop-color="#FF6B5A"/>
</linearGradient>
<linearGradient id="paint82_linear_35001_197229" x1="49.6074" y1="203.131" x2="52.4322" y2="120.908" gradientUnits="userSpaceOnUse">
<stop stop-color="#ACBDDE"/>
<stop offset="1" stop-color="#2E405C"/>
</linearGradient>
<linearGradient id="paint83_linear_35001_197229" x1="54.13" y1="195.95" x2="54.13" y2="186.293" gradientUnits="userSpaceOnUse">
<stop stop-color="white"/>
<stop offset="1" stop-color="#AEBDDF"/>
</linearGradient>
<linearGradient id="paint84_linear_35001_197229" x1="64.5217" y1="184.559" x2="49.529" y2="199.033" gradientUnits="userSpaceOnUse">
<stop stop-color="white"/>
<stop offset="1" stop-color="#AEBDDF"/>
</linearGradient>
<linearGradient id="paint85_linear_35001_197229" x1="85.3405" y1="186.682" x2="49.6698" y2="191.959" gradientUnits="userSpaceOnUse">
<stop stop-color="#FFD2BB"/>
<stop offset="1" stop-color="#FF6B5A"/>
</linearGradient>
<linearGradient id="paint86_linear_35001_197229" x1="61.5825" y1="204.605" x2="64.4206" y2="121.992" gradientUnits="userSpaceOnUse">
<stop stop-color="#ACBDDE"/>
<stop offset="1" stop-color="#2E405C"/>
</linearGradient>
<linearGradient id="paint87_linear_35001_197229" x1="70.5855" y1="198.705" x2="70.5855" y2="188.816" gradientUnits="userSpaceOnUse">
<stop stop-color="white"/>
<stop offset="1" stop-color="#AEBDDF"/>
</linearGradient>
<linearGradient id="paint88_linear_35001_197229" x1="90.0351" y1="198.623" x2="63.1354" y2="197.698" gradientUnits="userSpaceOnUse">
<stop stop-color="white"/>
<stop offset="1" stop-color="#AEBDDF"/>
</linearGradient>
<linearGradient id="paint89_linear_35001_197229" x1="57.9988" y1="60.8286" x2="58.8309" y2="100.537" gradientUnits="userSpaceOnUse">
<stop stop-color="#FFD2BB"/>
<stop offset="1" stop-color="#FF6B5A"/>
</linearGradient>
<linearGradient id="paint90_linear_35001_197229" x1="59.7838" y1="81.9713" x2="59.7838" y2="158.673" gradientUnits="userSpaceOnUse">
<stop stop-color="white"/>
<stop offset="1" stop-color="#AEBDDF"/>
</linearGradient>
<linearGradient id="paint91_linear_35001_197229" x1="59.7441" y1="62.0687" x2="59.8085" y2="99.7149" gradientUnits="userSpaceOnUse">
<stop stop-color="#FFD2BB"/>
<stop offset="1" stop-color="#FF6B5A"/>
</linearGradient>
<linearGradient id="paint92_linear_35001_197229" x1="57.3378" y1="37.741" x2="55.6719" y2="86.2315" gradientUnits="userSpaceOnUse">
<stop stop-color="#ACBDDE"/>
<stop offset="1" stop-color="#2E405C"/>
</linearGradient>
<linearGradient id="paint93_linear_35001_197229" x1="73.2178" y1="65.4109" x2="70.9112" y2="132.551" gradientUnits="userSpaceOnUse">
<stop stop-color="#FFD2BB"/>
<stop offset="1" stop-color="#FF6B5A"/>
</linearGradient>
<linearGradient id="paint94_linear_35001_197229" x1="95.548" y1="106.413" x2="96.2372" y2="97.5422" gradientUnits="userSpaceOnUse">
<stop stop-color="#FFD2BB"/>
<stop offset="1" stop-color="#FF6B5A"/>
</linearGradient>
<linearGradient id="paint95_linear_35001_197229" x1="85.8822" y1="65.8459" x2="83.5756" y2="132.986" gradientUnits="userSpaceOnUse">
<stop stop-color="#FFD2BB"/>
<stop offset="1" stop-color="#FF6B5A"/>
</linearGradient>
</defs>
</svg>
